SplineFontDB: 3.0
FontName: FreeMonoLED
FullName: Free Monospaced LED
FamilyName: FreeMonoLED
Weight: Book
Copyright: Copyleft 2011 Catraeus.
Version: $Revision: 1.165 $
ItalicAngle: 0
UnderlinePosition: -102.4
UnderlineWidth: 51.2
Ascent: 819
Descent: 205
LayerCount: 2
Layer: 0 1 "Back"  1
Layer: 1 1 "Fore"  0
NeedsXUIDChange: 1
XUID: [1021 297 2134980173 11274684]
FSType: 0
OS2Version: 1
OS2_WeightWidthSlopeOnly: 0
OS2_UseTypoMetrics: 1
CreationTime: 1203284335
ModificationTime: 1292123087
PfmFamily: 17
TTFWeight: 400
TTFWidth: 5
LineGap: 92
VLineGap: 0
Panose: 2 7 4 9 2 2 5 2 4 4
OS2TypoAscent: 0
OS2TypoAOffset: 1
OS2TypoDescent: 0
OS2TypoDOffset: 1
OS2TypoLinegap: 0
OS2WinAscent: 0
OS2WinAOffset: 1
OS2WinDescent: 0
OS2WinDOffset: 1
HheadAscent: 0
HheadAOffset: 1
HheadDescent: 0
HheadDOffset: 1
OS2SubXSize: 666
OS2SubYSize: 716
OS2SubXOff: 48
OS2SubYOff: 143
OS2SupXSize: 666
OS2SupYSize: 716
OS2SupXOff: -167
OS2SupYOff: 490
OS2StrikeYSize: 50
OS2StrikeYPos: 264
OS2Vendor: 'GNU '
OS2CodePages: 600001bf.dff70000
OS2UnicodeRanges: e4000eff.40007fff.00048020.00000000
Lookup: 4 1 1 "'liga' Standard Ligatures in Hebrew lookup 0"  {"'liga' Standard Ligatures in Hebrew lookup 0 subtable"  } ['liga' ('hebr' <'dflt' > ) ]
Lookup: 2 1 0 "'ccmp' Glyph Composition/Decomposition in Hebrew lookup 1"  {"'ccmp' Glyph Composition/Decomposition in Hebrew lookup 1 subtable"  } ['ccmp' ('hebr' <'dflt' > ) ]
Lookup: 4 8 0 "'dlig' Discretionary Ligatures in Hebrew lookup 2"  {"'dlig' Discretionary Ligatures in Hebrew lookup 2 subtable"  } ['dlig' ('hebr' <'dflt' > ) ]
Lookup: 260 0 0 "'mark' Mark Positioning in Greek lookup 0"  {"'mark' Mark Positioning in Greek lookup 0 subtable"  } ['mark' ('grek' <'dflt' > ) ]
Lookup: 260 0 0 "'mark' Mark Positioning in Latin lookup 1"  {"'mark' Mark Positioning in Latin lookup 1 subtable"  } ['mark' ('latn' <'dflt' > ) ]

StartChar: .notdef
Encoding: 65536 -1 0
Width: 372
Flags: W
LayerCount: 2
Fore
SplineSet
34 0 m 1,0,-1
 34 682 l 1,1,-1
 305 682 l 1,2,-1
 305 0 l 1,3,-1
 34 0 l 1,0,-1
68 34 m 1,4,-1
 271 34 l 1,5,-1
 271 648 l 1,6,-1
 68 648 l 1,7,-1
 68 34 l 1,4,-1
EndSplineSet
EndChar

StartChar: exclam
Encoding: 33 33 4
Width: 614
GlyphClass: 2
Flags: W
LayerCount: 2
Fore
SplineSet
346 577 m 2,0,-1
 328 243 l 2,1,2
 327 214 327 214 306 214 c 0,3,4
 287 214 287 214 286 243 c 2,5,-1
 267 577 l 2,6,7
 266 584 266 584 266 593 c 0,8,9
 266 610 266 610 278 621.5 c 128,-1,10
 290 633 290 633 307 633 c 0,11,12
 323 633 323 633 335 621.5 c 128,-1,13
 347 610 347 610 347 593 c 1,14,-1
 346 588 l 1,15,16
 346 582 346 582 346 577 c 2,0,-1
300 87 m 2,17,-1
 313 87 l 2,18,19
 337 87 337 87 353 72 c 128,-1,20
 369 57 369 57 369 35.5 c 128,-1,21
 369 14 369 14 353 -0.5 c 128,-1,22
 337 -15 337 -15 313 -15 c 2,23,-1
 300 -15 l 2,24,25
 277 -15 277 -15 261.5 -0.5 c 128,-1,26
 246 14 246 14 246 35.5 c 128,-1,27
 246 57 246 57 261.5 72 c 128,-1,28
 277 87 277 87 300 87 c 2,17,-1
EndSplineSet
EndChar

StartChar: quotedbl
Encoding: 34 34 5
Width: 614
GlyphClass: 2
Flags: W
LayerCount: 2
Fore
SplineSet
150 618 m 1,0,-1
 281 618 l 1,1,-1
 246 359 l 2,2,3
 242 322 242 322 215 322.5 c 128,-1,4
 188 323 188 323 184 359 c 2,5,-1
 150 618 l 1,0,-1
334 618 m 1,6,-1
 465 618 l 1,7,-1
 430 359 l 2,8,9
 426 322 426 322 399.5 322.5 c 128,-1,10
 373 323 373 323 369 359 c 2,11,-1
 334 618 l 1,6,-1
EndSplineSet
EndChar

StartChar: numbersign
Encoding: 35 35 6
Width: 614
GlyphClass: 2
Flags: W
LayerCount: 2
Fore
SplineSet
329 -43 m 2,0,-1
 345 194 l 1,1,-1
 252 194 l 1,2,-1
 237 -37 l 1,3,4
 234 -64 234 -64 215 -63 c 0,5,6
 207 -63 207 -63 201 -57 c 128,-1,7
 195 -51 195 -51 195 -42 c 2,8,-1
 195 -34 l 1,9,-1
 211 194 l 1,10,-1
 122 194 l 2,11,12
 94 194 94 194 94 215 c 0,13,14
 94 235 94 235 122 236 c 2,15,-1
 213 236 l 1,16,-1
 222 365 l 1,17,-1
 142 365 l 2,18,19
 114 365 114 365 115 386 c 0,20,21
 115 406 115 406 142 407 c 2,22,-1
 225 407 l 1,23,-1
 242 637 l 2,24,25
 243 663 243 663 263 663 c 0,26,27
 282 663 282 663 283 637 c 2,28,-1
 283 634 l 1,29,-1
 267 407 l 1,30,-1
 360 407 l 1,31,-1
 377 637 l 2,32,33
 378 663 378 663 397 663 c 0,34,35
 417 663 417 663 418 637 c 2,36,-1
 418 634 l 1,37,-1
 401 407 l 1,38,-1
 493 407 l 2,39,40
 521 407 521 407 520 386 c 0,41,42
 520 364 520 364 493 365 c 2,43,-1
 399 365 l 1,44,-1
 390 236 l 1,45,-1
 472 236 l 2,46,47
 500 236 500 236 500 215 c 0,48,49
 500 193 500 193 472 194 c 2,50,-1
 387 194 l 1,51,-1
 371 -37 l 2,52,53
 370 -64 370 -64 349 -63 c 0,54,55
 342 -63 342 -63 335.5 -57 c 128,-1,56
 329 -51 329 -51 329 -43 c 2,0,-1
357 365 m 1,57,-1
 264 365 l 1,58,-1
 255 236 l 1,59,-1
 348 236 l 1,60,-1
 357 365 l 1,57,-1
EndSplineSet
EndChar

StartChar: dollar
Encoding: 36 36 7
Width: 614
GlyphClass: 2
Flags: W
LayerCount: 2
Fore
SplineSet
457 206 m 0,0,1
 457 243 457 243 433.5 265.5 c 128,-1,2
 410 288 410 288 374.5 295.5 c 128,-1,3
 339 303 339 303 298 313 c 128,-1,4
 257 323 257 323 221.5 333.5 c 128,-1,5
 186 344 186 344 162.5 372 c 128,-1,6
 139 400 139 400 139 445 c 0,7,8
 139 500 139 500 180.5 541.5 c 128,-1,9
 222 583 222 583 287 590 c 1,10,-1
 287 643 l 2,11,12
 287 671 287 671 308 671 c 0,13,14
 328 671 328 671 329 643 c 2,15,-1
 329 590 l 1,16,17
 363 587 363 587 385.5 577.5 c 128,-1,18
 408 568 408 568 435 547 c 1,19,20
 437 577 437 577 457 577 c 0,21,22
 477 577 477 577 477 549 c 2,23,-1
 477 487 l 2,24,25
 477 459 477 459 457 460 c 0,26,27
 439 460 439 460 435 482 c 0,28,29
 431 510 431 510 393.5 530.5 c 128,-1,30
 356 551 356 551 309 551 c 0,31,32
 256 551 256 551 218.5 519.5 c 128,-1,33
 181 488 181 488 181 444 c 0,34,35
 181 410 181 410 204.5 389.5 c 128,-1,36
 228 369 228 369 263.5 362 c 128,-1,37
 299 355 299 355 340 345.5 c 128,-1,38
 381 336 381 336 416.5 325 c 128,-1,39
 452 314 452 314 475.5 283.5 c 128,-1,40
 499 253 499 253 499 206 c 0,41,42
 499 146 499 146 453 104.5 c 128,-1,43
 407 63 407 63 329 55 c 1,44,-1
 329 -67 l 2,45,46
 329 -95 329 -95 308 -94 c 0,47,48
 286 -94 286 -94 287 -67 c 2,49,-1
 287 55 l 1,50,51
 251 57 251 57 214 72.5 c 128,-1,52
 177 88 177 88 158 111 c 1,53,-1
 158 94 l 2,54,55
 158 66 158 66 137 67 c 0,56,57
 115 67 115 67 116 94 c 2,58,-1
 116 175 l 2,59,60
 116 203 116 203 137 203 c 0,61,62
 154 203 154 203 158 177 c 0,63,64
 161 144 161 144 205.5 119.5 c 128,-1,65
 250 95 250 95 306 95 c 0,66,67
 372 95 372 95 414.5 126.5 c 128,-1,68
 457 158 457 158 457 206 c 0,0,1
EndSplineSet
EndChar

StartChar: percent
Encoding: 37 37 8
Width: 614
GlyphClass: 2
Flags: W
LayerCount: 2
Fore
SplineSet
370 242 m 0,0,1
 423 242 423 242 459.5 204.5 c 128,-1,2
 496 167 496 167 496 113 c 0,3,4
 496 62 496 62 459 25 c 128,-1,5
 422 -12 422 -12 371 -12 c 0,6,7
 319 -12 319 -12 282 25 c 128,-1,8
 245 62 245 62 245 114.5 c 128,-1,9
 245 167 245 167 282 204.5 c 128,-1,10
 319 242 319 242 370 242 c 0,0,1
370 203 m 0,11,12
 334 203 334 203 309 177.5 c 128,-1,13
 284 152 284 152 284 115 c 0,14,15
 284 79 284 79 309.5 53 c 128,-1,16
 335 27 335 27 371 27 c 0,17,18
 406 27 406 27 431.5 52.5 c 128,-1,19
 457 78 457 78 457 114 c 0,20,21
 457 152 457 152 432 177.5 c 128,-1,22
 407 203 407 203 370 203 c 0,11,12
243 626 m 0,23,24
 296 626 296 626 332.5 589 c 128,-1,25
 369 552 369 552 369 498 c 0,26,27
 369 447 369 447 332 409.5 c 128,-1,28
 295 372 295 372 244 372 c 0,29,30
 192 372 192 372 155 409 c 128,-1,31
 118 446 118 446 118 498.5 c 128,-1,32
 118 551 118 551 155 588.5 c 128,-1,33
 192 626 192 626 243 626 c 0,23,24
243 587 m 0,34,35
 208 587 208 587 182.5 561 c 128,-1,36
 157 535 157 535 157 499 c 128,-1,37
 157 463 157 463 182.5 437 c 128,-1,38
 208 411 208 411 244 411 c 0,39,40
 279 411 279 411 304.5 437 c 128,-1,41
 330 463 330 463 330 498 c 0,42,43
 330 536 330 536 305 561.5 c 128,-1,44
 280 587 280 587 243 587 c 0,34,35
507 352 m 2,45,-1
 119 227 l 2,46,47
 111 224 111 224 106 224 c 0,48,49
 100 224 100 224 94.5 230.5 c 128,-1,50
 89 237 89 237 89 244 c 0,51,52
 89 258 89 258 108 264 c 2,53,-1
 496 389 l 2,54,55
 504 391 504 391 508 391 c 0,56,57
 515 391 515 391 520 385.5 c 128,-1,58
 525 380 525 380 525 372 c 0,59,60
 525 358 525 358 507 352 c 2,45,-1
EndSplineSet
EndChar

StartChar: ampersand
Encoding: 38 38 9
Width: 614
GlyphClass: 2
Flags: W
LayerCount: 2
Fore
SplineSet
402 0 m 1,0,-1
 371 49 l 1,1,2
 325 -17 325 -17 256 -16 c 0,3,4
 196 -16 196 -16 152 32 c 128,-1,5
 108 80 108 80 108 145 c 0,6,7
 108 198 108 198 138 238 c 128,-1,8
 168 278 168 278 221 294 c 1,9,10
 186 350 186 350 178 368.5 c 128,-1,11
 170 387 170 387 170 410 c 0,12,13
 170 460 170 460 207.5 495.5 c 128,-1,14
 245 531 245 531 296 531 c 0,15,16
 330 531 330 531 364 511 c 1,17,18
 383 522 383 522 390 522 c 128,-1,19
 397 522 397 522 403.5 515.5 c 128,-1,20
 410 509 410 509 410 501 c 0,21,22
 410 489 410 489 393 479 c 2,23,-1
 360 463 l 1,24,25
 329 490 329 490 296 489 c 0,26,27
 263 489 263 489 237.5 464 c 128,-1,28
 212 439 212 439 212 407.5 c 128,-1,29
 212 376 212 376 257 305 c 2,30,-1
 371 124 l 1,31,32
 403 183 403 183 418 255 c 1,33,-1
 462 255 l 2,34,35
 490 255 490 255 489 234 c 0,36,37
 489 212 489 212 462 213 c 2,38,-1
 450 213 l 1,39,40
 427 128 427 128 395 84 c 1,41,-1
 423 42 l 1,42,-1
 462 42 l 2,43,44
 490 42 490 42 489 22 c 0,45,46
 489 0 489 0 462 0 c 2,47,-1
 402 0 l 1,0,-1
346 88 m 1,48,-1
 239 257 l 1,49,50
 198 248 198 248 174 217.5 c 128,-1,51
 150 187 150 187 150 145 c 0,52,53
 150 97 150 97 181.5 61.5 c 128,-1,54
 213 26 213 26 255 26 c 0,55,56
 311 26 311 26 346 88 c 1,48,-1
EndSplineSet
EndChar

StartChar: quotesingle
Encoding: 39 39 10
Width: 614
GlyphClass: 2
Flags: W
LayerCount: 2
Fore
SplineSet
242 618 m 1,0,-1
 373 618 l 1,1,-1
 338 359 l 2,2,3
 334 322 334 322 307.5 322.5 c 128,-1,4
 281 323 281 323 276 359 c 2,5,-1
 242 618 l 1,0,-1
EndSplineSet
EndChar

StartChar: parenleft
Encoding: 40 40 11
Width: 614
GlyphClass: 2
Flags: W
LayerCount: 2
Fore
SplineSet
301 249 m 0,0,1
 301 325 301 325 332.5 415.5 c 128,-1,2
 364 506 364 506 398.5 562 c 128,-1,3
 433 618 433 618 449 618 c 0,4,5
 457 618 457 618 463 612 c 128,-1,6
 469 606 469 606 469 598 c 0,7,8
 469 587 469 587 452.5 556.5 c 128,-1,9
 436 526 436 526 416 490 c 128,-1,10
 396 454 396 454 380 387.5 c 128,-1,11
 364 321 364 321 364 246 c 0,12,13
 364 89 364 89 466 -95 c 0,14,15
 469 -102 469 -102 469 -106 c 0,16,17
 469 -114 469 -114 462.5 -120.5 c 128,-1,18
 456 -127 456 -127 447 -127 c 0,19,20
 431 -127 431 -127 396.5 -71 c 128,-1,21
 362 -15 362 -15 331.5 77 c 128,-1,22
 301 169 301 169 301 249 c 0,0,1
EndSplineSet
EndChar

StartChar: parenright
Encoding: 41 41 12
Width: 614
GlyphClass: 2
Flags: W
LayerCount: 2
Fore
SplineSet
151 -106 m 0,0,1
 151 -95 151 -95 167 -65 c 128,-1,2
 183 -35 183 -35 203 1.5 c 128,-1,3
 223 38 223 38 239.5 104.5 c 128,-1,4
 256 171 256 171 256 246 c 0,5,6
 256 404 256 404 154 587 c 0,7,8
 151 594 151 594 151 598 c 0,9,10
 151 606 151 606 157.5 612 c 128,-1,11
 164 618 164 618 172 618 c 0,12,13
 188 618 188 618 222.5 562.5 c 128,-1,14
 257 507 257 507 287.5 415 c 128,-1,15
 318 323 318 323 318 243 c 0,16,17
 318 167 318 167 287 76.5 c 128,-1,18
 256 -14 256 -14 221 -70.5 c 128,-1,19
 186 -127 186 -127 171 -127 c 0,20,21
 163 -127 163 -127 157 -120.5 c 128,-1,22
 151 -114 151 -114 151 -106 c 0,0,1
EndSplineSet
EndChar

StartChar: asterisk
Encoding: 42 42 13
Width: 614
GlyphClass: 2
Flags: W
LayerCount: 2
Fore
SplineSet
286 449 m 1,0,-1
 286 591 l 2,1,2
 286 619 286 619 307 618 c 0,3,4
 327 618 327 618 328 591 c 2,5,-1
 328 449 l 1,6,-1
 464 493 l 2,7,8
 471 496 471 496 479 496 c 0,9,10
 486 496 486 496 492.5 489.5 c 128,-1,11
 499 483 499 483 499 475 c 0,12,13
 499 460 499 460 477 453 c 2,14,-1
 341 410 l 1,15,-1
 424 295 l 1,16,17
 431 283 431 283 431 276 c 0,18,19
 431 268 431 268 425 262 c 128,-1,20
 419 256 419 256 411 256 c 0,21,22
 401 256 401 256 390 270 c 2,23,-1
 306 385 l 1,24,-1
 223 270 l 2,25,26
 212 256 212 256 202 256 c 0,27,28
 194 256 194 256 187.5 262 c 128,-1,29
 181 268 181 268 181 278 c 0,30,31
 181 284 181 284 189 295 c 2,32,-1
 272 410 l 1,33,-1
 136 453 l 1,34,35
 116 458 116 458 116 474 c 0,36,37
 116 482 116 482 122 488.5 c 128,-1,38
 128 495 128 495 136 495 c 0,39,40
 139 495 139 495 150 492 c 2,41,-1
 286 449 l 1,0,-1
EndSplineSet
EndChar

StartChar: plus
Encoding: 43 43 14
Width: 614
GlyphClass: 2
Flags: W
LayerCount: 2
Fore
SplineSet
328 267 m 1,0,-1
 328 60 l 2,1,2
 328 32 328 32 307 33 c 0,3,4
 285 33 285 33 286 60 c 2,5,-1
 286 267 l 1,6,-1
 101 267 l 2,7,8
 73 267 73 267 74 289 c 0,9,10
 74 309 74 309 101 309 c 2,11,-1
 286 309 l 1,12,-1
 286 515 l 2,13,14
 286 543 286 543 307 543 c 0,15,16
 327 543 327 543 328 515 c 2,17,-1
 328 309 l 1,18,-1
 512 309 l 2,19,20
 541 309 541 309 541 289 c 0,21,22
 541 267 541 267 512 267 c 2,23,-1
 328 267 l 1,0,-1
EndSplineSet
EndChar

StartChar: comma
Encoding: 44 44 15
Width: 614
GlyphClass: 2
Flags: HW
LayerCount: 2
Fore
SplineSet
551.25 96.75 m 159,-1,1
 510.5 96.75 510.5 96.75 510.5 54.5 c 31,2,3
 510.5 -43 510.5 -43 526 -43 c 31,4,5
 592 -43 592 -43 592 48.5 c 31,6,0
 592 96.75 592 96.75 551.25 96.75 c 159,-1,1
EndSplineSet
EndChar

StartChar: hyphen
Encoding: 45 45 16
Width: 614
GlyphClass: 2
Flags: W
LayerCount: 2
Fore
SplineSet
441.001 279.669 m 1,0,-1
227.666 360.665 m 1,1,-1
 188 322 l 17,2,-1
 215.048 286.548 l 1,3,-1
 438.042 285.881 l 1,4,-1
 478 324 l 1,5,-1
 449.29 360.455 l 9,6,-1
 227.666 360.665 l 1,1,-1
EndSplineSet
EndChar

StartChar: period
Encoding: 46 46 17
Width: 614
GlyphClass: 2
Flags: W
LayerCount: 2
Fore
SplineSet
545 90.5 m 155,-1,1
 502.5 90.5 502.5 90.5 502.5 49 c 27,2,3
 502.5 8 502.5 8 544 8 c 27,4,5
 587.5 8 587.5 8 587.5 50.5 c 27,6,0
 587.5 90.5 587.5 90.5 545 90.5 c 155,-1,1
EndSplineSet
EndChar

StartChar: slash
Encoding: 47 47 18
Width: 614
GlyphClass: 2
Flags: W
LayerCount: 2
Fore
SplineSet
494 648 m 2,0,-1
 159 -65 l 2,1,2
 150 -83 150 -83 136 -83 c 0,3,4
 128 -83 128 -83 122 -77 c 128,-1,5
 116 -71 116 -71 116 -63 c 0,6,7
 116 -59 116 -59 121 -47 c 2,8,-1
 456 666 l 2,9,10
 465 684 465 684 478 684 c 0,11,12
 486 684 486 684 492.5 678 c 128,-1,13
 499 672 499 672 499 665 c 0,14,15
 499 658 499 658 494 648 c 2,0,-1
EndSplineSet
EndChar

StartChar: zero
Encoding: 48 48 19
Width: 614
GlyphClass: 2
Flags: W
LayerCount: 2
Fore
SplineSet
441.001 279.669 m 5,0,-1
 404.5 93.166 l 5,1,-1
401.166 5.49805 m 6,2,3
 435.245 5.42282 435.245 5.42282 445.162 36.5 c 21,4,-1
 397 87.665 l 5,5,-1
 182 87.3252 l 5,6,-1
 120.166 40.498 l 5,7,8
 120.553 6.1175 120.553 6.1175 174.666 5.99805 c 6,9,-1
 401.166 5.49805 l 6,2,3
525 274 m 22,10,11
 531.461 309.929 531.461 309.929 486.123 321.124 c 20,12,-1
 441.001 279.669 l 5,13,-1
 404.5 93.166 l 5,14,-1
 451.666 43.998 l 5,15,16
 485.183 52.5662 485.183 52.5662 489.666 77.498 c 6,17,-1
 525 274 l 22,10,11
124 284 m 22,18,19
 129.234 312.958 129.234 312.958 176.458 318.455 c 20,20,-1
 209.045 280.549 l 5,21,-1
 176.666 93.998 l 5,22,-1
 115.666 48.498 l 5,23,24
 82.9907 57.0973 82.9907 57.0973 90.0449 96.1279 c 6,25,-1
 124 284 l 22,18,19
263.5 641.5 m 6,26,27
 229.421 641.575 229.421 641.575 219.504 610.498 c 21,28,-1
 267.666 559.333 l 5,29,-1
 482.666 559.673 l 5,30,-1
 544.5 606.5 l 5,31,32
 544.113 640.881 544.113 640.881 490 641 c 6,33,-1
 263.5 641.5 l 6,26,27
139 375 m 22,34,35
 131.41 333.995 131.41 333.995 179.333 325.332 c 20,36,-1
 223.666 366.668 l 5,37,-1
 260.166 553.832 l 5,38,-1
 213 603 l 5,39,40
 179.621 594.467 179.621 594.467 175 569.5 c 6,41,-1
 139 375 l 22,34,35
543 365 m 22,42,43
 537.389 332.02 537.389 332.02 488.998 328.001 c 20,44,-1
 455.622 365.788 l 5,45,-1
 488 553 l 5,46,-1
 549 598.5 l 5,47,48
 581.279 590.005 581.279 590.005 574.621 550.87 c 6,49,-1
 543 365 l 22,42,43
EndSplineSet
EndChar

StartChar: one
Encoding: 49 49 20
Width: 614
GlyphClass: 2
Flags: W
LayerCount: 2
Fore
SplineSet
441.001 279.669 m 5,0,-1
 404.5 93.166 l 5,1,-1
525 274 m 22,2,3
 531.461 309.929 531.461 309.929 486.123 321.124 c 20,4,-1
 441.001 279.669 l 5,5,-1
 404.5 93.166 l 5,6,-1
 451.666 43.998 l 5,7,8
 485.183 52.5662 485.183 52.5662 489.666 77.498 c 6,9,-1
 525 274 l 22,2,3
543 365 m 22,10,11
 537.389 332.02 537.389 332.02 488.998 328.001 c 20,12,-1
 455.622 365.788 l 5,13,-1
 488 553 l 5,14,-1
 549 598.5 l 5,15,16
 581.279 590.005 581.279 590.005 574.621 550.87 c 6,17,-1
 543 365 l 22,10,11
EndSplineSet
EndChar

StartChar: two
Encoding: 50 50 21
Width: 614
GlyphClass: 2
Flags: W
LayerCount: 2
Fore
SplineSet
401.166 5.49805 m 6,0,1
 435.245 5.42282 435.245 5.42282 445.162 36.5 c 21,2,-1
 397 87.665 l 5,3,-1
 182 87.3252 l 5,4,-1
 120.166 40.498 l 5,5,6
 120.553 6.1175 120.553 6.1175 174.666 5.99805 c 6,7,-1
 401.166 5.49805 l 6,0,1
124 284 m 22,8,9
 129.234 312.958 129.234 312.958 176.458 318.455 c 20,10,-1
 209.045 280.549 l 5,11,-1
 176.666 93.998 l 5,12,-1
 115.666 48.498 l 5,13,14
 82.9907 57.0973 82.9907 57.0973 90.0449 96.1279 c 6,15,-1
 124 284 l 22,8,9
227.666 360.665 m 5,16,-1
 188 322 l 21,17,-1
 215.048 286.548 l 5,18,-1
 438.042 285.881 l 5,19,-1
 478 324 l 5,20,-1
 449.29 360.455 l 13,21,-1
 227.666 360.665 l 5,16,-1
263.5 641.5 m 6,22,23
 229.421 641.575 229.421 641.575 219.504 610.498 c 21,24,-1
 267.666 559.333 l 5,25,-1
 482.666 559.673 l 5,26,-1
 544.5 606.5 l 5,27,28
 544.113 640.881 544.113 640.881 490 641 c 6,29,-1
 263.5 641.5 l 6,22,23
543 365 m 22,30,31
 537.389 332.02 537.389 332.02 488.998 328.001 c 20,32,-1
 455.622 365.788 l 5,33,-1
 488 553 l 5,34,-1
 549 598.5 l 5,35,36
 581.279 590.005 581.279 590.005 574.621 550.87 c 6,37,-1
 543 365 l 22,30,31
EndSplineSet
EndChar

StartChar: three
Encoding: 51 51 22
Width: 614
GlyphClass: 2
Flags: W
LayerCount: 2
Fore
SplineSet
441.001 279.669 m 5,0,-1
 404.5 93.166 l 5,1,-1
401.166 5.49805 m 6,2,3
 435.245 5.42282 435.245 5.42282 445.162 36.5 c 21,4,-1
 397 87.665 l 5,5,-1
 182 87.3252 l 5,6,-1
 120.166 40.498 l 5,7,8
 120.553 6.1175 120.553 6.1175 174.666 5.99805 c 6,9,-1
 401.166 5.49805 l 6,2,3
525 274 m 22,10,11
 531.461 309.929 531.461 309.929 486.123 321.124 c 20,12,-1
 441.001 279.669 l 5,13,-1
 404.5 93.166 l 5,14,-1
 451.666 43.998 l 5,15,16
 485.183 52.5662 485.183 52.5662 489.666 77.498 c 6,17,-1
 525 274 l 22,10,11
227.666 360.665 m 5,18,-1
 188 322 l 21,19,-1
 215.048 286.548 l 5,20,-1
 438.042 285.881 l 5,21,-1
 478 324 l 5,22,-1
 449.29 360.455 l 13,23,-1
 227.666 360.665 l 5,18,-1
263.5 641.5 m 6,24,25
 229.421 641.575 229.421 641.575 219.504 610.498 c 21,26,-1
 267.666 559.333 l 5,27,-1
 482.666 559.673 l 5,28,-1
 544.5 606.5 l 5,29,30
 544.113 640.881 544.113 640.881 490 641 c 6,31,-1
 263.5 641.5 l 6,24,25
543 365 m 22,32,33
 537.389 332.02 537.389 332.02 488.998 328.001 c 20,34,-1
 455.622 365.788 l 5,35,-1
 488 553 l 5,36,-1
 549 598.5 l 5,37,38
 581.279 590.005 581.279 590.005 574.621 550.87 c 6,39,-1
 543 365 l 22,32,33
EndSplineSet
EndChar

StartChar: four
Encoding: 52 52 23
Width: 614
GlyphClass: 2
Flags: W
LayerCount: 2
Fore
SplineSet
441.001 279.669 m 5,0,-1
 404.5 93.166 l 5,1,-1
525 274 m 22,2,3
 531.461 309.929 531.461 309.929 486.123 321.124 c 20,4,-1
 441.001 279.669 l 5,5,-1
 404.5 93.166 l 5,6,-1
 451.666 43.998 l 5,7,8
 485.183 52.5662 485.183 52.5662 489.666 77.498 c 6,9,-1
 525 274 l 22,2,3
227.666 360.665 m 5,10,-1
 188 322 l 21,11,-1
 215.048 286.548 l 5,12,-1
 438.042 285.881 l 5,13,-1
 478 324 l 5,14,-1
 449.29 360.455 l 13,15,-1
 227.666 360.665 l 5,10,-1
139 375 m 22,16,17
 131.41 333.995 131.41 333.995 179.333 325.332 c 20,18,-1
 223.666 366.668 l 5,19,-1
 260.166 553.832 l 5,20,-1
 213 603 l 5,21,22
 179.621 594.467 179.621 594.467 175 569.5 c 6,23,-1
 139 375 l 22,16,17
543 365 m 22,24,25
 537.389 332.02 537.389 332.02 488.998 328.001 c 20,26,-1
 455.622 365.788 l 5,27,-1
 488 553 l 5,28,-1
 549 598.5 l 5,29,30
 581.279 590.005 581.279 590.005 574.621 550.87 c 6,31,-1
 543 365 l 22,24,25
EndSplineSet
EndChar

StartChar: five
Encoding: 53 53 24
Width: 614
GlyphClass: 2
Flags: W
LayerCount: 2
Fore
SplineSet
441.001 279.669 m 5,0,-1
 404.5 93.166 l 5,1,-1
401.166 5.49805 m 6,2,3
 435.245 5.42282 435.245 5.42282 445.162 36.5 c 21,4,-1
 397 87.665 l 5,5,-1
 182 87.3252 l 5,6,-1
 120.166 40.498 l 5,7,8
 120.553 6.1175 120.553 6.1175 174.666 5.99805 c 6,9,-1
 401.166 5.49805 l 6,2,3
525 274 m 22,10,11
 531.461 309.929 531.461 309.929 486.123 321.124 c 20,12,-1
 441.001 279.669 l 5,13,-1
 404.5 93.166 l 5,14,-1
 451.666 43.998 l 5,15,16
 485.183 52.5662 485.183 52.5662 489.666 77.498 c 6,17,-1
 525 274 l 22,10,11
227.666 360.665 m 5,18,-1
 188 322 l 21,19,-1
 215.048 286.548 l 5,20,-1
 438.042 285.881 l 5,21,-1
 478 324 l 5,22,-1
 449.29 360.455 l 13,23,-1
 227.666 360.665 l 5,18,-1
263.5 641.5 m 6,24,25
 229.421 641.575 229.421 641.575 219.504 610.498 c 21,26,-1
 267.666 559.333 l 5,27,-1
 482.666 559.673 l 5,28,-1
 544.5 606.5 l 5,29,30
 544.113 640.881 544.113 640.881 490 641 c 6,31,-1
 263.5 641.5 l 6,24,25
139 375 m 22,32,33
 131.41 333.995 131.41 333.995 179.333 325.332 c 20,34,-1
 223.666 366.668 l 5,35,-1
 260.166 553.832 l 5,36,-1
 213 603 l 5,37,38
 179.621 594.467 179.621 594.467 175 569.5 c 6,39,-1
 139 375 l 22,32,33
EndSplineSet
EndChar

StartChar: six
Encoding: 54 54 25
Width: 614
GlyphClass: 2
Flags: W
LayerCount: 2
Fore
SplineSet
441.001 279.669 m 5,0,-1
 404.5 93.166 l 5,1,-1
401.166 5.49805 m 6,2,3
 435.245 5.42282 435.245 5.42282 445.162 36.5 c 21,4,-1
 397 87.665 l 5,5,-1
 182 87.3252 l 5,6,-1
 120.166 40.498 l 5,7,8
 120.553 6.1175 120.553 6.1175 174.666 5.99805 c 6,9,-1
 401.166 5.49805 l 6,2,3
525 274 m 22,10,11
 531.461 309.929 531.461 309.929 486.123 321.124 c 20,12,-1
 441.001 279.669 l 5,13,-1
 404.5 93.166 l 5,14,-1
 451.666 43.998 l 5,15,16
 485.183 52.5662 485.183 52.5662 489.666 77.498 c 6,17,-1
 525 274 l 22,10,11
124 284 m 22,18,19
 129.234 312.958 129.234 312.958 176.458 318.455 c 20,20,-1
 209.045 280.549 l 5,21,-1
 176.666 93.998 l 5,22,-1
 115.666 48.498 l 5,23,24
 82.9907 57.0973 82.9907 57.0973 90.0449 96.1279 c 6,25,-1
 124 284 l 22,18,19
227.666 360.665 m 5,26,-1
 188 322 l 21,27,-1
 215.048 286.548 l 5,28,-1
 438.042 285.881 l 5,29,-1
 478 324 l 5,30,-1
 449.29 360.455 l 13,31,-1
 227.666 360.665 l 5,26,-1
263.5 641.5 m 6,32,33
 229.421 641.575 229.421 641.575 219.504 610.498 c 21,34,-1
 267.666 559.333 l 5,35,-1
 482.666 559.673 l 5,36,-1
 544.5 606.5 l 5,37,38
 544.113 640.881 544.113 640.881 490 641 c 6,39,-1
 263.5 641.5 l 6,32,33
139 375 m 22,40,41
 131.41 333.995 131.41 333.995 179.333 325.332 c 20,42,-1
 223.666 366.668 l 5,43,-1
 260.166 553.832 l 5,44,-1
 213 603 l 5,45,46
 179.621 594.467 179.621 594.467 175 569.5 c 6,47,-1
 139 375 l 22,40,41
EndSplineSet
EndChar

StartChar: seven
Encoding: 55 55 26
Width: 614
GlyphClass: 2
Flags: W
LayerCount: 2
Fore
SplineSet
441.001 279.669 m 5,0,-1
 404.5 93.166 l 5,1,-1
525 274 m 22,2,3
 531.461 309.929 531.461 309.929 486.123 321.124 c 20,4,-1
 441.001 279.669 l 5,5,-1
 404.5 93.166 l 5,6,-1
 451.666 43.998 l 5,7,8
 485.183 52.5662 485.183 52.5662 489.666 77.498 c 6,9,-1
 525 274 l 22,2,3
263.5 641.5 m 6,10,11
 229.421 641.575 229.421 641.575 219.504 610.498 c 21,12,-1
 267.666 559.333 l 5,13,-1
 482.666 559.673 l 5,14,-1
 544.5 606.5 l 5,15,16
 544.113 640.881 544.113 640.881 490 641 c 6,17,-1
 263.5 641.5 l 6,10,11
543 365 m 22,18,19
 537.389 332.02 537.389 332.02 488.998 328.001 c 20,20,-1
 455.622 365.788 l 5,21,-1
 488 553 l 5,22,-1
 549 598.5 l 5,23,24
 581.279 590.005 581.279 590.005 574.621 550.87 c 6,25,-1
 543 365 l 22,18,19
EndSplineSet
EndChar

StartChar: eight
Encoding: 56 56 27
Width: 614
GlyphClass: 2
Flags: W
LayerCount: 2
Fore
SplineSet
441.001 279.669 m 5,0,-1
 404.5 93.166 l 5,1,-1
401.166 5.49805 m 6,2,3
 435.245 5.42282 435.245 5.42282 445.162 36.5 c 21,4,-1
 397 87.665 l 5,5,-1
 182 87.3252 l 5,6,-1
 120.166 40.498 l 5,7,8
 120.553 6.1175 120.553 6.1175 174.666 5.99805 c 6,9,-1
 401.166 5.49805 l 6,2,3
525 274 m 22,10,11
 531.461 309.929 531.461 309.929 486.123 321.124 c 20,12,-1
 441.001 279.669 l 5,13,-1
 404.5 93.166 l 5,14,-1
 451.666 43.998 l 5,15,16
 485.183 52.5662 485.183 52.5662 489.666 77.498 c 6,17,-1
 525 274 l 22,10,11
124 284 m 22,18,19
 129.234 312.958 129.234 312.958 176.458 318.455 c 20,20,-1
 209.045 280.549 l 5,21,-1
 176.666 93.998 l 5,22,-1
 115.666 48.498 l 5,23,24
 82.9907 57.0973 82.9907 57.0973 90.0449 96.1279 c 6,25,-1
 124 284 l 22,18,19
227.666 360.665 m 5,26,-1
 188 322 l 21,27,-1
 215.048 286.548 l 5,28,-1
 438.042 285.881 l 5,29,-1
 478 324 l 5,30,-1
 449.29 360.455 l 13,31,-1
 227.666 360.665 l 5,26,-1
263.5 641.5 m 6,32,33
 229.421 641.575 229.421 641.575 219.504 610.498 c 21,34,-1
 267.666 559.333 l 5,35,-1
 482.666 559.673 l 5,36,-1
 544.5 606.5 l 5,37,38
 544.113 640.881 544.113 640.881 490 641 c 6,39,-1
 263.5 641.5 l 6,32,33
139 375 m 22,40,41
 131.41 333.995 131.41 333.995 179.333 325.332 c 20,42,-1
 223.666 366.668 l 5,43,-1
 260.166 553.832 l 5,44,-1
 213 603 l 5,45,46
 179.621 594.467 179.621 594.467 175 569.5 c 6,47,-1
 139 375 l 22,40,41
543 365 m 22,48,49
 537.389 332.02 537.389 332.02 488.998 328.001 c 20,50,-1
 455.622 365.788 l 5,51,-1
 488 553 l 5,52,-1
 549 598.5 l 5,53,54
 581.279 590.005 581.279 590.005 574.621 550.87 c 6,55,-1
 543 365 l 22,48,49
EndSplineSet
EndChar

StartChar: nine
Encoding: 57 57 28
Width: 614
GlyphClass: 2
Flags: W
LayerCount: 2
Fore
SplineSet
441.001 279.669 m 5,0,-1
 404.5 93.166 l 5,1,-1
401.166 5.49805 m 6,2,3
 435.245 5.42282 435.245 5.42282 445.162 36.5 c 21,4,-1
 397 87.665 l 5,5,-1
 182 87.3252 l 5,6,-1
 120.166 40.498 l 5,7,8
 120.553 6.1175 120.553 6.1175 174.666 5.99805 c 6,9,-1
 401.166 5.49805 l 6,2,3
525 274 m 22,10,11
 531.461 309.929 531.461 309.929 486.123 321.124 c 20,12,-1
 441.001 279.669 l 5,13,-1
 404.5 93.166 l 5,14,-1
 451.666 43.998 l 5,15,16
 485.183 52.5662 485.183 52.5662 489.666 77.498 c 6,17,-1
 525 274 l 22,10,11
227.666 360.665 m 5,18,-1
 188 322 l 21,19,-1
 215.048 286.548 l 5,20,-1
 438.042 285.881 l 5,21,-1
 478 324 l 5,22,-1
 449.29 360.455 l 13,23,-1
 227.666 360.665 l 5,18,-1
263.5 641.5 m 6,24,25
 229.421 641.575 229.421 641.575 219.504 610.498 c 21,26,-1
 267.666 559.333 l 5,27,-1
 482.666 559.673 l 5,28,-1
 544.5 606.5 l 5,29,30
 544.113 640.881 544.113 640.881 490 641 c 6,31,-1
 263.5 641.5 l 6,24,25
139 375 m 22,32,33
 131.41 333.995 131.41 333.995 179.333 325.332 c 20,34,-1
 223.666 366.668 l 5,35,-1
 260.166 553.832 l 5,36,-1
 213 603 l 5,37,38
 179.621 594.467 179.621 594.467 175 569.5 c 6,39,-1
 139 375 l 22,32,33
543 365 m 22,40,41
 537.389 332.02 537.389 332.02 488.998 328.001 c 20,42,-1
 455.622 365.788 l 5,43,-1
 488 553 l 5,44,-1
 549 598.5 l 5,45,46
 581.279 590.005 581.279 590.005 574.621 550.87 c 6,47,-1
 543 365 l 22,40,41
EndSplineSet
EndChar

StartChar: colon
Encoding: 58 58 29
Width: 614
GlyphClass: 2
Flags: W
LayerCount: 2
Fore
SplineSet
61.5 315.5 m 155,-1,1
 19 315.5 19 315.5 19 274 c 27,2,3
 19 233 19 233 60.5 233 c 27,4,5
 104 233 104 233 104 275.5 c 27,6,0
 104 315.5 104 315.5 61.5 315.5 c 155,-1,1
62 426.5 m 155,-1,8
 19.5 426.5 19.5 426.5 19.5 385 c 27,9,10
 19.5 344 19.5 344 61 344 c 27,11,12
 104.5 344 104.5 344 104.5 386.5 c 27,13,7
 104.5 426.5 104.5 426.5 62 426.5 c 155,-1,8
EndSplineSet
EndChar

StartChar: semicolon
Encoding: 59 59 30
Width: 614
GlyphClass: 2
Flags: W
LayerCount: 2
Fore
SplineSet
216 148 m 1,0,-1
 352 148 l 1,1,-1
 204 -123 l 2,2,3
 191 -149 191 -149 172 -148 c 0,4,5
 160 -148 160 -148 151 -139.5 c 128,-1,6
 142 -131 142 -131 142 -119 c 0,7,8
 142 -116 142 -116 144 -108 c 2,9,-1
 216 148 l 1,0,-1
278 427 m 2,10,-1
 288 427 l 2,11,12
 318 427 318 427 338 407.5 c 128,-1,13
 358 388 358 388 358 359.5 c 128,-1,14
 358 331 358 331 337.5 311.5 c 128,-1,15
 317 292 317 292 288 292 c 2,16,-1
 278 292 l 2,17,18
 248 292 248 292 227.5 311.5 c 128,-1,19
 207 331 207 331 207 359.5 c 128,-1,20
 207 388 207 388 227.5 407.5 c 128,-1,21
 248 427 248 427 278 427 c 2,10,-1
EndSplineSet
EndChar

StartChar: less
Encoding: 60 60 31
Width: 614
GlyphClass: 2
Flags: W
LayerCount: 2
Fore
SplineSet
535 69 m 0,0,1
 535 62 535 62 528.5 53.5 c 128,-1,2
 522 45 522 45 514 45 c 0,3,4
 509 45 509 45 501 50 c 2,5,-1
 74 288 l 1,6,-1
 502 525 l 2,7,8
 510 530 510 530 514 530 c 0,9,10
 521 530 521 530 528 523 c 128,-1,11
 535 516 535 516 535 508 c 0,12,13
 535 497 535 497 521 489 c 2,14,-1
 158 288 l 1,15,-1
 521 86 l 2,16,17
 535 79 535 79 535 69 c 0,0,1
EndSplineSet
EndChar

StartChar: equal
Encoding: 61 61 32
Width: 614
GlyphClass: 2
Flags: W
LayerCount: 2
Fore
SplineSet
535 342 m 2,0,-1
 80 342 l 2,1,2
 52 342 52 342 52 364 c 0,3,4
 52 384 52 384 80 384 c 2,5,-1
 535 384 l 2,6,7
 563 384 563 384 562 364 c 0,8,9
 563 342 563 342 535 342 c 2,0,-1
535 195 m 2,10,-1
 80 195 l 2,11,12
 52 195 52 195 52 216 c 0,13,14
 52 236 52 236 80 237 c 2,15,-1
 535 237 l 2,16,17
 563 237 563 237 562 216 c 0,18,19
 563 195 563 195 535 195 c 2,10,-1
EndSplineSet
EndChar

StartChar: greater
Encoding: 62 62 33
Width: 614
GlyphClass: 2
Flags: W
LayerCount: 2
Fore
SplineSet
80 508 m 0,0,1
 80 513 80 513 85.5 521.5 c 128,-1,2
 91 530 91 530 100 530 c 0,3,4
 105 530 105 530 114 525 c 2,5,-1
 541 288 l 1,6,-1
 113 50 l 2,7,8
 105 45 105 45 100 45 c 0,9,10
 92 45 92 45 86 52 c 128,-1,11
 80 59 80 59 80 69 c 0,12,13
 80 79 80 79 93 86 c 2,14,-1
 457 288 l 1,15,-1
 93 489 l 2,16,17
 80 497 80 497 80 508 c 0,0,1
EndSplineSet
EndChar

StartChar: question
Encoding: 63 63 34
Width: 614
GlyphClass: 2
Flags: W
LayerCount: 2
Fore
SplineSet
137 542 m 1,0,1
 147 545 147 545 179 559.5 c 128,-1,2
 211 574 211 574 243 582.5 c 128,-1,3
 275 591 275 591 316 591 c 0,4,5
 398 591 398 591 448.5 547.5 c 128,-1,6
 499 504 499 504 499 433 c 0,7,8
 499 376 499 376 462.5 337 c 128,-1,9
 426 298 426 298 330 253 c 1,10,-1
 330 211 l 2,11,12
 330 183 330 183 309 183 c 0,13,14
 287 183 287 183 288 211 c 2,15,-1
 288 281 l 1,16,17
 378 319 378 319 417.5 354 c 128,-1,18
 457 389 457 389 457 433 c 0,19,20
 457 484 457 484 416 516.5 c 128,-1,21
 375 549 375 549 311 549 c 0,22,23
 249 549 249 549 179 514 c 1,24,-1
 179 472 l 2,25,26
 179 444 179 444 159 444 c 0,27,28
 137 444 137 444 137 472 c 2,29,-1
 137 542 l 1,0,1
294 87 m 2,30,-1
 322 87 l 2,31,32
 349 87 349 87 364.5 72.5 c 128,-1,33
 380 58 380 58 380 35.5 c 128,-1,34
 380 13 380 13 363.5 -1 c 128,-1,35
 347 -15 347 -15 322 -15 c 2,36,-1
 294 -15 l 2,37,38
 267 -15 267 -15 251.5 -1 c 128,-1,39
 236 13 236 13 236 35.5 c 128,-1,40
 236 58 236 58 251.5 72.5 c 128,-1,41
 267 87 267 87 294 87 c 2,30,-1
EndSplineSet
EndChar

StartChar: at
Encoding: 64 64 35
Width: 614
GlyphClass: 2
Flags: HW
LayerCount: 2
Fore
SplineSet
556 95 m 31,0,1
 502 95 502 95 502 46 c 31,2,3
 502 -6 502 -6 555 -6 c 31,4,5
 605 -6 605 -6 605 48 c 31,6,7
 605 95 605 95 556 95 c 31,0,1
441.001 279.669 m 1,8,-1
 404.5 93.166 l 1,9,-1
401.166 5.49805 m 2,10,11
 435.245 5.42282 435.245 5.42282 445.162 36.5 c 17,12,-1
 397 87.665 l 1,13,-1
 182 87.3252 l 1,14,-1
 120.166 40.498 l 1,15,16
 120.553 6.1175 120.553 6.1175 174.666 5.99805 c 2,17,-1
 401.166 5.49805 l 2,10,11
525 274 m 18,18,19
 531.461 309.929 531.461 309.929 486.123 321.124 c 16,20,-1
 441.001 279.669 l 1,21,-1
 404.5 93.166 l 1,22,-1
 451.666 43.998 l 1,23,24
 485.183 52.5662 485.183 52.5662 489.666 77.498 c 2,25,-1
 525 274 l 18,18,19
124 284 m 18,26,27
 129.234 312.958 129.234 312.958 176.458 318.455 c 16,28,-1
 209.045 280.549 l 1,29,-1
 176.666 93.998 l 1,30,-1
 115.666 48.498 l 1,31,32
 82.9907 57.0973 82.9907 57.0973 90.0449 96.1279 c 2,33,-1
 124 284 l 18,26,27
263.5 641.5 m 2,34,35
 229.421 641.575 229.421 641.575 219.504 610.498 c 17,36,-1
 267.666 559.333 l 1,37,-1
 482.666 559.673 l 1,38,-1
 544.5 606.5 l 1,39,40
 544.113 640.881 544.113 640.881 490 641 c 2,41,-1
 263.5 641.5 l 2,34,35
139 375 m 18,42,43
 131.41 333.995 131.41 333.995 179.333 325.332 c 16,44,-1
 223.666 366.668 l 1,45,-1
 260.166 553.832 l 1,46,-1
 213 603 l 1,47,48
 179.621 594.467 179.621 594.467 175 569.5 c 2,49,-1
 139 375 l 18,42,43
543 365 m 18,50,51
 537.389 332.02 537.389 332.02 488.998 328.001 c 16,52,-1
 455.622 365.788 l 1,53,-1
 488 553 l 1,54,-1
 549 598.5 l 1,55,56
 581.279 590.005 581.279 590.005 574.621 550.87 c 2,57,-1
 543 365 l 18,50,51
EndSplineSet
EndChar

StartChar: A
Encoding: 65 65 36
Width: 614
GlyphClass: 2
Flags: HW
LayerCount: 2
Fore
SplineSet
556 95 m 31,0,1
 502 95 502 95 502 46 c 31,2,3
 502 -6 502 -6 555 -6 c 31,4,5
 605 -6 605 -6 605 48 c 31,6,7
 605 95 605 95 556 95 c 31,0,1
441.001 279.669 m 1,8,-1
 404.5 93.166 l 1,9,-1
525 274 m 18,10,11
 531.461 309.929 531.461 309.929 486.123 321.124 c 16,12,-1
 441.001 279.669 l 1,13,-1
 404.5 93.166 l 1,14,-1
 451.666 43.998 l 1,15,16
 485.183 52.5662 485.183 52.5662 489.666 77.498 c 2,17,-1
 525 274 l 18,10,11
543 365 m 18,18,19
 537.389 332.02 537.389 332.02 488.998 328.001 c 16,20,-1
 455.622 365.788 l 1,21,-1
 488 553 l 1,22,-1
 549 598.5 l 1,23,24
 581.279 590.005 581.279 590.005 574.621 550.87 c 2,25,-1
 543 365 l 18,18,19
EndSplineSet
EndChar

StartChar: B
Encoding: 66 66 37
Width: 614
GlyphClass: 2
Flags: HW
LayerCount: 2
Fore
SplineSet
556 95 m 31,0,1
 502 95 502 95 502 46 c 31,2,3
 502 -6 502 -6 555 -6 c 31,4,5
 605 -6 605 -6 605 48 c 31,6,7
 605 95 605 95 556 95 c 31,0,1
401.166 5.49805 m 2,8,9
 435.245 5.42282 435.245 5.42282 445.162 36.5 c 17,10,-1
 397 87.665 l 1,11,-1
 182 87.3252 l 1,12,-1
 120.166 40.498 l 1,13,14
 120.553 6.1175 120.553 6.1175 174.666 5.99805 c 2,15,-1
 401.166 5.49805 l 2,8,9
124 284 m 18,16,17
 129.234 312.958 129.234 312.958 176.458 318.455 c 16,18,-1
 209.045 280.549 l 1,19,-1
 176.666 93.998 l 1,20,-1
 115.666 48.498 l 1,21,22
 82.9907 57.0973 82.9907 57.0973 90.0449 96.1279 c 2,23,-1
 124 284 l 18,16,17
227.666 360.665 m 1,24,-1
 188 322 l 17,25,-1
 215.048 286.548 l 1,26,-1
 438.042 285.881 l 1,27,-1
 478 324 l 1,28,-1
 449.29 360.455 l 9,29,-1
 227.666 360.665 l 1,24,-1
263.5 641.5 m 2,30,31
 229.421 641.575 229.421 641.575 219.504 610.498 c 17,32,-1
 267.666 559.333 l 1,33,-1
 482.666 559.673 l 1,34,-1
 544.5 606.5 l 1,35,36
 544.113 640.881 544.113 640.881 490 641 c 2,37,-1
 263.5 641.5 l 2,30,31
543 365 m 18,38,39
 537.389 332.02 537.389 332.02 488.998 328.001 c 16,40,-1
 455.622 365.788 l 1,41,-1
 488 553 l 1,42,-1
 549 598.5 l 1,43,44
 581.279 590.005 581.279 590.005 574.621 550.87 c 2,45,-1
 543 365 l 18,38,39
EndSplineSet
EndChar

StartChar: C
Encoding: 67 67 38
Width: 614
GlyphClass: 2
Flags: HW
LayerCount: 2
Fore
SplineSet
556 95 m 31,0,1
 502 95 502 95 502 46 c 31,2,3
 502 -6 502 -6 555 -6 c 31,4,5
 605 -6 605 -6 605 48 c 31,6,7
 605 95 605 95 556 95 c 31,0,1
441.001 279.669 m 1,8,-1
 404.5 93.166 l 1,9,-1
401.166 5.49805 m 2,10,11
 435.245 5.42282 435.245 5.42282 445.162 36.5 c 17,12,-1
 397 87.665 l 1,13,-1
 182 87.3252 l 1,14,-1
 120.166 40.498 l 1,15,16
 120.553 6.1175 120.553 6.1175 174.666 5.99805 c 2,17,-1
 401.166 5.49805 l 2,10,11
525 274 m 18,18,19
 531.461 309.929 531.461 309.929 486.123 321.124 c 16,20,-1
 441.001 279.669 l 1,21,-1
 404.5 93.166 l 1,22,-1
 451.666 43.998 l 1,23,24
 485.183 52.5662 485.183 52.5662 489.666 77.498 c 2,25,-1
 525 274 l 18,18,19
227.666 360.665 m 1,26,-1
 188 322 l 17,27,-1
 215.048 286.548 l 1,28,-1
 438.042 285.881 l 1,29,-1
 478 324 l 1,30,-1
 449.29 360.455 l 9,31,-1
 227.666 360.665 l 1,26,-1
263.5 641.5 m 2,32,33
 229.421 641.575 229.421 641.575 219.504 610.498 c 17,34,-1
 267.666 559.333 l 1,35,-1
 482.666 559.673 l 1,36,-1
 544.5 606.5 l 1,37,38
 544.113 640.881 544.113 640.881 490 641 c 2,39,-1
 263.5 641.5 l 2,32,33
543 365 m 18,40,41
 537.389 332.02 537.389 332.02 488.998 328.001 c 16,42,-1
 455.622 365.788 l 1,43,-1
 488 553 l 1,44,-1
 549 598.5 l 1,45,46
 581.279 590.005 581.279 590.005 574.621 550.87 c 2,47,-1
 543 365 l 18,40,41
EndSplineSet
EndChar

StartChar: D
Encoding: 68 68 39
Width: 614
GlyphClass: 2
Flags: HW
LayerCount: 2
Fore
SplineSet
556 95 m 31,0,1
 502 95 502 95 502 46 c 31,2,3
 502 -6 502 -6 555 -6 c 31,4,5
 605 -6 605 -6 605 48 c 31,6,7
 605 95 605 95 556 95 c 31,0,1
441.001 279.669 m 1,8,-1
 404.5 93.166 l 1,9,-1
525 274 m 18,10,11
 531.461 309.929 531.461 309.929 486.123 321.124 c 16,12,-1
 441.001 279.669 l 1,13,-1
 404.5 93.166 l 1,14,-1
 451.666 43.998 l 1,15,16
 485.183 52.5662 485.183 52.5662 489.666 77.498 c 2,17,-1
 525 274 l 18,10,11
227.666 360.665 m 1,18,-1
 188 322 l 17,19,-1
 215.048 286.548 l 1,20,-1
 438.042 285.881 l 1,21,-1
 478 324 l 1,22,-1
 449.29 360.455 l 9,23,-1
 227.666 360.665 l 1,18,-1
139 375 m 18,24,25
 131.41 333.995 131.41 333.995 179.333 325.332 c 16,26,-1
 223.666 366.668 l 1,27,-1
 260.166 553.832 l 1,28,-1
 213 603 l 1,29,30
 179.621 594.467 179.621 594.467 175 569.5 c 2,31,-1
 139 375 l 18,24,25
543 365 m 18,32,33
 537.389 332.02 537.389 332.02 488.998 328.001 c 16,34,-1
 455.622 365.788 l 1,35,-1
 488 553 l 1,36,-1
 549 598.5 l 1,37,38
 581.279 590.005 581.279 590.005 574.621 550.87 c 2,39,-1
 543 365 l 18,32,33
EndSplineSet
EndChar

StartChar: E
Encoding: 69 69 40
Width: 614
GlyphClass: 2
Flags: HW
LayerCount: 2
Fore
SplineSet
556 95 m 31,0,1
 502 95 502 95 502 46 c 31,2,3
 502 -6 502 -6 555 -6 c 31,4,5
 605 -6 605 -6 605 48 c 31,6,7
 605 95 605 95 556 95 c 31,0,1
441.001 279.669 m 1,8,-1
 404.5 93.166 l 1,9,-1
401.166 5.49805 m 2,10,11
 435.245 5.42282 435.245 5.42282 445.162 36.5 c 17,12,-1
 397 87.665 l 1,13,-1
 182 87.3252 l 1,14,-1
 120.166 40.498 l 1,15,16
 120.553 6.1175 120.553 6.1175 174.666 5.99805 c 2,17,-1
 401.166 5.49805 l 2,10,11
525 274 m 18,18,19
 531.461 309.929 531.461 309.929 486.123 321.124 c 16,20,-1
 441.001 279.669 l 1,21,-1
 404.5 93.166 l 1,22,-1
 451.666 43.998 l 1,23,24
 485.183 52.5662 485.183 52.5662 489.666 77.498 c 2,25,-1
 525 274 l 18,18,19
227.666 360.665 m 1,26,-1
 188 322 l 17,27,-1
 215.048 286.548 l 1,28,-1
 438.042 285.881 l 1,29,-1
 478 324 l 1,30,-1
 449.29 360.455 l 9,31,-1
 227.666 360.665 l 1,26,-1
263.5 641.5 m 2,32,33
 229.421 641.575 229.421 641.575 219.504 610.498 c 17,34,-1
 267.666 559.333 l 1,35,-1
 482.666 559.673 l 1,36,-1
 544.5 606.5 l 1,37,38
 544.113 640.881 544.113 640.881 490 641 c 2,39,-1
 263.5 641.5 l 2,32,33
139 375 m 18,40,41
 131.41 333.995 131.41 333.995 179.333 325.332 c 16,42,-1
 223.666 366.668 l 1,43,-1
 260.166 553.832 l 1,44,-1
 213 603 l 1,45,46
 179.621 594.467 179.621 594.467 175 569.5 c 2,47,-1
 139 375 l 18,40,41
EndSplineSet
EndChar

StartChar: F
Encoding: 70 70 41
Width: 614
GlyphClass: 2
Flags: HW
LayerCount: 2
Fore
SplineSet
556 95 m 31,0,1
 502 95 502 95 502 46 c 31,2,3
 502 -6 502 -6 555 -6 c 31,4,5
 605 -6 605 -6 605 48 c 31,6,7
 605 95 605 95 556 95 c 31,0,1
441.001 279.669 m 1,8,-1
 404.5 93.166 l 1,9,-1
401.166 5.49805 m 2,10,11
 435.245 5.42282 435.245 5.42282 445.162 36.5 c 17,12,-1
 397 87.665 l 1,13,-1
 182 87.3252 l 1,14,-1
 120.166 40.498 l 1,15,16
 120.553 6.1175 120.553 6.1175 174.666 5.99805 c 2,17,-1
 401.166 5.49805 l 2,10,11
525 274 m 18,18,19
 531.461 309.929 531.461 309.929 486.123 321.124 c 16,20,-1
 441.001 279.669 l 1,21,-1
 404.5 93.166 l 1,22,-1
 451.666 43.998 l 1,23,24
 485.183 52.5662 485.183 52.5662 489.666 77.498 c 2,25,-1
 525 274 l 18,18,19
124 284 m 18,26,27
 129.234 312.958 129.234 312.958 176.458 318.455 c 16,28,-1
 209.045 280.549 l 1,29,-1
 176.666 93.998 l 1,30,-1
 115.666 48.498 l 1,31,32
 82.9907 57.0973 82.9907 57.0973 90.0449 96.1279 c 2,33,-1
 124 284 l 18,26,27
227.666 360.665 m 1,34,-1
 188 322 l 17,35,-1
 215.048 286.548 l 1,36,-1
 438.042 285.881 l 1,37,-1
 478 324 l 1,38,-1
 449.29 360.455 l 9,39,-1
 227.666 360.665 l 1,34,-1
263.5 641.5 m 2,40,41
 229.421 641.575 229.421 641.575 219.504 610.498 c 17,42,-1
 267.666 559.333 l 1,43,-1
 482.666 559.673 l 1,44,-1
 544.5 606.5 l 1,45,46
 544.113 640.881 544.113 640.881 490 641 c 2,47,-1
 263.5 641.5 l 2,40,41
139 375 m 18,48,49
 131.41 333.995 131.41 333.995 179.333 325.332 c 16,50,-1
 223.666 366.668 l 1,51,-1
 260.166 553.832 l 1,52,-1
 213 603 l 1,53,54
 179.621 594.467 179.621 594.467 175 569.5 c 2,55,-1
 139 375 l 18,48,49
EndSplineSet
EndChar

StartChar: G
Encoding: 71 71 42
Width: 614
GlyphClass: 2
Flags: HW
LayerCount: 2
Fore
SplineSet
556 95 m 31,0,1
 502 95 502 95 502 46 c 31,2,3
 502 -6 502 -6 555 -6 c 31,4,5
 605 -6 605 -6 605 48 c 31,6,7
 605 95 605 95 556 95 c 31,0,1
441.001 279.669 m 1,8,-1
 404.5 93.166 l 1,9,-1
525 274 m 18,10,11
 531.461 309.929 531.461 309.929 486.123 321.124 c 16,12,-1
 441.001 279.669 l 1,13,-1
 404.5 93.166 l 1,14,-1
 451.666 43.998 l 1,15,16
 485.183 52.5662 485.183 52.5662 489.666 77.498 c 2,17,-1
 525 274 l 18,10,11
263.5 641.5 m 2,18,19
 229.421 641.575 229.421 641.575 219.504 610.498 c 17,20,-1
 267.666 559.333 l 1,21,-1
 482.666 559.673 l 1,22,-1
 544.5 606.5 l 1,23,24
 544.113 640.881 544.113 640.881 490 641 c 2,25,-1
 263.5 641.5 l 2,18,19
543 365 m 18,26,27
 537.389 332.02 537.389 332.02 488.998 328.001 c 16,28,-1
 455.622 365.788 l 1,29,-1
 488 553 l 1,30,-1
 549 598.5 l 1,31,32
 581.279 590.005 581.279 590.005 574.621 550.87 c 2,33,-1
 543 365 l 18,26,27
EndSplineSet
EndChar

StartChar: H
Encoding: 72 72 43
Width: 614
GlyphClass: 2
Flags: HW
LayerCount: 2
Fore
SplineSet
556 95 m 31,0,1
 502 95 502 95 502 46 c 31,2,3
 502 -6 502 -6 555 -6 c 31,4,5
 605 -6 605 -6 605 48 c 31,6,7
 605 95 605 95 556 95 c 31,0,1
441.001 279.669 m 1,8,-1
 404.5 93.166 l 1,9,-1
401.166 5.49805 m 2,10,11
 435.245 5.42282 435.245 5.42282 445.162 36.5 c 17,12,-1
 397 87.665 l 1,13,-1
 182 87.3252 l 1,14,-1
 120.166 40.498 l 1,15,16
 120.553 6.1175 120.553 6.1175 174.666 5.99805 c 2,17,-1
 401.166 5.49805 l 2,10,11
525 274 m 18,18,19
 531.461 309.929 531.461 309.929 486.123 321.124 c 16,20,-1
 441.001 279.669 l 1,21,-1
 404.5 93.166 l 1,22,-1
 451.666 43.998 l 1,23,24
 485.183 52.5662 485.183 52.5662 489.666 77.498 c 2,25,-1
 525 274 l 18,18,19
124 284 m 18,26,27
 129.234 312.958 129.234 312.958 176.458 318.455 c 16,28,-1
 209.045 280.549 l 1,29,-1
 176.666 93.998 l 1,30,-1
 115.666 48.498 l 1,31,32
 82.9907 57.0973 82.9907 57.0973 90.0449 96.1279 c 2,33,-1
 124 284 l 18,26,27
227.666 360.665 m 1,34,-1
 188 322 l 17,35,-1
 215.048 286.548 l 1,36,-1
 438.042 285.881 l 1,37,-1
 478 324 l 1,38,-1
 449.29 360.455 l 9,39,-1
 227.666 360.665 l 1,34,-1
263.5 641.5 m 2,40,41
 229.421 641.575 229.421 641.575 219.504 610.498 c 17,42,-1
 267.666 559.333 l 1,43,-1
 482.666 559.673 l 1,44,-1
 544.5 606.5 l 1,45,46
 544.113 640.881 544.113 640.881 490 641 c 2,47,-1
 263.5 641.5 l 2,40,41
139 375 m 18,48,49
 131.41 333.995 131.41 333.995 179.333 325.332 c 16,50,-1
 223.666 366.668 l 1,51,-1
 260.166 553.832 l 1,52,-1
 213 603 l 1,53,54
 179.621 594.467 179.621 594.467 175 569.5 c 2,55,-1
 139 375 l 18,48,49
543 365 m 18,56,57
 537.389 332.02 537.389 332.02 488.998 328.001 c 16,58,-1
 455.622 365.788 l 1,59,-1
 488 553 l 1,60,-1
 549 598.5 l 1,61,62
 581.279 590.005 581.279 590.005 574.621 550.87 c 2,63,-1
 543 365 l 18,56,57
EndSplineSet
EndChar

StartChar: I
Encoding: 73 73 44
Width: 614
GlyphClass: 2
Flags: HW
LayerCount: 2
Fore
SplineSet
556 95 m 31,0,1
 502 95 502 95 502 46 c 31,2,3
 502 -6 502 -6 555 -6 c 31,4,5
 605 -6 605 -6 605 48 c 31,6,7
 605 95 605 95 556 95 c 31,0,1
441.001 279.669 m 1,8,-1
 404.5 93.166 l 1,9,-1
401.166 5.49805 m 2,10,11
 435.245 5.42282 435.245 5.42282 445.162 36.5 c 17,12,-1
 397 87.665 l 1,13,-1
 182 87.3252 l 1,14,-1
 120.166 40.498 l 1,15,16
 120.553 6.1175 120.553 6.1175 174.666 5.99805 c 2,17,-1
 401.166 5.49805 l 2,10,11
525 274 m 18,18,19
 531.461 309.929 531.461 309.929 486.123 321.124 c 16,20,-1
 441.001 279.669 l 1,21,-1
 404.5 93.166 l 1,22,-1
 451.666 43.998 l 1,23,24
 485.183 52.5662 485.183 52.5662 489.666 77.498 c 2,25,-1
 525 274 l 18,18,19
227.666 360.665 m 1,26,-1
 188 322 l 17,27,-1
 215.048 286.548 l 1,28,-1
 438.042 285.881 l 1,29,-1
 478 324 l 1,30,-1
 449.29 360.455 l 9,31,-1
 227.666 360.665 l 1,26,-1
263.5 641.5 m 2,32,33
 229.421 641.575 229.421 641.575 219.504 610.498 c 17,34,-1
 267.666 559.333 l 1,35,-1
 482.666 559.673 l 1,36,-1
 544.5 606.5 l 1,37,38
 544.113 640.881 544.113 640.881 490 641 c 2,39,-1
 263.5 641.5 l 2,32,33
139 375 m 18,40,41
 131.41 333.995 131.41 333.995 179.333 325.332 c 16,42,-1
 223.666 366.668 l 1,43,-1
 260.166 553.832 l 1,44,-1
 213 603 l 1,45,46
 179.621 594.467 179.621 594.467 175 569.5 c 2,47,-1
 139 375 l 18,40,41
543 365 m 18,48,49
 537.389 332.02 537.389 332.02 488.998 328.001 c 16,50,-1
 455.622 365.788 l 1,51,-1
 488 553 l 1,52,-1
 549 598.5 l 1,53,54
 581.279 590.005 581.279 590.005 574.621 550.87 c 2,55,-1
 543 365 l 18,48,49
EndSplineSet
EndChar

StartChar: J
Encoding: 74 74 45
Width: 614
GlyphClass: 2
Flags: W
LayerCount: 2
Fore
SplineSet
471 535 m 1,0,-1
 471 169 l 2,1,2
 471 93 471 93 414 38.5 c 128,-1,3
 357 -16 357 -16 279 -16 c 0,4,5
 230 -16 230 -16 185.5 5 c 128,-1,6
 141 26 141 26 86 76 c 1,7,-1
 86 228 l 2,8,9
 86 256 86 256 108 256 c 0,10,11
 128 256 128 256 128 228 c 2,12,-1
 128 95 l 1,13,14
 205 25 205 25 280 26 c 0,15,16
 342 26 342 26 385.5 68 c 128,-1,17
 429 110 429 110 429 169 c 2,18,-1
 429 535 l 1,19,-1
 266 535 l 2,20,21
 238 535 238 535 239 556 c 0,22,23
 239 576 239 576 266 577 c 2,24,-1
 569 577 l 2,25,26
 597 577 597 577 597 556 c 0,27,28
 597 534 597 534 569 535 c 2,29,-1
 471 535 l 1,0,-1
EndSplineSet
EndChar

StartChar: K
Encoding: 75 75 46
Width: 614
GlyphClass: 2
Flags: W
LayerCount: 2
Fore
SplineSet
169 226 m 1,0,-1
 169 42 l 1,1,-1
 246 42 l 2,2,3
 274 42 274 42 273 22 c 0,4,5
 273 0 273 0 246 0 c 2,6,-1
 72 0 l 2,7,8
 44 0 44 0 44 22 c 0,9,10
 44 42 44 42 72 42 c 2,11,-1
 127 42 l 1,12,-1
 127 535 l 1,13,-1
 72 535 l 2,14,15
 44 535 44 535 44 556 c 0,16,17
 44 576 44 576 72 577 c 2,18,-1
 246 577 l 2,19,20
 274 577 274 577 273 556 c 0,21,22
 273 534 273 534 246 535 c 2,23,-1
 169 535 l 1,24,-1
 169 280 l 1,25,-1
 456 535 l 1,26,-1
 410 535 l 2,27,28
 381 535 381 535 381 556 c 0,29,30
 381 576 381 576 410 577 c 2,31,-1
 530 577 l 2,32,33
 559 577 559 577 559 556 c 0,34,35
 559 534 559 534 530 535 c 2,36,-1
 514 535 l 1,37,-1
 287 332 l 1,38,39
 362 301 362 301 402.5 245 c 128,-1,40
 443 189 443 189 501 42 c 1,41,-1
 558 42 l 2,42,43
 586 42 586 42 586 22 c 0,44,45
 586 0 586 0 558 0 c 2,46,-1
 469 0 l 1,47,48
 413 156 413 156 369 217 c 128,-1,49
 325 278 325 278 252 301 c 1,50,-1
 169 226 l 1,0,-1
EndSplineSet
EndChar

StartChar: L
Encoding: 76 76 47
Width: 614
GlyphClass: 2
Flags: W
LayerCount: 2
Fore
SplineSet
232 535 m 1,0,-1
 232 42 l 1,1,-1
 512 42 l 1,2,-1
 512 206 l 2,3,4
 512 234 512 234 534 233 c 0,5,6
 554 233 554 233 554 206 c 2,7,-1
 554 0 l 1,8,-1
 92 0 l 2,9,10
 64 0 64 0 65 22 c 0,11,12
 65 42 65 42 92 42 c 2,13,-1
 190 42 l 1,14,-1
 190 535 l 1,15,-1
 92 535 l 2,16,17
 64 535 64 535 65 556 c 0,18,19
 65 576 65 576 92 577 c 2,20,-1
 331 577 l 2,21,22
 359 577 359 577 358 556 c 0,23,24
 358 534 358 534 331 535 c 2,25,-1
 232 535 l 1,0,-1
EndSplineSet
EndChar

StartChar: M
Encoding: 77 77 48
Width: 614
GlyphClass: 2
Flags: HW
LayerCount: 2
Fore
SplineSet
334 173 m 1,0,-1
 287 173 l 1,1,-1
 124 535 l 1,2,-1
 116 535 l 1,3,-1
 116 42 l 1,4,-1
 191 42 l 2,5,6
 220 42 220 42 220 22 c 0,7,8
 220 0 220 0 191 0 c 2,9,-1
 39 0 l 2,10,11
 11 0 11 0 11 22 c 0,12,13
 11 42 11 42 39 42 c 2,14,-1
 74 42 l 1,15,-1
 74 535 l 1,16,-1
 48 535 l 2,17,18
 20 535 20 535 20 556 c 0,19,20
 20 576 20 576 48 577 c 2,21,-1
 150 577 l 1,22,-1
 310 220 l 1,23,-1
 468 577 l 5,24,-1
 570 577 l 2,25,26
 598 577 598 577 598 556 c 0,27,28
 598 534 598 534 570 535 c 2,29,-1
 545 535 l 1,30,-1
 545 42 l 1,31,-1
 580 42 l 2,32,33
 608 42 608 42 607 22 c 0,34,35
 607 0 607 0 580 0 c 2,36,-1
 427 0 l 2,37,38
 399 0 399 0 399 22 c 0,39,40
 399 42 399 42 427 42 c 2,41,-1
 503 42 l 1,42,-1
 503 535 l 1,43,-1
 495 535 l 1,44,-1
 334 173 l 1,0,-1
EndSplineSet
EndChar

StartChar: N
Encoding: 78 78 49
Width: 614
GlyphClass: 2
Flags: W
LayerCount: 2
Fore
SplineSet
513 0 m 1,0,-1
 460 0 l 1,1,-1
 147 516 l 1,2,-1
 147 42 l 1,3,-1
 224 42 l 2,4,5
 252 42 252 42 252 22 c 0,6,7
 252 0 252 0 224 0 c 2,8,-1
 71 0 l 2,9,10
 43 0 43 0 43 22 c 0,11,12
 43 42 43 42 71 42 c 2,13,-1
 105 42 l 1,14,-1
 105 535 l 1,15,-1
 50 535 l 2,16,17
 22 535 22 535 23 556 c 0,18,19
 23 576 23 576 50 577 c 2,20,-1
 159 577 l 1,21,-1
 471 60 l 1,22,-1
 471 535 l 1,23,-1
 395 535 l 2,24,25
 366 535 366 535 367 556 c 0,26,27
 367 576 367 576 395 577 c 2,28,-1
 548 577 l 2,29,30
 576 577 576 577 575 556 c 0,31,32
 575 534 575 534 548 535 c 2,33,-1
 513 535 l 1,34,-1
 513 0 l 1,0,-1
EndSplineSet
EndChar

StartChar: O
Encoding: 79 79 50
Width: 614
GlyphClass: 2
Flags: W
AnchorPoint: "Anchor-2" 309 578 basechar 0
LayerCount: 2
Fore
SplineSet
307 590 m 0,0,1
 416 590 416 590 489 501.5 c 128,-1,2
 562 413 562 413 562 283 c 0,3,4
 562 159 562 159 487.5 71.5 c 128,-1,5
 413 -16 413 -16 307 -16 c 0,6,7
 201 -16 201 -16 126.5 72 c 128,-1,8
 52 160 52 160 52 287 c 128,-1,9
 52 414 52 414 126.5 502 c 128,-1,10
 201 590 201 590 307 590 c 0,0,1
307 548 m 0,11,12
 219 548 219 548 156.5 471 c 128,-1,13
 94 394 94 394 94 286.5 c 128,-1,14
 94 179 94 179 156.5 102.5 c 128,-1,15
 219 26 219 26 307 26 c 0,16,17
 394 26 394 26 457 102 c 128,-1,18
 520 178 520 178 520 284 c 0,19,20
 520 395 520 395 458 471.5 c 128,-1,21
 396 548 396 548 307 548 c 0,11,12
EndSplineSet
EndChar

StartChar: P
Encoding: 80 80 51
Width: 614
GlyphClass: 2
Flags: W
LayerCount: 2
Fore
SplineSet
61.5 315.5 m 155,-1,1
 19 315.5 19 315.5 19 274 c 27,2,3
 19 233 19 233 60.5 233 c 27,4,5
 104 233 104 233 104 275.5 c 27,6,0
 104 315.5 104 315.5 61.5 315.5 c 155,-1,1
62 426.5 m 155,-1,8
 19.5 426.5 19.5 426.5 19.5 385 c 27,9,10
 19.5 344 19.5 344 61 344 c 27,11,12
 104.5 344 104.5 344 104.5 386.5 c 27,13,7
 104.5 426.5 104.5 426.5 62 426.5 c 155,-1,8
441.001 279.669 m 1,14,-1
 404.5 93.166 l 1,15,-1
401.166 5.49805 m 2,16,17
 435.245 5.42282 435.245 5.42282 445.162 36.5 c 17,18,-1
 397 87.665 l 1,19,-1
 182 87.3252 l 1,20,-1
 120.166 40.498 l 1,21,22
 120.553 6.1175 120.553 6.1175 174.666 5.99805 c 2,23,-1
 401.166 5.49805 l 2,16,17
525 274 m 18,24,25
 531.461 309.929 531.461 309.929 486.123 321.124 c 16,26,-1
 441.001 279.669 l 1,27,-1
 404.5 93.166 l 1,28,-1
 451.666 43.998 l 1,29,30
 485.183 52.5662 485.183 52.5662 489.666 77.498 c 2,31,-1
 525 274 l 18,24,25
124 284 m 18,32,33
 129.234 312.958 129.234 312.958 176.458 318.455 c 16,34,-1
 209.045 280.549 l 1,35,-1
 176.666 93.998 l 1,36,-1
 115.666 48.498 l 1,37,38
 82.9907 57.0973 82.9907 57.0973 90.0449 96.1279 c 2,39,-1
 124 284 l 18,32,33
263.5 641.5 m 2,40,41
 229.421 641.575 229.421 641.575 219.504 610.498 c 17,42,-1
 267.666 559.333 l 1,43,-1
 482.666 559.673 l 1,44,-1
 544.5 606.5 l 1,45,46
 544.113 640.881 544.113 640.881 490 641 c 2,47,-1
 263.5 641.5 l 2,40,41
139 375 m 18,48,49
 131.41 333.995 131.41 333.995 179.333 325.332 c 16,50,-1
 223.666 366.668 l 1,51,-1
 260.166 553.832 l 1,52,-1
 213 603 l 1,53,54
 179.621 594.467 179.621 594.467 175 569.5 c 2,55,-1
 139 375 l 18,48,49
543 365 m 18,56,57
 537.389 332.02 537.389 332.02 488.998 328.001 c 16,58,-1
 455.622 365.788 l 1,59,-1
 488 553 l 1,60,-1
 549 598.5 l 1,61,62
 581.279 590.005 581.279 590.005 574.621 550.87 c 2,63,-1
 543 365 l 18,56,57
EndSplineSet
EndChar

StartChar: Q
Encoding: 81 81 52
Width: 614
GlyphClass: 2
Flags: W
LayerCount: 2
Fore
SplineSet
61.5 315.5 m 155,-1,1
 19 315.5 19 315.5 19 274 c 27,2,3
 19 233 19 233 60.5 233 c 27,4,5
 104 233 104 233 104 275.5 c 27,6,0
 104 315.5 104 315.5 61.5 315.5 c 155,-1,1
62 426.5 m 155,-1,8
 19.5 426.5 19.5 426.5 19.5 385 c 27,9,10
 19.5 344 19.5 344 61 344 c 27,11,12
 104.5 344 104.5 344 104.5 386.5 c 27,13,7
 104.5 426.5 104.5 426.5 62 426.5 c 155,-1,8
441.001 279.669 m 1,14,-1
 404.5 93.166 l 1,15,-1
525 274 m 18,16,17
 531.461 309.929 531.461 309.929 486.123 321.124 c 16,18,-1
 441.001 279.669 l 1,19,-1
 404.5 93.166 l 1,20,-1
 451.666 43.998 l 1,21,22
 485.183 52.5662 485.183 52.5662 489.666 77.498 c 2,23,-1
 525 274 l 18,16,17
543 365 m 18,24,25
 537.389 332.02 537.389 332.02 488.998 328.001 c 16,26,-1
 455.622 365.788 l 1,27,-1
 488 553 l 1,28,-1
 549 598.5 l 1,29,30
 581.279 590.005 581.279 590.005 574.621 550.87 c 2,31,-1
 543 365 l 18,24,25
EndSplineSet
EndChar

StartChar: R
Encoding: 82 82 53
Width: 614
GlyphClass: 2
Flags: W
LayerCount: 2
Fore
SplineSet
61.5 315.5 m 155,-1,1
 19 315.5 19 315.5 19 274 c 27,2,3
 19 233 19 233 60.5 233 c 27,4,5
 104 233 104 233 104 275.5 c 27,6,0
 104 315.5 104 315.5 61.5 315.5 c 155,-1,1
62 426.5 m 155,-1,8
 19.5 426.5 19.5 426.5 19.5 385 c 27,9,10
 19.5 344 19.5 344 61 344 c 27,11,12
 104.5 344 104.5 344 104.5 386.5 c 27,13,7
 104.5 426.5 104.5 426.5 62 426.5 c 155,-1,8
401.166 5.49805 m 2,14,15
 435.245 5.42282 435.245 5.42282 445.162 36.5 c 17,16,-1
 397 87.665 l 1,17,-1
 182 87.3252 l 1,18,-1
 120.166 40.498 l 1,19,20
 120.553 6.1175 120.553 6.1175 174.666 5.99805 c 2,21,-1
 401.166 5.49805 l 2,14,15
124 284 m 18,22,23
 129.234 312.958 129.234 312.958 176.458 318.455 c 16,24,-1
 209.045 280.549 l 1,25,-1
 176.666 93.998 l 1,26,-1
 115.666 48.498 l 1,27,28
 82.9907 57.0973 82.9907 57.0973 90.0449 96.1279 c 2,29,-1
 124 284 l 18,22,23
227.666 360.665 m 1,30,-1
 188 322 l 17,31,-1
 215.048 286.548 l 1,32,-1
 438.042 285.881 l 1,33,-1
 478 324 l 1,34,-1
 449.29 360.455 l 9,35,-1
 227.666 360.665 l 1,30,-1
263.5 641.5 m 2,36,37
 229.421 641.575 229.421 641.575 219.504 610.498 c 17,38,-1
 267.666 559.333 l 1,39,-1
 482.666 559.673 l 1,40,-1
 544.5 606.5 l 1,41,42
 544.113 640.881 544.113 640.881 490 641 c 2,43,-1
 263.5 641.5 l 2,36,37
543 365 m 18,44,45
 537.389 332.02 537.389 332.02 488.998 328.001 c 16,46,-1
 455.622 365.788 l 1,47,-1
 488 553 l 1,48,-1
 549 598.5 l 1,49,50
 581.279 590.005 581.279 590.005 574.621 550.87 c 2,51,-1
 543 365 l 18,44,45
EndSplineSet
EndChar

StartChar: S
Encoding: 83 83 54
Width: 614
GlyphClass: 2
Flags: W
LayerCount: 2
Fore
SplineSet
61.5 315.5 m 155,-1,1
 19 315.5 19 315.5 19 274 c 27,2,3
 19 233 19 233 60.5 233 c 27,4,5
 104 233 104 233 104 275.5 c 27,6,0
 104 315.5 104 315.5 61.5 315.5 c 155,-1,1
62 426.5 m 155,-1,8
 19.5 426.5 19.5 426.5 19.5 385 c 27,9,10
 19.5 344 19.5 344 61 344 c 27,11,12
 104.5 344 104.5 344 104.5 386.5 c 27,13,7
 104.5 426.5 104.5 426.5 62 426.5 c 155,-1,8
441.001 279.669 m 1,14,-1
 404.5 93.166 l 1,15,-1
401.166 5.49805 m 2,16,17
 435.245 5.42282 435.245 5.42282 445.162 36.5 c 17,18,-1
 397 87.665 l 1,19,-1
 182 87.3252 l 1,20,-1
 120.166 40.498 l 1,21,22
 120.553 6.1175 120.553 6.1175 174.666 5.99805 c 2,23,-1
 401.166 5.49805 l 2,16,17
525 274 m 18,24,25
 531.461 309.929 531.461 309.929 486.123 321.124 c 16,26,-1
 441.001 279.669 l 1,27,-1
 404.5 93.166 l 1,28,-1
 451.666 43.998 l 1,29,30
 485.183 52.5662 485.183 52.5662 489.666 77.498 c 2,31,-1
 525 274 l 18,24,25
227.666 360.665 m 1,32,-1
 188 322 l 17,33,-1
 215.048 286.548 l 1,34,-1
 438.042 285.881 l 1,35,-1
 478 324 l 1,36,-1
 449.29 360.455 l 9,37,-1
 227.666 360.665 l 1,32,-1
263.5 641.5 m 2,38,39
 229.421 641.575 229.421 641.575 219.504 610.498 c 17,40,-1
 267.666 559.333 l 1,41,-1
 482.666 559.673 l 1,42,-1
 544.5 606.5 l 1,43,44
 544.113 640.881 544.113 640.881 490 641 c 2,45,-1
 263.5 641.5 l 2,38,39
543 365 m 18,46,47
 537.389 332.02 537.389 332.02 488.998 328.001 c 16,48,-1
 455.622 365.788 l 1,49,-1
 488 553 l 1,50,-1
 549 598.5 l 1,51,52
 581.279 590.005 581.279 590.005 574.621 550.87 c 2,53,-1
 543 365 l 18,46,47
EndSplineSet
EndChar

StartChar: T
Encoding: 84 84 55
Width: 614
GlyphClass: 2
Flags: W
LayerCount: 2
Fore
SplineSet
61.5 315.5 m 155,-1,1
 19 315.5 19 315.5 19 274 c 27,2,3
 19 233 19 233 60.5 233 c 27,4,5
 104 233 104 233 104 275.5 c 27,6,0
 104 315.5 104 315.5 61.5 315.5 c 155,-1,1
62 426.5 m 155,-1,8
 19.5 426.5 19.5 426.5 19.5 385 c 27,9,10
 19.5 344 19.5 344 61 344 c 27,11,12
 104.5 344 104.5 344 104.5 386.5 c 27,13,7
 104.5 426.5 104.5 426.5 62 426.5 c 155,-1,8
441.001 279.669 m 1,14,-1
 404.5 93.166 l 1,15,-1
525 274 m 18,16,17
 531.461 309.929 531.461 309.929 486.123 321.124 c 16,18,-1
 441.001 279.669 l 1,19,-1
 404.5 93.166 l 1,20,-1
 451.666 43.998 l 1,21,22
 485.183 52.5662 485.183 52.5662 489.666 77.498 c 2,23,-1
 525 274 l 18,16,17
227.666 360.665 m 1,24,-1
 188 322 l 17,25,-1
 215.048 286.548 l 1,26,-1
 438.042 285.881 l 1,27,-1
 478 324 l 1,28,-1
 449.29 360.455 l 9,29,-1
 227.666 360.665 l 1,24,-1
139 375 m 18,30,31
 131.41 333.995 131.41 333.995 179.333 325.332 c 16,32,-1
 223.666 366.668 l 1,33,-1
 260.166 553.832 l 1,34,-1
 213 603 l 1,35,36
 179.621 594.467 179.621 594.467 175 569.5 c 2,37,-1
 139 375 l 18,30,31
543 365 m 18,38,39
 537.389 332.02 537.389 332.02 488.998 328.001 c 16,40,-1
 455.622 365.788 l 1,41,-1
 488 553 l 1,42,-1
 549 598.5 l 1,43,44
 581.279 590.005 581.279 590.005 574.621 550.87 c 2,45,-1
 543 365 l 18,38,39
EndSplineSet
EndChar

StartChar: U
Encoding: 85 85 56
Width: 614
GlyphClass: 2
Flags: W
LayerCount: 2
Fore
SplineSet
61.5 315.5 m 155,-1,1
 19 315.5 19 315.5 19 274 c 27,2,3
 19 233 19 233 60.5 233 c 27,4,5
 104 233 104 233 104 275.5 c 27,6,0
 104 315.5 104 315.5 61.5 315.5 c 155,-1,1
62 426.5 m 155,-1,8
 19.5 426.5 19.5 426.5 19.5 385 c 27,9,10
 19.5 344 19.5 344 61 344 c 27,11,12
 104.5 344 104.5 344 104.5 386.5 c 27,13,7
 104.5 426.5 104.5 426.5 62 426.5 c 155,-1,8
441.001 279.669 m 1,14,-1
 404.5 93.166 l 1,15,-1
401.166 5.49805 m 2,16,17
 435.245 5.42282 435.245 5.42282 445.162 36.5 c 17,18,-1
 397 87.665 l 1,19,-1
 182 87.3252 l 1,20,-1
 120.166 40.498 l 1,21,22
 120.553 6.1175 120.553 6.1175 174.666 5.99805 c 2,23,-1
 401.166 5.49805 l 2,16,17
525 274 m 18,24,25
 531.461 309.929 531.461 309.929 486.123 321.124 c 16,26,-1
 441.001 279.669 l 1,27,-1
 404.5 93.166 l 1,28,-1
 451.666 43.998 l 1,29,30
 485.183 52.5662 485.183 52.5662 489.666 77.498 c 2,31,-1
 525 274 l 18,24,25
227.666 360.665 m 1,32,-1
 188 322 l 17,33,-1
 215.048 286.548 l 1,34,-1
 438.042 285.881 l 1,35,-1
 478 324 l 1,36,-1
 449.29 360.455 l 9,37,-1
 227.666 360.665 l 1,32,-1
263.5 641.5 m 2,38,39
 229.421 641.575 229.421 641.575 219.504 610.498 c 17,40,-1
 267.666 559.333 l 1,41,-1
 482.666 559.673 l 1,42,-1
 544.5 606.5 l 1,43,44
 544.113 640.881 544.113 640.881 490 641 c 2,45,-1
 263.5 641.5 l 2,38,39
139 375 m 18,46,47
 131.41 333.995 131.41 333.995 179.333 325.332 c 16,48,-1
 223.666 366.668 l 1,49,-1
 260.166 553.832 l 1,50,-1
 213 603 l 1,51,52
 179.621 594.467 179.621 594.467 175 569.5 c 2,53,-1
 139 375 l 18,46,47
EndSplineSet
EndChar

StartChar: V
Encoding: 86 86 57
Width: 614
GlyphClass: 2
Flags: W
LayerCount: 2
Fore
SplineSet
61.5 315.5 m 155,-1,1
 19 315.5 19 315.5 19 274 c 27,2,3
 19 233 19 233 60.5 233 c 27,4,5
 104 233 104 233 104 275.5 c 27,6,0
 104 315.5 104 315.5 61.5 315.5 c 155,-1,1
62 426.5 m 155,-1,8
 19.5 426.5 19.5 426.5 19.5 385 c 27,9,10
 19.5 344 19.5 344 61 344 c 27,11,12
 104.5 344 104.5 344 104.5 386.5 c 27,13,7
 104.5 426.5 104.5 426.5 62 426.5 c 155,-1,8
441.001 279.669 m 1,14,-1
 404.5 93.166 l 1,15,-1
401.166 5.49805 m 2,16,17
 435.245 5.42282 435.245 5.42282 445.162 36.5 c 17,18,-1
 397 87.665 l 1,19,-1
 182 87.3252 l 1,20,-1
 120.166 40.498 l 1,21,22
 120.553 6.1175 120.553 6.1175 174.666 5.99805 c 2,23,-1
 401.166 5.49805 l 2,16,17
525 274 m 18,24,25
 531.461 309.929 531.461 309.929 486.123 321.124 c 16,26,-1
 441.001 279.669 l 1,27,-1
 404.5 93.166 l 1,28,-1
 451.666 43.998 l 1,29,30
 485.183 52.5662 485.183 52.5662 489.666 77.498 c 2,31,-1
 525 274 l 18,24,25
124 284 m 18,32,33
 129.234 312.958 129.234 312.958 176.458 318.455 c 16,34,-1
 209.045 280.549 l 1,35,-1
 176.666 93.998 l 1,36,-1
 115.666 48.498 l 1,37,38
 82.9907 57.0973 82.9907 57.0973 90.0449 96.1279 c 2,39,-1
 124 284 l 18,32,33
227.666 360.665 m 1,40,-1
 188 322 l 17,41,-1
 215.048 286.548 l 1,42,-1
 438.042 285.881 l 1,43,-1
 478 324 l 1,44,-1
 449.29 360.455 l 9,45,-1
 227.666 360.665 l 1,40,-1
263.5 641.5 m 2,46,47
 229.421 641.575 229.421 641.575 219.504 610.498 c 17,48,-1
 267.666 559.333 l 1,49,-1
 482.666 559.673 l 1,50,-1
 544.5 606.5 l 1,51,52
 544.113 640.881 544.113 640.881 490 641 c 2,53,-1
 263.5 641.5 l 2,46,47
139 375 m 18,54,55
 131.41 333.995 131.41 333.995 179.333 325.332 c 16,56,-1
 223.666 366.668 l 1,57,-1
 260.166 553.832 l 1,58,-1
 213 603 l 1,59,60
 179.621 594.467 179.621 594.467 175 569.5 c 2,61,-1
 139 375 l 18,54,55
EndSplineSet
EndChar

StartChar: W
Encoding: 87 87 58
Width: 614
GlyphClass: 2
Flags: W
LayerCount: 2
Fore
SplineSet
61.5 315.5 m 155,-1,1
 19 315.5 19 315.5 19 274 c 27,2,3
 19 233 19 233 60.5 233 c 27,4,5
 104 233 104 233 104 275.5 c 27,6,0
 104 315.5 104 315.5 61.5 315.5 c 155,-1,1
62 426.5 m 155,-1,8
 19.5 426.5 19.5 426.5 19.5 385 c 27,9,10
 19.5 344 19.5 344 61 344 c 27,11,12
 104.5 344 104.5 344 104.5 386.5 c 27,13,7
 104.5 426.5 104.5 426.5 62 426.5 c 155,-1,8
441.001 279.669 m 1,14,-1
 404.5 93.166 l 1,15,-1
525 274 m 18,16,17
 531.461 309.929 531.461 309.929 486.123 321.124 c 16,18,-1
 441.001 279.669 l 1,19,-1
 404.5 93.166 l 1,20,-1
 451.666 43.998 l 1,21,22
 485.183 52.5662 485.183 52.5662 489.666 77.498 c 2,23,-1
 525 274 l 18,16,17
263.5 641.5 m 2,24,25
 229.421 641.575 229.421 641.575 219.504 610.498 c 17,26,-1
 267.666 559.333 l 1,27,-1
 482.666 559.673 l 1,28,-1
 544.5 606.5 l 1,29,30
 544.113 640.881 544.113 640.881 490 641 c 2,31,-1
 263.5 641.5 l 2,24,25
543 365 m 18,32,33
 537.389 332.02 537.389 332.02 488.998 328.001 c 16,34,-1
 455.622 365.788 l 1,35,-1
 488 553 l 1,36,-1
 549 598.5 l 1,37,38
 581.279 590.005 581.279 590.005 574.621 550.87 c 2,39,-1
 543 365 l 18,32,33
EndSplineSet
EndChar

StartChar: X
Encoding: 88 88 59
Width: 614
GlyphClass: 2
Flags: W
LayerCount: 2
Fore
SplineSet
61.5 315.5 m 155,-1,1
 19 315.5 19 315.5 19 274 c 27,2,3
 19 233 19 233 60.5 233 c 27,4,5
 104 233 104 233 104 275.5 c 27,6,0
 104 315.5 104 315.5 61.5 315.5 c 155,-1,1
62 426.5 m 155,-1,8
 19.5 426.5 19.5 426.5 19.5 385 c 27,9,10
 19.5 344 19.5 344 61 344 c 27,11,12
 104.5 344 104.5 344 104.5 386.5 c 27,13,7
 104.5 426.5 104.5 426.5 62 426.5 c 155,-1,8
441.001 279.669 m 1,14,-1
 404.5 93.166 l 1,15,-1
401.166 5.49805 m 2,16,17
 435.245 5.42282 435.245 5.42282 445.162 36.5 c 17,18,-1
 397 87.665 l 1,19,-1
 182 87.3252 l 1,20,-1
 120.166 40.498 l 1,21,22
 120.553 6.1175 120.553 6.1175 174.666 5.99805 c 2,23,-1
 401.166 5.49805 l 2,16,17
525 274 m 18,24,25
 531.461 309.929 531.461 309.929 486.123 321.124 c 16,26,-1
 441.001 279.669 l 1,27,-1
 404.5 93.166 l 1,28,-1
 451.666 43.998 l 1,29,30
 485.183 52.5662 485.183 52.5662 489.666 77.498 c 2,31,-1
 525 274 l 18,24,25
124 284 m 18,32,33
 129.234 312.958 129.234 312.958 176.458 318.455 c 16,34,-1
 209.045 280.549 l 1,35,-1
 176.666 93.998 l 1,36,-1
 115.666 48.498 l 1,37,38
 82.9907 57.0973 82.9907 57.0973 90.0449 96.1279 c 2,39,-1
 124 284 l 18,32,33
227.666 360.665 m 1,40,-1
 188 322 l 17,41,-1
 215.048 286.548 l 1,42,-1
 438.042 285.881 l 1,43,-1
 478 324 l 1,44,-1
 449.29 360.455 l 9,45,-1
 227.666 360.665 l 1,40,-1
263.5 641.5 m 2,46,47
 229.421 641.575 229.421 641.575 219.504 610.498 c 17,48,-1
 267.666 559.333 l 1,49,-1
 482.666 559.673 l 1,50,-1
 544.5 606.5 l 1,51,52
 544.113 640.881 544.113 640.881 490 641 c 2,53,-1
 263.5 641.5 l 2,46,47
139 375 m 18,54,55
 131.41 333.995 131.41 333.995 179.333 325.332 c 16,56,-1
 223.666 366.668 l 1,57,-1
 260.166 553.832 l 1,58,-1
 213 603 l 1,59,60
 179.621 594.467 179.621 594.467 175 569.5 c 2,61,-1
 139 375 l 18,54,55
543 365 m 18,62,63
 537.389 332.02 537.389 332.02 488.998 328.001 c 16,64,-1
 455.622 365.788 l 1,65,-1
 488 553 l 1,66,-1
 549 598.5 l 1,67,68
 581.279 590.005 581.279 590.005 574.621 550.87 c 2,69,-1
 543 365 l 18,62,63
EndSplineSet
EndChar

StartChar: Y
Encoding: 89 89 60
Width: 614
GlyphClass: 2
Flags: W
LayerCount: 2
Fore
SplineSet
61.5 315.5 m 155,-1,1
 19 315.5 19 315.5 19 274 c 27,2,3
 19 233 19 233 60.5 233 c 27,4,5
 104 233 104 233 104 275.5 c 27,6,0
 104 315.5 104 315.5 61.5 315.5 c 155,-1,1
62 426.5 m 155,-1,8
 19.5 426.5 19.5 426.5 19.5 385 c 27,9,10
 19.5 344 19.5 344 61 344 c 27,11,12
 104.5 344 104.5 344 104.5 386.5 c 27,13,7
 104.5 426.5 104.5 426.5 62 426.5 c 155,-1,8
441.001 279.669 m 1,14,-1
 404.5 93.166 l 1,15,-1
401.166 5.49805 m 2,16,17
 435.245 5.42282 435.245 5.42282 445.162 36.5 c 17,18,-1
 397 87.665 l 1,19,-1
 182 87.3252 l 1,20,-1
 120.166 40.498 l 1,21,22
 120.553 6.1175 120.553 6.1175 174.666 5.99805 c 2,23,-1
 401.166 5.49805 l 2,16,17
525 274 m 18,24,25
 531.461 309.929 531.461 309.929 486.123 321.124 c 16,26,-1
 441.001 279.669 l 1,27,-1
 404.5 93.166 l 1,28,-1
 451.666 43.998 l 1,29,30
 485.183 52.5662 485.183 52.5662 489.666 77.498 c 2,31,-1
 525 274 l 18,24,25
227.666 360.665 m 1,32,-1
 188 322 l 17,33,-1
 215.048 286.548 l 1,34,-1
 438.042 285.881 l 1,35,-1
 478 324 l 1,36,-1
 449.29 360.455 l 9,37,-1
 227.666 360.665 l 1,32,-1
263.5 641.5 m 2,38,39
 229.421 641.575 229.421 641.575 219.504 610.498 c 17,40,-1
 267.666 559.333 l 1,41,-1
 482.666 559.673 l 1,42,-1
 544.5 606.5 l 1,43,44
 544.113 640.881 544.113 640.881 490 641 c 2,45,-1
 263.5 641.5 l 2,38,39
139 375 m 18,46,47
 131.41 333.995 131.41 333.995 179.333 325.332 c 16,48,-1
 223.666 366.668 l 1,49,-1
 260.166 553.832 l 1,50,-1
 213 603 l 1,51,52
 179.621 594.467 179.621 594.467 175 569.5 c 2,53,-1
 139 375 l 18,46,47
543 365 m 18,54,55
 537.389 332.02 537.389 332.02 488.998 328.001 c 16,56,-1
 455.622 365.788 l 1,57,-1
 488 553 l 1,58,-1
 549 598.5 l 1,59,60
 581.279 590.005 581.279 590.005 574.621 550.87 c 2,61,-1
 543 365 l 18,54,55
EndSplineSet
EndChar

StartChar: Z
Encoding: 90 90 61
Width: 614
GlyphClass: 2
Flags: W
LayerCount: 2
Fore
SplineSet
509 0 m 1,0,-1
 105 0 l 1,1,-1
 105 60 l 1,2,-1
 441 531 l 1,3,-1
 441 535 l 1,4,-1
 166 535 l 1,5,-1
 166 414 l 2,6,7
 166 385 166 385 145 385 c 0,8,9
 123 385 123 385 124 414 c 2,10,-1
 124 577 l 1,11,-1
 481 577 l 1,12,-1
 481 517 l 1,13,-1
 145 46 l 1,14,-1
 145 42 l 1,15,-1
 467 42 l 1,16,-1
 467 186 l 2,17,18
 467 214 467 214 487 214 c 0,19,20
 509 214 509 214 509 186 c 2,21,-1
 509 0 l 1,0,-1
EndSplineSet
EndChar

StartChar: bracketleft
Encoding: 91 91 62
Width: 614
GlyphClass: 2
Flags: W
LayerCount: 2
Fore
SplineSet
329 577 m 1,0,-1
 329 -85 l 1,1,-1
 428 -85 l 2,2,3
 456 -85 456 -85 456 -105 c 0,4,5
 456 -127 456 -127 428 -127 c 2,6,-1
 287 -127 l 1,7,-1
 287 618 l 1,8,-1
 428 618 l 2,9,10
 456 618 456 618 456 598 c 0,11,12
 456 576 456 576 428 577 c 2,13,-1
 329 577 l 1,0,-1
EndSplineSet
EndChar

StartChar: backslash
Encoding: 92 92 63
Width: 614
GlyphClass: 2
Flags: W
LayerCount: 2
Fore
SplineSet
159 666 m 2,0,-1
 494 -47 l 2,1,2
 499 -56 499 -56 499 -63.5 c 128,-1,3
 499 -71 499 -71 492.5 -77 c 128,-1,4
 486 -83 486 -83 478 -83 c 0,5,6
 465 -83 465 -83 456 -65 c 2,7,-1
 121 648 l 2,8,9
 116 658 116 658 116 665 c 0,10,11
 116 672 116 672 122.5 678 c 128,-1,12
 129 684 129 684 137 684 c 0,13,14
 150 684 150 684 159 666 c 2,0,-1
EndSplineSet
EndChar

StartChar: bracketright
Encoding: 93 93 64
Width: 614
GlyphClass: 2
Flags: W
LayerCount: 2
Fore
SplineSet
286 -85 m 1,0,-1
 286 577 l 1,1,-1
 186 577 l 2,2,3
 158 577 158 577 159 597 c 0,4,5
 159 619 159 619 186 618 c 2,6,-1
 328 618 l 1,7,-1
 328 -127 l 1,8,-1
 186 -127 l 2,9,10
 158 -127 158 -127 159 -106 c 0,11,12
 159 -84 159 -84 186 -85 c 2,13,-1
 286 -85 l 1,0,-1
EndSplineSet
EndChar

StartChar: asciicircum
Encoding: 94 94 65
Width: 614
GlyphClass: 2
Flags: W
LayerCount: 2
Fore
SplineSet
307 630 m 1,0,-1
 489 401 l 2,1,2
 498 391 498 391 499 383 c 256,3,4
 499 375 499 375 492.5 368.5 c 128,-1,5
 486 362 486 362 478 362 c 0,6,7
 468 362 468 362 458 376 c 2,8,-1
 307 565 l 1,9,-1
 157 376 l 1,10,11
 148 363 148 363 136 362 c 0,12,13
 128 362 128 362 122 368.5 c 128,-1,14
 116 375 116 375 116 383 c 128,-1,15
 116 391 116 391 125 401 c 2,16,-1
 307 630 l 1,0,-1
EndSplineSet
EndChar

StartChar: underscore
Encoding: 95 95 66
Width: 614
GlyphClass: 2
Flags: W
LayerCount: 2
Fore
SplineSet
614 -77 m 1,0,-1
 614 -128 l 1,1,-1
 0 -128 l 1,2,-1
 0 -77 l 1,3,-1
 614 -77 l 1,0,-1
EndSplineSet
EndChar

StartChar: grave
Encoding: 96 96 67
Width: 614
GlyphClass: 2
Flags: HW
LayerCount: 2
Fore
SplineSet
556 95 m 31,0,1
 502 95 502 95 502 46 c 31,2,3
 502 -6 502 -6 555 -6 c 31,4,5
 605 -6 605 -6 605 48 c 31,6,7
 605 95 605 95 556 95 c 31,0,1
61.5 315.5 m 155,-1,9
 19 315.5 19 315.5 19 274 c 27,10,11
 19 233 19 233 60.5 233 c 27,12,13
 104 233 104 233 104 275.5 c 27,14,8
 104 315.5 104 315.5 61.5 315.5 c 155,-1,9
62 426.5 m 155,-1,16
 19.5 426.5 19.5 426.5 19.5 385 c 27,17,18
 19.5 344 19.5 344 61 344 c 27,19,20
 104.5 344 104.5 344 104.5 386.5 c 27,21,15
 104.5 426.5 104.5 426.5 62 426.5 c 155,-1,16
441.001 279.669 m 1,22,-1
 404.5 93.166 l 1,23,-1
401.166 5.49805 m 2,24,25
 435.245 5.42282 435.245 5.42282 445.162 36.5 c 17,26,-1
 397 87.665 l 1,27,-1
 182 87.3252 l 1,28,-1
 120.166 40.498 l 1,29,30
 120.553 6.1175 120.553 6.1175 174.666 5.99805 c 2,31,-1
 401.166 5.49805 l 2,24,25
525 274 m 18,32,33
 531.461 309.929 531.461 309.929 486.123 321.124 c 16,34,-1
 441.001 279.669 l 1,35,-1
 404.5 93.166 l 1,36,-1
 451.666 43.998 l 1,37,38
 485.183 52.5662 485.183 52.5662 489.666 77.498 c 2,39,-1
 525 274 l 18,32,33
124 284 m 18,40,41
 129.234 312.958 129.234 312.958 176.458 318.455 c 16,42,-1
 209.045 280.549 l 1,43,-1
 176.666 93.998 l 1,44,-1
 115.666 48.498 l 1,45,46
 82.9907 57.0973 82.9907 57.0973 90.0449 96.1279 c 2,47,-1
 124 284 l 18,40,41
263.5 641.5 m 2,48,49
 229.421 641.575 229.421 641.575 219.504 610.498 c 17,50,-1
 267.666 559.333 l 1,51,-1
 482.666 559.673 l 1,52,-1
 544.5 606.5 l 1,53,54
 544.113 640.881 544.113 640.881 490 641 c 2,55,-1
 263.5 641.5 l 2,48,49
139 375 m 18,56,57
 131.41 333.995 131.41 333.995 179.333 325.332 c 16,58,-1
 223.666 366.668 l 1,59,-1
 260.166 553.832 l 1,60,-1
 213 603 l 1,61,62
 179.621 594.467 179.621 594.467 175 569.5 c 2,63,-1
 139 375 l 18,56,57
543 365 m 18,64,65
 537.389 332.02 537.389 332.02 488.998 328.001 c 16,66,-1
 455.622 365.788 l 1,67,-1
 488 553 l 1,68,-1
 549 598.5 l 1,69,70
 581.279 590.005 581.279 590.005 574.621 550.87 c 2,71,-1
 543 365 l 18,64,65
EndSplineSet
EndChar

StartChar: a
Encoding: 97 97 68
Width: 614
GlyphClass: 2
Flags: HW
LayerCount: 2
Fore
SplineSet
556 95 m 31,0,1
 502 95 502 95 502 46 c 31,2,3
 502 -6 502 -6 555 -6 c 31,4,5
 605 -6 605 -6 605 48 c 31,6,7
 605 95 605 95 556 95 c 31,0,1
61.5 315.5 m 155,-1,9
 19 315.5 19 315.5 19 274 c 27,10,11
 19 233 19 233 60.5 233 c 27,12,13
 104 233 104 233 104 275.5 c 27,14,8
 104 315.5 104 315.5 61.5 315.5 c 155,-1,9
62 426.5 m 155,-1,16
 19.5 426.5 19.5 426.5 19.5 385 c 27,17,18
 19.5 344 19.5 344 61 344 c 27,19,20
 104.5 344 104.5 344 104.5 386.5 c 27,21,15
 104.5 426.5 104.5 426.5 62 426.5 c 155,-1,16
441.001 279.669 m 1,22,-1
 404.5 93.166 l 1,23,-1
525 274 m 18,24,25
 531.461 309.929 531.461 309.929 486.123 321.124 c 16,26,-1
 441.001 279.669 l 1,27,-1
 404.5 93.166 l 1,28,-1
 451.666 43.998 l 1,29,30
 485.183 52.5662 485.183 52.5662 489.666 77.498 c 2,31,-1
 525 274 l 18,24,25
543 365 m 18,32,33
 537.389 332.02 537.389 332.02 488.998 328.001 c 16,34,-1
 455.622 365.788 l 1,35,-1
 488 553 l 1,36,-1
 549 598.5 l 1,37,38
 581.279 590.005 581.279 590.005 574.621 550.87 c 2,39,-1
 543 365 l 18,32,33
EndSplineSet
EndChar

StartChar: b
Encoding: 98 98 69
Width: 614
GlyphClass: 2
Flags: HW
LayerCount: 2
Fore
SplineSet
556 95 m 31,0,1
 502 95 502 95 502 46 c 31,2,3
 502 -6 502 -6 555 -6 c 31,4,5
 605 -6 605 -6 605 48 c 31,6,7
 605 95 605 95 556 95 c 31,0,1
61.5 315.5 m 155,-1,9
 19 315.5 19 315.5 19 274 c 27,10,11
 19 233 19 233 60.5 233 c 27,12,13
 104 233 104 233 104 275.5 c 27,14,8
 104 315.5 104 315.5 61.5 315.5 c 155,-1,9
62 426.5 m 155,-1,16
 19.5 426.5 19.5 426.5 19.5 385 c 27,17,18
 19.5 344 19.5 344 61 344 c 27,19,20
 104.5 344 104.5 344 104.5 386.5 c 27,21,15
 104.5 426.5 104.5 426.5 62 426.5 c 155,-1,16
401.166 5.49805 m 2,22,23
 435.245 5.42282 435.245 5.42282 445.162 36.5 c 17,24,-1
 397 87.665 l 1,25,-1
 182 87.3252 l 1,26,-1
 120.166 40.498 l 1,27,28
 120.553 6.1175 120.553 6.1175 174.666 5.99805 c 2,29,-1
 401.166 5.49805 l 2,22,23
124 284 m 18,30,31
 129.234 312.958 129.234 312.958 176.458 318.455 c 16,32,-1
 209.045 280.549 l 1,33,-1
 176.666 93.998 l 1,34,-1
 115.666 48.498 l 1,35,36
 82.9907 57.0973 82.9907 57.0973 90.0449 96.1279 c 2,37,-1
 124 284 l 18,30,31
227.666 360.665 m 1,38,-1
 188 322 l 17,39,-1
 215.048 286.548 l 1,40,-1
 438.042 285.881 l 1,41,-1
 478 324 l 1,42,-1
 449.29 360.455 l 9,43,-1
 227.666 360.665 l 1,38,-1
263.5 641.5 m 2,44,45
 229.421 641.575 229.421 641.575 219.504 610.498 c 17,46,-1
 267.666 559.333 l 1,47,-1
 482.666 559.673 l 1,48,-1
 544.5 606.5 l 1,49,50
 544.113 640.881 544.113 640.881 490 641 c 2,51,-1
 263.5 641.5 l 2,44,45
543 365 m 18,52,53
 537.389 332.02 537.389 332.02 488.998 328.001 c 16,54,-1
 455.622 365.788 l 1,55,-1
 488 553 l 1,56,-1
 549 598.5 l 1,57,58
 581.279 590.005 581.279 590.005 574.621 550.87 c 2,59,-1
 543 365 l 18,52,53
EndSplineSet
EndChar

StartChar: c
Encoding: 99 99 70
Width: 614
GlyphClass: 2
Flags: HW
LayerCount: 2
Fore
SplineSet
556 95 m 31,0,1
 502 95 502 95 502 46 c 31,2,3
 502 -6 502 -6 555 -6 c 31,4,5
 605 -6 605 -6 605 48 c 31,6,7
 605 95 605 95 556 95 c 31,0,1
61.5 315.5 m 155,-1,9
 19 315.5 19 315.5 19 274 c 27,10,11
 19 233 19 233 60.5 233 c 27,12,13
 104 233 104 233 104 275.5 c 27,14,8
 104 315.5 104 315.5 61.5 315.5 c 155,-1,9
62 426.5 m 155,-1,16
 19.5 426.5 19.5 426.5 19.5 385 c 27,17,18
 19.5 344 19.5 344 61 344 c 27,19,20
 104.5 344 104.5 344 104.5 386.5 c 27,21,15
 104.5 426.5 104.5 426.5 62 426.5 c 155,-1,16
441.001 279.669 m 1,22,-1
 404.5 93.166 l 1,23,-1
401.166 5.49805 m 2,24,25
 435.245 5.42282 435.245 5.42282 445.162 36.5 c 17,26,-1
 397 87.665 l 1,27,-1
 182 87.3252 l 1,28,-1
 120.166 40.498 l 1,29,30
 120.553 6.1175 120.553 6.1175 174.666 5.99805 c 2,31,-1
 401.166 5.49805 l 2,24,25
525 274 m 18,32,33
 531.461 309.929 531.461 309.929 486.123 321.124 c 16,34,-1
 441.001 279.669 l 1,35,-1
 404.5 93.166 l 1,36,-1
 451.666 43.998 l 1,37,38
 485.183 52.5662 485.183 52.5662 489.666 77.498 c 2,39,-1
 525 274 l 18,32,33
227.666 360.665 m 1,40,-1
 188 322 l 17,41,-1
 215.048 286.548 l 1,42,-1
 438.042 285.881 l 1,43,-1
 478 324 l 1,44,-1
 449.29 360.455 l 9,45,-1
 227.666 360.665 l 1,40,-1
263.5 641.5 m 2,46,47
 229.421 641.575 229.421 641.575 219.504 610.498 c 17,48,-1
 267.666 559.333 l 1,49,-1
 482.666 559.673 l 1,50,-1
 544.5 606.5 l 1,51,52
 544.113 640.881 544.113 640.881 490 641 c 2,53,-1
 263.5 641.5 l 2,46,47
543 365 m 18,54,55
 537.389 332.02 537.389 332.02 488.998 328.001 c 16,56,-1
 455.622 365.788 l 1,57,-1
 488 553 l 1,58,-1
 549 598.5 l 1,59,60
 581.279 590.005 581.279 590.005 574.621 550.87 c 2,61,-1
 543 365 l 18,54,55
EndSplineSet
EndChar

StartChar: d
Encoding: 100 100 71
Width: 614
GlyphClass: 2
Flags: HW
LayerCount: 2
Fore
SplineSet
556 95 m 31,0,1
 502 95 502 95 502 46 c 31,2,3
 502 -6 502 -6 555 -6 c 31,4,5
 605 -6 605 -6 605 48 c 31,6,7
 605 95 605 95 556 95 c 31,0,1
61.5 315.5 m 155,-1,9
 19 315.5 19 315.5 19 274 c 27,10,11
 19 233 19 233 60.5 233 c 27,12,13
 104 233 104 233 104 275.5 c 27,14,8
 104 315.5 104 315.5 61.5 315.5 c 155,-1,9
62 426.5 m 155,-1,16
 19.5 426.5 19.5 426.5 19.5 385 c 27,17,18
 19.5 344 19.5 344 61 344 c 27,19,20
 104.5 344 104.5 344 104.5 386.5 c 27,21,15
 104.5 426.5 104.5 426.5 62 426.5 c 155,-1,16
441.001 279.669 m 1,22,-1
 404.5 93.166 l 1,23,-1
525 274 m 18,24,25
 531.461 309.929 531.461 309.929 486.123 321.124 c 16,26,-1
 441.001 279.669 l 1,27,-1
 404.5 93.166 l 1,28,-1
 451.666 43.998 l 1,29,30
 485.183 52.5662 485.183 52.5662 489.666 77.498 c 2,31,-1
 525 274 l 18,24,25
227.666 360.665 m 1,32,-1
 188 322 l 17,33,-1
 215.048 286.548 l 1,34,-1
 438.042 285.881 l 1,35,-1
 478 324 l 1,36,-1
 449.29 360.455 l 9,37,-1
 227.666 360.665 l 1,32,-1
139 375 m 18,38,39
 131.41 333.995 131.41 333.995 179.333 325.332 c 16,40,-1
 223.666 366.668 l 1,41,-1
 260.166 553.832 l 1,42,-1
 213 603 l 1,43,44
 179.621 594.467 179.621 594.467 175 569.5 c 2,45,-1
 139 375 l 18,38,39
543 365 m 18,46,47
 537.389 332.02 537.389 332.02 488.998 328.001 c 16,48,-1
 455.622 365.788 l 1,49,-1
 488 553 l 1,50,-1
 549 598.5 l 1,51,52
 581.279 590.005 581.279 590.005 574.621 550.87 c 2,53,-1
 543 365 l 18,46,47
EndSplineSet
EndChar

StartChar: e
Encoding: 101 101 72
Width: 614
GlyphClass: 2
Flags: HW
LayerCount: 2
Fore
SplineSet
556 95 m 31,0,1
 502 95 502 95 502 46 c 31,2,3
 502 -6 502 -6 555 -6 c 31,4,5
 605 -6 605 -6 605 48 c 31,6,7
 605 95 605 95 556 95 c 31,0,1
61.5 315.5 m 155,-1,9
 19 315.5 19 315.5 19 274 c 27,10,11
 19 233 19 233 60.5 233 c 27,12,13
 104 233 104 233 104 275.5 c 27,14,8
 104 315.5 104 315.5 61.5 315.5 c 155,-1,9
62 426.5 m 155,-1,16
 19.5 426.5 19.5 426.5 19.5 385 c 27,17,18
 19.5 344 19.5 344 61 344 c 27,19,20
 104.5 344 104.5 344 104.5 386.5 c 27,21,15
 104.5 426.5 104.5 426.5 62 426.5 c 155,-1,16
441.001 279.669 m 1,22,-1
 404.5 93.166 l 1,23,-1
401.166 5.49805 m 2,24,25
 435.245 5.42282 435.245 5.42282 445.162 36.5 c 17,26,-1
 397 87.665 l 1,27,-1
 182 87.3252 l 1,28,-1
 120.166 40.498 l 1,29,30
 120.553 6.1175 120.553 6.1175 174.666 5.99805 c 2,31,-1
 401.166 5.49805 l 2,24,25
525 274 m 18,32,33
 531.461 309.929 531.461 309.929 486.123 321.124 c 16,34,-1
 441.001 279.669 l 1,35,-1
 404.5 93.166 l 1,36,-1
 451.666 43.998 l 1,37,38
 485.183 52.5662 485.183 52.5662 489.666 77.498 c 2,39,-1
 525 274 l 18,32,33
227.666 360.665 m 1,40,-1
 188 322 l 17,41,-1
 215.048 286.548 l 1,42,-1
 438.042 285.881 l 1,43,-1
 478 324 l 1,44,-1
 449.29 360.455 l 9,45,-1
 227.666 360.665 l 1,40,-1
263.5 641.5 m 2,46,47
 229.421 641.575 229.421 641.575 219.504 610.498 c 17,48,-1
 267.666 559.333 l 1,49,-1
 482.666 559.673 l 1,50,-1
 544.5 606.5 l 1,51,52
 544.113 640.881 544.113 640.881 490 641 c 2,53,-1
 263.5 641.5 l 2,46,47
139 375 m 18,54,55
 131.41 333.995 131.41 333.995 179.333 325.332 c 16,56,-1
 223.666 366.668 l 1,57,-1
 260.166 553.832 l 1,58,-1
 213 603 l 1,59,60
 179.621 594.467 179.621 594.467 175 569.5 c 2,61,-1
 139 375 l 18,54,55
EndSplineSet
EndChar

StartChar: f
Encoding: 102 102 73
Width: 614
GlyphClass: 2
Flags: HW
LayerCount: 2
Fore
SplineSet
556 95 m 31,0,1
 502 95 502 95 502 46 c 31,2,3
 502 -6 502 -6 555 -6 c 31,4,5
 605 -6 605 -6 605 48 c 31,6,7
 605 95 605 95 556 95 c 31,0,1
61.5 315.5 m 155,-1,9
 19 315.5 19 315.5 19 274 c 27,10,11
 19 233 19 233 60.5 233 c 27,12,13
 104 233 104 233 104 275.5 c 27,14,8
 104 315.5 104 315.5 61.5 315.5 c 155,-1,9
62 426.5 m 155,-1,16
 19.5 426.5 19.5 426.5 19.5 385 c 27,17,18
 19.5 344 19.5 344 61 344 c 27,19,20
 104.5 344 104.5 344 104.5 386.5 c 27,21,15
 104.5 426.5 104.5 426.5 62 426.5 c 155,-1,16
441.001 279.669 m 1,22,-1
 404.5 93.166 l 1,23,-1
401.166 5.49805 m 2,24,25
 435.245 5.42282 435.245 5.42282 445.162 36.5 c 17,26,-1
 397 87.665 l 1,27,-1
 182 87.3252 l 1,28,-1
 120.166 40.498 l 1,29,30
 120.553 6.1175 120.553 6.1175 174.666 5.99805 c 2,31,-1
 401.166 5.49805 l 2,24,25
525 274 m 18,32,33
 531.461 309.929 531.461 309.929 486.123 321.124 c 16,34,-1
 441.001 279.669 l 1,35,-1
 404.5 93.166 l 1,36,-1
 451.666 43.998 l 1,37,38
 485.183 52.5662 485.183 52.5662 489.666 77.498 c 2,39,-1
 525 274 l 18,32,33
124 284 m 18,40,41
 129.234 312.958 129.234 312.958 176.458 318.455 c 16,42,-1
 209.045 280.549 l 1,43,-1
 176.666 93.998 l 1,44,-1
 115.666 48.498 l 1,45,46
 82.9907 57.0973 82.9907 57.0973 90.0449 96.1279 c 2,47,-1
 124 284 l 18,40,41
227.666 360.665 m 1,48,-1
 188 322 l 17,49,-1
 215.048 286.548 l 1,50,-1
 438.042 285.881 l 1,51,-1
 478 324 l 1,52,-1
 449.29 360.455 l 9,53,-1
 227.666 360.665 l 1,48,-1
263.5 641.5 m 2,54,55
 229.421 641.575 229.421 641.575 219.504 610.498 c 17,56,-1
 267.666 559.333 l 1,57,-1
 482.666 559.673 l 1,58,-1
 544.5 606.5 l 1,59,60
 544.113 640.881 544.113 640.881 490 641 c 2,61,-1
 263.5 641.5 l 2,54,55
139 375 m 18,62,63
 131.41 333.995 131.41 333.995 179.333 325.332 c 16,64,-1
 223.666 366.668 l 1,65,-1
 260.166 553.832 l 1,66,-1
 213 603 l 1,67,68
 179.621 594.467 179.621 594.467 175 569.5 c 2,69,-1
 139 375 l 18,62,63
EndSplineSet
EndChar

StartChar: g
Encoding: 103 103 74
Width: 614
GlyphClass: 2
Flags: HW
LayerCount: 2
Fore
SplineSet
556 95 m 31,0,1
 502 95 502 95 502 46 c 31,2,3
 502 -6 502 -6 555 -6 c 31,4,5
 605 -6 605 -6 605 48 c 31,6,7
 605 95 605 95 556 95 c 31,0,1
61.5 315.5 m 155,-1,9
 19 315.5 19 315.5 19 274 c 27,10,11
 19 233 19 233 60.5 233 c 27,12,13
 104 233 104 233 104 275.5 c 27,14,8
 104 315.5 104 315.5 61.5 315.5 c 155,-1,9
62 426.5 m 155,-1,16
 19.5 426.5 19.5 426.5 19.5 385 c 27,17,18
 19.5 344 19.5 344 61 344 c 27,19,20
 104.5 344 104.5 344 104.5 386.5 c 27,21,15
 104.5 426.5 104.5 426.5 62 426.5 c 155,-1,16
441.001 279.669 m 1,22,-1
 404.5 93.166 l 1,23,-1
525 274 m 18,24,25
 531.461 309.929 531.461 309.929 486.123 321.124 c 16,26,-1
 441.001 279.669 l 1,27,-1
 404.5 93.166 l 1,28,-1
 451.666 43.998 l 1,29,30
 485.183 52.5662 485.183 52.5662 489.666 77.498 c 2,31,-1
 525 274 l 18,24,25
263.5 641.5 m 2,32,33
 229.421 641.575 229.421 641.575 219.504 610.498 c 17,34,-1
 267.666 559.333 l 1,35,-1
 482.666 559.673 l 1,36,-1
 544.5 606.5 l 1,37,38
 544.113 640.881 544.113 640.881 490 641 c 2,39,-1
 263.5 641.5 l 2,32,33
543 365 m 18,40,41
 537.389 332.02 537.389 332.02 488.998 328.001 c 16,42,-1
 455.622 365.788 l 1,43,-1
 488 553 l 1,44,-1
 549 598.5 l 1,45,46
 581.279 590.005 581.279 590.005 574.621 550.87 c 2,47,-1
 543 365 l 18,40,41
EndSplineSet
EndChar

StartChar: h
Encoding: 104 104 75
Width: 614
GlyphClass: 2
Flags: HW
LayerCount: 2
Fore
SplineSet
556 95 m 31,0,1
 502 95 502 95 502 46 c 31,2,3
 502 -6 502 -6 555 -6 c 31,4,5
 605 -6 605 -6 605 48 c 31,6,7
 605 95 605 95 556 95 c 31,0,1
61.5 315.5 m 155,-1,9
 19 315.5 19 315.5 19 274 c 27,10,11
 19 233 19 233 60.5 233 c 27,12,13
 104 233 104 233 104 275.5 c 27,14,8
 104 315.5 104 315.5 61.5 315.5 c 155,-1,9
62 426.5 m 155,-1,16
 19.5 426.5 19.5 426.5 19.5 385 c 27,17,18
 19.5 344 19.5 344 61 344 c 27,19,20
 104.5 344 104.5 344 104.5 386.5 c 27,21,15
 104.5 426.5 104.5 426.5 62 426.5 c 155,-1,16
441.001 279.669 m 1,22,-1
 404.5 93.166 l 1,23,-1
401.166 5.49805 m 2,24,25
 435.245 5.42282 435.245 5.42282 445.162 36.5 c 17,26,-1
 397 87.665 l 1,27,-1
 182 87.3252 l 1,28,-1
 120.166 40.498 l 1,29,30
 120.553 6.1175 120.553 6.1175 174.666 5.99805 c 2,31,-1
 401.166 5.49805 l 2,24,25
525 274 m 18,32,33
 531.461 309.929 531.461 309.929 486.123 321.124 c 16,34,-1
 441.001 279.669 l 1,35,-1
 404.5 93.166 l 1,36,-1
 451.666 43.998 l 1,37,38
 485.183 52.5662 485.183 52.5662 489.666 77.498 c 2,39,-1
 525 274 l 18,32,33
124 284 m 18,40,41
 129.234 312.958 129.234 312.958 176.458 318.455 c 16,42,-1
 209.045 280.549 l 1,43,-1
 176.666 93.998 l 1,44,-1
 115.666 48.498 l 1,45,46
 82.9907 57.0973 82.9907 57.0973 90.0449 96.1279 c 2,47,-1
 124 284 l 18,40,41
227.666 360.665 m 1,48,-1
 188 322 l 17,49,-1
 215.048 286.548 l 1,50,-1
 438.042 285.881 l 1,51,-1
 478 324 l 1,52,-1
 449.29 360.455 l 9,53,-1
 227.666 360.665 l 1,48,-1
263.5 641.5 m 2,54,55
 229.421 641.575 229.421 641.575 219.504 610.498 c 17,56,-1
 267.666 559.333 l 1,57,-1
 482.666 559.673 l 1,58,-1
 544.5 606.5 l 1,59,60
 544.113 640.881 544.113 640.881 490 641 c 2,61,-1
 263.5 641.5 l 2,54,55
139 375 m 18,62,63
 131.41 333.995 131.41 333.995 179.333 325.332 c 16,64,-1
 223.666 366.668 l 1,65,-1
 260.166 553.832 l 1,66,-1
 213 603 l 1,67,68
 179.621 594.467 179.621 594.467 175 569.5 c 2,69,-1
 139 375 l 18,62,63
543 365 m 18,70,71
 537.389 332.02 537.389 332.02 488.998 328.001 c 16,72,-1
 455.622 365.788 l 1,73,-1
 488 553 l 1,74,-1
 549 598.5 l 1,75,76
 581.279 590.005 581.279 590.005 574.621 550.87 c 2,77,-1
 543 365 l 18,70,71
EndSplineSet
EndChar

StartChar: i
Encoding: 105 105 76
Width: 614
GlyphClass: 2
Flags: HW
LayerCount: 2
Fore
SplineSet
556 95 m 31,0,1
 502 95 502 95 502 46 c 31,2,3
 502 -6 502 -6 555 -6 c 31,4,5
 605 -6 605 -6 605 48 c 31,6,7
 605 95 605 95 556 95 c 31,0,1
61.5 315.5 m 155,-1,9
 19 315.5 19 315.5 19 274 c 27,10,11
 19 233 19 233 60.5 233 c 27,12,13
 104 233 104 233 104 275.5 c 27,14,8
 104 315.5 104 315.5 61.5 315.5 c 155,-1,9
62 426.5 m 155,-1,16
 19.5 426.5 19.5 426.5 19.5 385 c 27,17,18
 19.5 344 19.5 344 61 344 c 27,19,20
 104.5 344 104.5 344 104.5 386.5 c 27,21,15
 104.5 426.5 104.5 426.5 62 426.5 c 155,-1,16
441.001 279.669 m 1,22,-1
 404.5 93.166 l 1,23,-1
401.166 5.49805 m 2,24,25
 435.245 5.42282 435.245 5.42282 445.162 36.5 c 17,26,-1
 397 87.665 l 1,27,-1
 182 87.3252 l 1,28,-1
 120.166 40.498 l 1,29,30
 120.553 6.1175 120.553 6.1175 174.666 5.99805 c 2,31,-1
 401.166 5.49805 l 2,24,25
525 274 m 18,32,33
 531.461 309.929 531.461 309.929 486.123 321.124 c 16,34,-1
 441.001 279.669 l 1,35,-1
 404.5 93.166 l 1,36,-1
 451.666 43.998 l 1,37,38
 485.183 52.5662 485.183 52.5662 489.666 77.498 c 2,39,-1
 525 274 l 18,32,33
227.666 360.665 m 1,40,-1
 188 322 l 17,41,-1
 215.048 286.548 l 1,42,-1
 438.042 285.881 l 1,43,-1
 478 324 l 1,44,-1
 449.29 360.455 l 9,45,-1
 227.666 360.665 l 1,40,-1
263.5 641.5 m 2,46,47
 229.421 641.575 229.421 641.575 219.504 610.498 c 17,48,-1
 267.666 559.333 l 1,49,-1
 482.666 559.673 l 1,50,-1
 544.5 606.5 l 1,51,52
 544.113 640.881 544.113 640.881 490 641 c 2,53,-1
 263.5 641.5 l 2,46,47
139 375 m 18,54,55
 131.41 333.995 131.41 333.995 179.333 325.332 c 16,56,-1
 223.666 366.668 l 1,57,-1
 260.166 553.832 l 1,58,-1
 213 603 l 1,59,60
 179.621 594.467 179.621 594.467 175 569.5 c 2,61,-1
 139 375 l 18,54,55
543 365 m 18,62,63
 537.389 332.02 537.389 332.02 488.998 328.001 c 16,64,-1
 455.622 365.788 l 1,65,-1
 488 553 l 1,66,-1
 549 598.5 l 1,67,68
 581.279 590.005 581.279 590.005 574.621 550.87 c 2,69,-1
 543 365 l 18,62,63
EndSplineSet
EndChar

StartChar: j
Encoding: 106 106 77
Width: 614
GlyphClass: 2
Flags: W
LayerCount: 2
Fore
SplineSet
427 385 m 1,0,-1
 180 385 l 2,1,2
 152 385 152 385 153 407 c 0,3,4
 153 427 153 427 180 427 c 2,5,-1
 469 427 l 1,6,-1
 469 -29 l 2,7,8
 469 -101 469 -101 424.5 -145.5 c 128,-1,9
 380 -190 380 -190 310 -190 c 2,10,-1
 178 -190 l 2,11,12
 150 -190 150 -190 151 -169 c 0,13,14
 151 -149 151 -149 178 -148 c 2,15,-1
 309 -148 l 2,16,17
 360 -148 360 -148 393.5 -114.5 c 128,-1,18
 427 -81 427 -81 427 -29 c 2,19,-1
 427 385 l 1,0,-1
424 639 m 1,20,-1
 424 532 l 1,21,-1
 364 532 l 1,22,-1
 364 639 l 1,23,-1
 424 639 l 1,20,-1
EndSplineSet
EndChar

StartChar: k
Encoding: 107 107 78
Width: 614
GlyphClass: 2
Flags: W
LayerCount: 2
Fore
SplineSet
189 184 m 1,0,-1
 189 0 l 1,1,-1
 92 0 l 2,2,3
 64 0 64 0 65 22 c 0,4,5
 65 42 65 42 92 42 c 2,6,-1
 147 42 l 1,7,-1
 147 577 l 1,8,-1
 92 577 l 2,9,10
 64 577 64 577 65 598 c 0,11,12
 65 618 65 618 92 618 c 2,13,-1
 189 618 l 1,14,-1
 189 234 l 1,15,-1
 367 385 l 1,16,-1
 344 385 l 2,17,18
 316 385 316 385 316 407 c 0,19,20
 316 427 316 427 344 427 c 2,21,-1
 477 427 l 2,22,23
 505 427 505 427 505 407 c 0,24,25
 505 385 505 385 477 385 c 2,26,-1
 429 385 l 1,27,-1
 268 251 l 1,28,-1
 480 42 l 1,29,-1
 526 42 l 2,30,31
 554 42 554 42 554 22 c 0,32,33
 554 0 554 0 526 0 c 2,34,-1
 392 0 l 2,35,36
 364 0 364 0 365 22 c 0,37,38
 365 42 365 42 392 42 c 2,39,-1
 421 42 l 1,40,-1
 237 224 l 1,41,-1
 189 184 l 1,0,-1
EndSplineSet
EndChar

StartChar: l
Encoding: 108 108 79
Width: 614
GlyphClass: 2
Flags: W
LayerCount: 2
Fore
SplineSet
328 618 m 1,0,-1
 328 42 l 1,1,-1
 492 42 l 2,2,3
 521 42 521 42 520 22 c 0,4,5
 520 0 520 0 492 0 c 2,6,-1
 122 0 l 2,7,8
 94 0 94 0 94 22 c 0,9,10
 94 42 94 42 122 42 c 2,11,-1
 286 42 l 1,12,-1
 286 577 l 1,13,-1
 166 577 l 2,14,15
 138 577 138 577 138 598 c 0,16,17
 138 618 138 618 166 618 c 2,18,-1
 328 618 l 1,0,-1
EndSplineSet
EndChar

StartChar: m
Encoding: 109 109 80
Width: 614
GlyphClass: 2
Flags: W
LayerCount: 2
Fore
SplineSet
115 427 m 1,0,-1
 115 374 l 1,1,2
 141 411 141 411 165 426 c 128,-1,3
 189 441 189 441 222 441 c 0,4,5
 288 441 288 441 322 369 c 1,6,7
 378 442 378 442 437 441 c 0,8,9
 481 441 481 441 513 408.5 c 128,-1,10
 545 376 545 376 545 331 c 2,11,-1
 545 42 l 1,12,-1
 580 42 l 2,13,14
 608 42 608 42 607 22 c 0,15,16
 607 0 607 0 580 0 c 2,17,-1
 504 0 l 1,18,-1
 504 327 l 2,19,20
 504 356 504 356 483.5 377.5 c 128,-1,21
 463 399 463 399 436 399 c 0,22,23
 385 399 385 399 330 315 c 1,24,-1
 330 42 l 1,25,-1
 365 42 l 2,26,27
 393 42 393 42 392 22 c 0,28,29
 392 0 392 0 365 0 c 2,30,-1
 289 0 l 1,31,-1
 289 324 l 2,32,33
 289 354 289 354 269 376.5 c 128,-1,34
 249 399 249 399 222 399 c 0,35,36
 171 399 171 399 115 315 c 1,37,-1
 115 42 l 1,38,-1
 150 42 l 2,39,40
 178 42 178 42 177 22 c 0,41,42
 177 0 177 0 150 0 c 2,43,-1
 38 0 l 2,44,45
 11 0 11 0 11 22 c 0,46,47
 11 42 11 42 39 42 c 2,48,-1
 74 42 l 1,49,-1
 74 385 l 1,50,-1
 39 385 l 2,51,52
 11 385 11 385 11 407 c 0,53,54
 11 427 11 427 39 427 c 2,55,-1
 115 427 l 1,0,-1
EndSplineSet
EndChar

StartChar: n
Encoding: 110 110 81
Width: 614
GlyphClass: 2
Flags: W
LayerCount: 2
Fore
SplineSet
327 399 m 0,0,1
 309 399 309 399 291.5 395.5 c 128,-1,2
 274 392 274 392 259.5 384.5 c 128,-1,3
 245 377 245 377 234.5 370.5 c 128,-1,4
 224 364 224 364 212.5 351.5 c 128,-1,5
 201 339 201 339 196 333.5 c 128,-1,6
 191 328 191 328 181.5 315 c 128,-1,7
 172 302 172 302 171 301 c 1,8,-1
 171 42 l 1,9,-1
 217 42 l 2,10,11
 245 42 245 42 245 22 c 0,12,13
 245 0 245 0 217 0 c 2,14,-1
 83 0 l 2,15,16
 54 0 54 0 54 22 c 0,17,18
 54 42 54 42 83 42 c 2,19,-1
 129 42 l 1,20,-1
 129 385 l 1,21,-1
 94 385 l 2,22,23
 66 385 66 385 67 407 c 0,24,25
 67 427 67 427 94 427 c 2,26,-1
 171 427 l 1,27,-1
 171 356 l 1,28,29
 215 405 215 405 249 423 c 128,-1,30
 283 441 283 441 331 441 c 0,31,32
 400 441 400 441 446 401 c 128,-1,33
 492 361 492 361 492 302 c 2,34,-1
 492 42 l 1,35,-1
 526 42 l 2,36,37
 554 42 554 42 554 22 c 0,38,39
 554 0 554 0 526 0 c 2,40,-1
 415 0 l 2,41,42
 387 0 387 0 387 22 c 0,43,44
 387 42 387 42 415 42 c 2,45,-1
 450 42 l 1,46,-1
 450 295 l 2,47,48
 450 339 450 339 416.5 369 c 128,-1,49
 383 399 383 399 327 399 c 0,0,1
EndSplineSet
EndChar

StartChar: o
Encoding: 111 111 82
Width: 614
GlyphClass: 2
Flags: W
AnchorPoint: "Anchor-2" 302 441 basechar 0
LayerCount: 2
Fore
SplineSet
307 441 m 0,0,1
 405 441 405 441 473 374 c 128,-1,2
 541 307 541 307 541 210 c 0,3,4
 541 116 541 116 472 50 c 128,-1,5
 403 -16 403 -16 307 -16 c 0,6,7
 210 -16 210 -16 142 50.5 c 128,-1,8
 74 117 74 117 74 213 c 0,9,10
 74 307 74 307 142 374 c 128,-1,11
 210 441 210 441 307 441 c 0,0,1
307 399 m 0,12,13
 227 399 227 399 171.5 345 c 128,-1,14
 116 291 116 291 116 213 c 128,-1,15
 116 135 116 135 171.5 80.5 c 128,-1,16
 227 26 227 26 307 26 c 0,17,18
 386 26 386 26 442.5 80 c 128,-1,19
 499 134 499 134 499 210 c 0,20,21
 499 291 499 291 443.5 345 c 128,-1,22
 388 399 388 399 307 399 c 0,12,13
EndSplineSet
EndChar

StartChar: p
Encoding: 112 112 83
Width: 614
GlyphClass: 2
Flags: HW
LayerCount: 2
Fore
SplineSet
551.25 96.75 m 159,-1,1
 510.5 96.75 510.5 96.75 510.5 54.5 c 31,2,3
 510.5 -43 510.5 -43 526 -43 c 31,4,5
 592 -43 592 -43 592 48.5 c 31,6,0
 592 96.75 592 96.75 551.25 96.75 c 159,-1,1
441.001 279.669 m 1,7,-1
 404.5 93.166 l 1,8,-1
401.166 5.49805 m 2,9,10
 435.245 5.42282 435.245 5.42282 445.162 36.5 c 17,11,-1
 397 87.665 l 1,12,-1
 182 87.3252 l 1,13,-1
 120.166 40.498 l 1,14,15
 120.553 6.1175 120.553 6.1175 174.666 5.99805 c 2,16,-1
 401.166 5.49805 l 2,9,10
525 274 m 18,17,18
 531.461 309.929 531.461 309.929 486.123 321.124 c 16,19,-1
 441.001 279.669 l 1,20,-1
 404.5 93.166 l 1,21,-1
 451.666 43.998 l 1,22,23
 485.183 52.5662 485.183 52.5662 489.666 77.498 c 2,24,-1
 525 274 l 18,17,18
124 284 m 18,25,26
 129.234 312.958 129.234 312.958 176.458 318.455 c 16,27,-1
 209.045 280.549 l 1,28,-1
 176.666 93.998 l 1,29,-1
 115.666 48.498 l 1,30,31
 82.9907 57.0973 82.9907 57.0973 90.0449 96.1279 c 2,32,-1
 124 284 l 18,25,26
263.5 641.5 m 2,33,34
 229.421 641.575 229.421 641.575 219.504 610.498 c 17,35,-1
 267.666 559.333 l 1,36,-1
 482.666 559.673 l 1,37,-1
 544.5 606.5 l 1,38,39
 544.113 640.881 544.113 640.881 490 641 c 2,40,-1
 263.5 641.5 l 2,33,34
139 375 m 18,41,42
 131.41 333.995 131.41 333.995 179.333 325.332 c 16,43,-1
 223.666 366.668 l 1,44,-1
 260.166 553.832 l 1,45,-1
 213 603 l 1,46,47
 179.621 594.467 179.621 594.467 175 569.5 c 2,48,-1
 139 375 l 18,41,42
543 365 m 18,49,50
 537.389 332.02 537.389 332.02 488.998 328.001 c 16,51,-1
 455.622 365.788 l 1,52,-1
 488 553 l 1,53,-1
 549 598.5 l 1,54,55
 581.279 590.005 581.279 590.005 574.621 550.87 c 2,56,-1
 543 365 l 18,49,50
EndSplineSet
EndChar

StartChar: q
Encoding: 113 113 84
Width: 614
GlyphClass: 2
Flags: HW
LayerCount: 2
Fore
SplineSet
551.25 96.75 m 159,-1,1
 510.5 96.75 510.5 96.75 510.5 54.5 c 31,2,3
 510.5 -43 510.5 -43 526 -43 c 31,4,5
 592 -43 592 -43 592 48.5 c 31,6,0
 592 96.75 592 96.75 551.25 96.75 c 159,-1,1
441.001 279.669 m 1,7,-1
 404.5 93.166 l 1,8,-1
525 274 m 18,9,10
 531.461 309.929 531.461 309.929 486.123 321.124 c 16,11,-1
 441.001 279.669 l 1,12,-1
 404.5 93.166 l 1,13,-1
 451.666 43.998 l 1,14,15
 485.183 52.5662 485.183 52.5662 489.666 77.498 c 2,16,-1
 525 274 l 18,9,10
543 365 m 18,17,18
 537.389 332.02 537.389 332.02 488.998 328.001 c 16,19,-1
 455.622 365.788 l 1,20,-1
 488 553 l 1,21,-1
 549 598.5 l 1,22,23
 581.279 590.005 581.279 590.005 574.621 550.87 c 2,24,-1
 543 365 l 18,17,18
EndSplineSet
EndChar

StartChar: r
Encoding: 114 114 85
Width: 614
GlyphClass: 2
Flags: HW
LayerCount: 2
Fore
SplineSet
551.25 96.75 m 159,-1,1
 510.5 96.75 510.5 96.75 510.5 54.5 c 31,2,3
 510.5 -43 510.5 -43 526 -43 c 31,4,5
 592 -43 592 -43 592 48.5 c 31,6,0
 592 96.75 592 96.75 551.25 96.75 c 159,-1,1
401.166 5.49805 m 2,7,8
 435.245 5.42282 435.245 5.42282 445.162 36.5 c 17,9,-1
 397 87.665 l 1,10,-1
 182 87.3252 l 1,11,-1
 120.166 40.498 l 1,12,13
 120.553 6.1175 120.553 6.1175 174.666 5.99805 c 2,14,-1
 401.166 5.49805 l 2,7,8
124 284 m 18,15,16
 129.234 312.958 129.234 312.958 176.458 318.455 c 16,17,-1
 209.045 280.549 l 1,18,-1
 176.666 93.998 l 1,19,-1
 115.666 48.498 l 1,20,21
 82.9907 57.0973 82.9907 57.0973 90.0449 96.1279 c 2,22,-1
 124 284 l 18,15,16
227.666 360.665 m 1,23,-1
 188 322 l 17,24,-1
 215.048 286.548 l 1,25,-1
 438.042 285.881 l 1,26,-1
 478 324 l 1,27,-1
 449.29 360.455 l 9,28,-1
 227.666 360.665 l 1,23,-1
263.5 641.5 m 2,29,30
 229.421 641.575 229.421 641.575 219.504 610.498 c 17,31,-1
 267.666 559.333 l 1,32,-1
 482.666 559.673 l 1,33,-1
 544.5 606.5 l 1,34,35
 544.113 640.881 544.113 640.881 490 641 c 2,36,-1
 263.5 641.5 l 2,29,30
543 365 m 18,37,38
 537.389 332.02 537.389 332.02 488.998 328.001 c 16,39,-1
 455.622 365.788 l 1,40,-1
 488 553 l 1,41,-1
 549 598.5 l 1,42,43
 581.279 590.005 581.279 590.005 574.621 550.87 c 2,44,-1
 543 365 l 18,37,38
EndSplineSet
EndChar

StartChar: s
Encoding: 115 115 86
Width: 614
GlyphClass: 2
Flags: HW
LayerCount: 2
Fore
SplineSet
551.25 96.75 m 159,-1,1
 510.5 96.75 510.5 96.75 510.5 54.5 c 31,2,3
 510.5 -43 510.5 -43 526 -43 c 31,4,5
 592 -43 592 -43 592 48.5 c 31,6,0
 592 96.75 592 96.75 551.25 96.75 c 159,-1,1
441.001 279.669 m 1,7,-1
 404.5 93.166 l 1,8,-1
401.166 5.49805 m 2,9,10
 435.245 5.42282 435.245 5.42282 445.162 36.5 c 17,11,-1
 397 87.665 l 1,12,-1
 182 87.3252 l 1,13,-1
 120.166 40.498 l 1,14,15
 120.553 6.1175 120.553 6.1175 174.666 5.99805 c 2,16,-1
 401.166 5.49805 l 2,9,10
525 274 m 18,17,18
 531.461 309.929 531.461 309.929 486.123 321.124 c 16,19,-1
 441.001 279.669 l 1,20,-1
 404.5 93.166 l 1,21,-1
 451.666 43.998 l 1,22,23
 485.183 52.5662 485.183 52.5662 489.666 77.498 c 2,24,-1
 525 274 l 18,17,18
227.666 360.665 m 1,25,-1
 188 322 l 17,26,-1
 215.048 286.548 l 1,27,-1
 438.042 285.881 l 1,28,-1
 478 324 l 1,29,-1
 449.29 360.455 l 9,30,-1
 227.666 360.665 l 1,25,-1
263.5 641.5 m 2,31,32
 229.421 641.575 229.421 641.575 219.504 610.498 c 17,33,-1
 267.666 559.333 l 1,34,-1
 482.666 559.673 l 1,35,-1
 544.5 606.5 l 1,36,37
 544.113 640.881 544.113 640.881 490 641 c 2,38,-1
 263.5 641.5 l 2,31,32
543 365 m 18,39,40
 537.389 332.02 537.389 332.02 488.998 328.001 c 16,41,-1
 455.622 365.788 l 1,42,-1
 488 553 l 1,43,-1
 549 598.5 l 1,44,45
 581.279 590.005 581.279 590.005 574.621 550.87 c 2,46,-1
 543 365 l 18,39,40
EndSplineSet
EndChar

StartChar: t
Encoding: 116 116 87
Width: 614
GlyphClass: 2
Flags: HW
LayerCount: 2
Fore
SplineSet
551.25 96.75 m 159,-1,1
 510.5 96.75 510.5 96.75 510.5 54.5 c 31,2,3
 510.5 -43 510.5 -43 526 -43 c 31,4,5
 592 -43 592 -43 592 48.5 c 31,6,0
 592 96.75 592 96.75 551.25 96.75 c 159,-1,1
441.001 279.669 m 1,7,-1
 404.5 93.166 l 1,8,-1
525 274 m 18,9,10
 531.461 309.929 531.461 309.929 486.123 321.124 c 16,11,-1
 441.001 279.669 l 1,12,-1
 404.5 93.166 l 1,13,-1
 451.666 43.998 l 1,14,15
 485.183 52.5662 485.183 52.5662 489.666 77.498 c 2,16,-1
 525 274 l 18,9,10
227.666 360.665 m 1,17,-1
 188 322 l 17,18,-1
 215.048 286.548 l 1,19,-1
 438.042 285.881 l 1,20,-1
 478 324 l 1,21,-1
 449.29 360.455 l 9,22,-1
 227.666 360.665 l 1,17,-1
139 375 m 18,23,24
 131.41 333.995 131.41 333.995 179.333 325.332 c 16,25,-1
 223.666 366.668 l 1,26,-1
 260.166 553.832 l 1,27,-1
 213 603 l 1,28,29
 179.621 594.467 179.621 594.467 175 569.5 c 2,30,-1
 139 375 l 18,23,24
543 365 m 18,31,32
 537.389 332.02 537.389 332.02 488.998 328.001 c 16,33,-1
 455.622 365.788 l 1,34,-1
 488 553 l 1,35,-1
 549 598.5 l 1,36,37
 581.279 590.005 581.279 590.005 574.621 550.87 c 2,38,-1
 543 365 l 18,31,32
EndSplineSet
EndChar

StartChar: u
Encoding: 117 117 88
Width: 614
GlyphClass: 2
Flags: HW
LayerCount: 2
Fore
SplineSet
551.25 96.75 m 159,-1,1
 510.5 96.75 510.5 96.75 510.5 54.5 c 31,2,3
 510.5 -43 510.5 -43 526 -43 c 31,4,5
 592 -43 592 -43 592 48.5 c 31,6,0
 592 96.75 592 96.75 551.25 96.75 c 159,-1,1
441.001 279.669 m 1,7,-1
 404.5 93.166 l 1,8,-1
401.166 5.49805 m 2,9,10
 435.245 5.42282 435.245 5.42282 445.162 36.5 c 17,11,-1
 397 87.665 l 1,12,-1
 182 87.3252 l 1,13,-1
 120.166 40.498 l 1,14,15
 120.553 6.1175 120.553 6.1175 174.666 5.99805 c 2,16,-1
 401.166 5.49805 l 2,9,10
525 274 m 18,17,18
 531.461 309.929 531.461 309.929 486.123 321.124 c 16,19,-1
 441.001 279.669 l 1,20,-1
 404.5 93.166 l 1,21,-1
 451.666 43.998 l 1,22,23
 485.183 52.5662 485.183 52.5662 489.666 77.498 c 2,24,-1
 525 274 l 18,17,18
227.666 360.665 m 1,25,-1
 188 322 l 17,26,-1
 215.048 286.548 l 1,27,-1
 438.042 285.881 l 1,28,-1
 478 324 l 1,29,-1
 449.29 360.455 l 9,30,-1
 227.666 360.665 l 1,25,-1
263.5 641.5 m 2,31,32
 229.421 641.575 229.421 641.575 219.504 610.498 c 17,33,-1
 267.666 559.333 l 1,34,-1
 482.666 559.673 l 1,35,-1
 544.5 606.5 l 1,36,37
 544.113 640.881 544.113 640.881 490 641 c 2,38,-1
 263.5 641.5 l 2,31,32
139 375 m 18,39,40
 131.41 333.995 131.41 333.995 179.333 325.332 c 16,41,-1
 223.666 366.668 l 1,42,-1
 260.166 553.832 l 1,43,-1
 213 603 l 1,44,45
 179.621 594.467 179.621 594.467 175 569.5 c 2,46,-1
 139 375 l 18,39,40
EndSplineSet
EndChar

StartChar: v
Encoding: 118 118 89
Width: 614
GlyphClass: 2
Flags: HW
LayerCount: 2
Fore
SplineSet
551.25 96.75 m 159,-1,1
 510.5 96.75 510.5 96.75 510.5 54.5 c 31,2,3
 510.5 -43 510.5 -43 526 -43 c 31,4,5
 592 -43 592 -43 592 48.5 c 31,6,0
 592 96.75 592 96.75 551.25 96.75 c 159,-1,1
441.001 279.669 m 1,7,-1
 404.5 93.166 l 1,8,-1
401.166 5.49805 m 2,9,10
 435.245 5.42282 435.245 5.42282 445.162 36.5 c 17,11,-1
 397 87.665 l 1,12,-1
 182 87.3252 l 1,13,-1
 120.166 40.498 l 1,14,15
 120.553 6.1175 120.553 6.1175 174.666 5.99805 c 2,16,-1
 401.166 5.49805 l 2,9,10
525 274 m 18,17,18
 531.461 309.929 531.461 309.929 486.123 321.124 c 16,19,-1
 441.001 279.669 l 1,20,-1
 404.5 93.166 l 1,21,-1
 451.666 43.998 l 1,22,23
 485.183 52.5662 485.183 52.5662 489.666 77.498 c 2,24,-1
 525 274 l 18,17,18
124 284 m 18,25,26
 129.234 312.958 129.234 312.958 176.458 318.455 c 16,27,-1
 209.045 280.549 l 1,28,-1
 176.666 93.998 l 1,29,-1
 115.666 48.498 l 1,30,31
 82.9907 57.0973 82.9907 57.0973 90.0449 96.1279 c 2,32,-1
 124 284 l 18,25,26
227.666 360.665 m 1,33,-1
 188 322 l 17,34,-1
 215.048 286.548 l 1,35,-1
 438.042 285.881 l 1,36,-1
 478 324 l 1,37,-1
 449.29 360.455 l 9,38,-1
 227.666 360.665 l 1,33,-1
263.5 641.5 m 2,39,40
 229.421 641.575 229.421 641.575 219.504 610.498 c 17,41,-1
 267.666 559.333 l 1,42,-1
 482.666 559.673 l 1,43,-1
 544.5 606.5 l 1,44,45
 544.113 640.881 544.113 640.881 490 641 c 2,46,-1
 263.5 641.5 l 2,39,40
139 375 m 18,47,48
 131.41 333.995 131.41 333.995 179.333 325.332 c 16,49,-1
 223.666 366.668 l 1,50,-1
 260.166 553.832 l 1,51,-1
 213 603 l 1,52,53
 179.621 594.467 179.621 594.467 175 569.5 c 2,54,-1
 139 375 l 18,47,48
EndSplineSet
EndChar

StartChar: w
Encoding: 119 119 90
Width: 614
GlyphClass: 2
Flags: HW
LayerCount: 2
Fore
SplineSet
551.25 96.75 m 159,-1,1
 510.5 96.75 510.5 96.75 510.5 54.5 c 31,2,3
 510.5 -43 510.5 -43 526 -43 c 31,4,5
 592 -43 592 -43 592 48.5 c 31,6,0
 592 96.75 592 96.75 551.25 96.75 c 159,-1,1
441.001 279.669 m 1,7,-1
 404.5 93.166 l 1,8,-1
525 274 m 18,9,10
 531.461 309.929 531.461 309.929 486.123 321.124 c 16,11,-1
 441.001 279.669 l 1,12,-1
 404.5 93.166 l 1,13,-1
 451.666 43.998 l 1,14,15
 485.183 52.5662 485.183 52.5662 489.666 77.498 c 2,16,-1
 525 274 l 18,9,10
263.5 641.5 m 2,17,18
 229.421 641.575 229.421 641.575 219.504 610.498 c 17,19,-1
 267.666 559.333 l 1,20,-1
 482.666 559.673 l 1,21,-1
 544.5 606.5 l 1,22,23
 544.113 640.881 544.113 640.881 490 641 c 2,24,-1
 263.5 641.5 l 2,17,18
543 365 m 18,25,26
 537.389 332.02 537.389 332.02 488.998 328.001 c 16,27,-1
 455.622 365.788 l 1,28,-1
 488 553 l 1,29,-1
 549 598.5 l 1,30,31
 581.279 590.005 581.279 590.005 574.621 550.87 c 2,32,-1
 543 365 l 18,25,26
EndSplineSet
EndChar

StartChar: x
Encoding: 120 120 91
Width: 614
GlyphClass: 2
Flags: HW
LayerCount: 2
Fore
SplineSet
551.25 96.75 m 159,-1,1
 510.5 96.75 510.5 96.75 510.5 54.5 c 31,2,3
 510.5 -43 510.5 -43 526 -43 c 31,4,5
 592 -43 592 -43 592 48.5 c 31,6,0
 592 96.75 592 96.75 551.25 96.75 c 159,-1,1
441.001 279.669 m 1,7,-1
 404.5 93.166 l 1,8,-1
401.166 5.49805 m 2,9,10
 435.245 5.42282 435.245 5.42282 445.162 36.5 c 17,11,-1
 397 87.665 l 1,12,-1
 182 87.3252 l 1,13,-1
 120.166 40.498 l 1,14,15
 120.553 6.1175 120.553 6.1175 174.666 5.99805 c 2,16,-1
 401.166 5.49805 l 2,9,10
525 274 m 18,17,18
 531.461 309.929 531.461 309.929 486.123 321.124 c 16,19,-1
 441.001 279.669 l 1,20,-1
 404.5 93.166 l 1,21,-1
 451.666 43.998 l 1,22,23
 485.183 52.5662 485.183 52.5662 489.666 77.498 c 2,24,-1
 525 274 l 18,17,18
124 284 m 18,25,26
 129.234 312.958 129.234 312.958 176.458 318.455 c 16,27,-1
 209.045 280.549 l 1,28,-1
 176.666 93.998 l 1,29,-1
 115.666 48.498 l 1,30,31
 82.9907 57.0973 82.9907 57.0973 90.0449 96.1279 c 2,32,-1
 124 284 l 18,25,26
227.666 360.665 m 1,33,-1
 188 322 l 17,34,-1
 215.048 286.548 l 1,35,-1
 438.042 285.881 l 1,36,-1
 478 324 l 1,37,-1
 449.29 360.455 l 9,38,-1
 227.666 360.665 l 1,33,-1
263.5 641.5 m 2,39,40
 229.421 641.575 229.421 641.575 219.504 610.498 c 17,41,-1
 267.666 559.333 l 1,42,-1
 482.666 559.673 l 1,43,-1
 544.5 606.5 l 1,44,45
 544.113 640.881 544.113 640.881 490 641 c 2,46,-1
 263.5 641.5 l 2,39,40
139 375 m 18,47,48
 131.41 333.995 131.41 333.995 179.333 325.332 c 16,49,-1
 223.666 366.668 l 1,50,-1
 260.166 553.832 l 1,51,-1
 213 603 l 1,52,53
 179.621 594.467 179.621 594.467 175 569.5 c 2,54,-1
 139 375 l 18,47,48
543 365 m 18,55,56
 537.389 332.02 537.389 332.02 488.998 328.001 c 16,57,-1
 455.622 365.788 l 1,58,-1
 488 553 l 1,59,-1
 549 598.5 l 1,60,61
 581.279 590.005 581.279 590.005 574.621 550.87 c 2,62,-1
 543 365 l 18,55,56
EndSplineSet
EndChar

StartChar: y
Encoding: 121 121 92
Width: 614
GlyphClass: 2
Flags: HW
LayerCount: 2
Fore
SplineSet
551.25 96.75 m 159,-1,1
 510.5 96.75 510.5 96.75 510.5 54.5 c 31,2,3
 510.5 -43 510.5 -43 526 -43 c 31,4,5
 592 -43 592 -43 592 48.5 c 31,6,0
 592 96.75 592 96.75 551.25 96.75 c 159,-1,1
441.001 279.669 m 1,7,-1
 404.5 93.166 l 1,8,-1
401.166 5.49805 m 2,9,10
 435.245 5.42282 435.245 5.42282 445.162 36.5 c 17,11,-1
 397 87.665 l 1,12,-1
 182 87.3252 l 1,13,-1
 120.166 40.498 l 1,14,15
 120.553 6.1175 120.553 6.1175 174.666 5.99805 c 2,16,-1
 401.166 5.49805 l 2,9,10
525 274 m 18,17,18
 531.461 309.929 531.461 309.929 486.123 321.124 c 16,19,-1
 441.001 279.669 l 1,20,-1
 404.5 93.166 l 1,21,-1
 451.666 43.998 l 1,22,23
 485.183 52.5662 485.183 52.5662 489.666 77.498 c 2,24,-1
 525 274 l 18,17,18
227.666 360.665 m 1,25,-1
 188 322 l 17,26,-1
 215.048 286.548 l 1,27,-1
 438.042 285.881 l 1,28,-1
 478 324 l 1,29,-1
 449.29 360.455 l 9,30,-1
 227.666 360.665 l 1,25,-1
263.5 641.5 m 2,31,32
 229.421 641.575 229.421 641.575 219.504 610.498 c 17,33,-1
 267.666 559.333 l 1,34,-1
 482.666 559.673 l 1,35,-1
 544.5 606.5 l 1,36,37
 544.113 640.881 544.113 640.881 490 641 c 2,38,-1
 263.5 641.5 l 2,31,32
139 375 m 18,39,40
 131.41 333.995 131.41 333.995 179.333 325.332 c 16,41,-1
 223.666 366.668 l 1,42,-1
 260.166 553.832 l 1,43,-1
 213 603 l 1,44,45
 179.621 594.467 179.621 594.467 175 569.5 c 2,46,-1
 139 375 l 18,39,40
543 365 m 18,47,48
 537.389 332.02 537.389 332.02 488.998 328.001 c 16,49,-1
 455.622 365.788 l 1,50,-1
 488 553 l 1,51,-1
 549 598.5 l 1,52,53
 581.279 590.005 581.279 590.005 574.621 550.87 c 2,54,-1
 543 365 l 18,47,48
EndSplineSet
EndChar

StartChar: z
Encoding: 122 122 93
Width: 614
GlyphClass: 2
Flags: W
LayerCount: 2
Fore
SplineSet
485 427 m 1,0,-1
 485 390 l 1,1,-1
 175 42 l 1,2,-1
 459 42 l 1,3,-1
 459 99 l 2,4,5
 459 127 459 127 480 127 c 0,6,7
 500 127 500 127 501 99 c 2,8,-1
 501 0 l 1,9,-1
 118 0 l 1,10,-1
 118 37 l 1,11,-1
 426 385 l 1,12,-1
 169 385 l 1,13,-1
 169 329 l 2,14,15
 169 301 169 301 148 301 c 0,16,17
 126 301 126 301 127 329 c 2,18,-1
 127 427 l 1,19,-1
 485 427 l 1,0,-1
EndSplineSet
EndChar

StartChar: braceleft
Encoding: 123 123 94
Width: 614
GlyphClass: 2
Flags: W
LayerCount: 2
Fore
SplineSet
413 598 m 0,0,1
 413 585 413 585 392 579.5 c 128,-1,2
 371 574 371 574 350.5 560.5 c 128,-1,3
 330 547 330 547 330 511 c 2,4,-1
 330 334 l 2,5,6
 330 302 330 302 320 283 c 128,-1,7
 310 264 310 264 285 246 c 1,8,9
 311 228 311 228 320.5 208.5 c 128,-1,10
 330 189 330 189 330 158 c 2,11,-1
 330 -19 l 2,12,13
 330 -47 330 -47 342.5 -62.5 c 128,-1,14
 355 -78 355 -78 371 -81 c 128,-1,15
 387 -84 387 -84 400 -89.5 c 128,-1,16
 413 -95 413 -95 413 -106 c 0,17,18
 413 -126 413 -126 388 -127 c 0,19,20
 346 -127 346 -127 317 -96 c 128,-1,21
 288 -65 288 -65 288 -19 c 2,22,-1
 288 158 l 2,23,24
 288 187 288 187 274.5 202 c 128,-1,25
 261 217 261 217 244.5 219.5 c 128,-1,26
 228 222 228 222 215 227.5 c 128,-1,27
 202 233 202 233 202 246 c 0,28,29
 202 257 202 257 215 263 c 128,-1,30
 228 269 228 269 244.5 271.5 c 128,-1,31
 261 274 261 274 274.5 290 c 128,-1,32
 288 306 288 306 288 334 c 2,33,-1
 288 511 l 2,34,35
 288 556 288 556 317 587 c 128,-1,36
 346 618 346 618 388 618 c 0,37,38
 413 618 413 618 413 598 c 0,0,1
EndSplineSet
EndChar

StartChar: bar
Encoding: 124 124 95
Width: 614
GlyphClass: 2
Flags: W
LayerCount: 2
Fore
SplineSet
328 591 m 2,0,-1
 328 -99 l 2,1,2
 328 -127 328 -127 307.5 -127 c 128,-1,3
 287 -127 287 -127 287 -99 c 2,4,-1
 287 591 l 2,5,6
 287 619 287 619 307.5 619 c 128,-1,7
 328 619 328 619 328 591 c 2,0,-1
EndSplineSet
EndChar

StartChar: braceright
Encoding: 125 125 96
Width: 614
GlyphClass: 2
Flags: W
LayerCount: 2
Fore
SplineSet
202 -106 m 0,0,1
 202 -93 202 -93 223 -88 c 128,-1,2
 244 -83 244 -83 264.5 -69 c 128,-1,3
 285 -55 285 -55 285 -19 c 2,4,-1
 285 158 l 2,5,6
 285 190 285 190 294.5 208.5 c 128,-1,7
 304 227 304 227 330 246 c 1,8,9
 304 264 304 264 294.5 283 c 128,-1,10
 285 302 285 302 285 334 c 2,11,-1
 285 511 l 2,12,13
 285 539 285 539 272 554 c 128,-1,14
 259 569 259 569 243 572 c 128,-1,15
 227 575 227 575 214.5 581 c 128,-1,16
 202 587 202 587 202 598 c 0,17,18
 202 618 202 618 226 618 c 0,19,20
 268 618 268 618 297.5 587 c 128,-1,21
 327 556 327 556 327 511 c 2,22,-1
 327 334 l 2,23,24
 327 305 327 305 340 289.5 c 128,-1,25
 353 274 353 274 369.5 271.5 c 128,-1,26
 386 269 386 269 399.5 263.5 c 128,-1,27
 413 258 413 258 413 246 c 0,28,29
 413 235 413 235 399.5 228.5 c 128,-1,30
 386 222 386 222 369.5 219.5 c 128,-1,31
 353 217 353 217 340 201 c 128,-1,32
 327 185 327 185 327 158 c 2,33,-1
 327 -19 l 2,34,35
 327 -64 327 -64 297.5 -95.5 c 128,-1,36
 268 -127 268 -127 226 -127 c 0,37,38
 202 -126 202 -126 202 -106 c 0,0,1
EndSplineSet
EndChar

StartChar: asciitilde
Encoding: 126 126 97
Width: 614
GlyphClass: 2
Flags: W
LayerCount: 2
Fore
SplineSet
395 259 m 0,0,1
 418 259 418 259 439.5 279 c 128,-1,2
 461 299 461 299 476.5 318.5 c 128,-1,3
 492 338 492 338 500 338 c 128,-1,4
 508 338 508 338 514 332.5 c 128,-1,5
 520 327 520 327 520 318 c 0,6,7
 520 299 520 299 478 258 c 128,-1,8
 436 217 436 217 398 217 c 0,9,10
 367 217 367 217 333.5 241.5 c 128,-1,11
 300 266 300 266 270 290 c 128,-1,12
 240 314 240 314 217 314 c 0,13,14
 198 314 198 314 181.5 302 c 128,-1,15
 165 290 165 290 155.5 275 c 128,-1,16
 146 260 146 260 135 248 c 128,-1,17
 124 236 124 236 114 236 c 0,18,19
 107 236 107 236 100.5 242 c 128,-1,20
 94 248 94 248 94 255 c 0,21,22
 94 272 94 272 133 314 c 128,-1,23
 172 356 172 356 217 356 c 0,24,25
 248 356 248 356 283 331.5 c 128,-1,26
 318 307 318 307 348.5 283 c 128,-1,27
 379 259 379 259 395 259 c 0,0,1
EndSplineSet
EndChar

StartChar: exclamdown
Encoding: 161 161 99
Width: 614
GlyphClass: 2
Flags: W
LayerCount: 2
Fore
SplineSet
268 -113 m 2,0,-1
 287 221 l 2,1,2
 288 250 288 250 308 250 c 0,3,4
 327 250 327 250 329 221 c 2,5,-1
 347 -113 l 2,6,7
 348 -120 348 -120 348 -129 c 0,8,9
 348 -146 348 -146 336.5 -157.5 c 128,-1,10
 325 -169 325 -169 307 -169 c 0,11,12
 291 -169 291 -169 279 -157 c 128,-1,13
 267 -145 267 -145 267 -129 c 1,14,-1
 268 -123 l 2,15,16
 268 -118 268 -118 268 -113 c 2,0,-1
314 377 m 2,17,-1
 301 377 l 2,18,19
 277 377 277 377 261.5 392 c 128,-1,20
 246 407 246 407 246 428.5 c 128,-1,21
 246 450 246 450 262 464.5 c 128,-1,22
 278 479 278 479 301 479 c 2,23,-1
 314 479 l 2,24,25
 337 479 337 479 353 464.5 c 128,-1,26
 369 450 369 450 369 428.5 c 128,-1,27
 369 407 369 407 353 392 c 128,-1,28
 337 377 337 377 314 377 c 2,17,-1
EndSplineSet
EndChar

StartChar: cent
Encoding: 162 162 100
Width: 614
GlyphClass: 2
Flags: W
LayerCount: 2
Fore
SplineSet
116 318 m 0,0,1
 116 337 116 337 122 360 c 128,-1,2
 128 383 128 383 144 414 c 128,-1,3
 160 445 160 445 196.5 471 c 128,-1,4
 233 497 233 497 287 508 c 1,5,-1
 287 617 l 2,6,7
 287 645 287 645 308 645 c 0,8,9
 328 645 328 645 329 617 c 2,10,-1
 329 509 l 1,11,12
 394 509 394 509 435 472 c 1,13,14
 440 489 440 489 456 489 c 0,15,16
 478 489 478 489 477 464 c 2,17,-1
 477 401 l 2,18,19
 477 372 477 372 457 373 c 0,20,21
 440 373 440 373 436 396 c 0,22,23
 431 429 431 429 399.5 449 c 128,-1,24
 368 469 368 469 318 469 c 0,25,26
 248 469 248 469 203 426.5 c 128,-1,27
 158 384 158 384 158 318 c 0,28,29
 158 253 158 253 202.5 211 c 128,-1,30
 247 169 247 169 314 169 c 0,31,32
 359 169 359 169 389.5 182 c 128,-1,33
 420 195 420 195 436 207.5 c 128,-1,34
 452 220 452 220 461 220 c 0,35,36
 480 220 480 220 480 199.5 c 128,-1,37
 480 179 480 179 430 155.5 c 128,-1,38
 380 132 380 132 329 130 c 1,39,-1
 329 14 l 2,40,41
 329 -14 329 -14 308 -13 c 0,42,43
 286 -13 286 -13 287 14 c 2,44,-1
 287 130 l 1,45,46
 212 138 212 138 164 191.5 c 128,-1,47
 116 245 116 245 116 318 c 0,0,1
EndSplineSet
EndChar

StartChar: sterling
Encoding: 163 163 101
Width: 614
GlyphClass: 2
Flags: W
LayerCount: 2
Fore
SplineSet
203 445 m 0,0,1
 203 419 203 419 230 322 c 1,2,-1
 332 322 l 2,3,4
 360 322 360 322 359 300 c 0,5,6
 359 280 359 280 332 280 c 2,7,-1
 240 280 l 1,8,9
 245 244 245 244 245 221 c 0,10,11
 245 115 245 115 186 42 c 1,12,-1
 444 42 l 2,13,14
 463 42 463 42 474 54 c 128,-1,15
 485 66 485 66 487.5 80 c 128,-1,16
 490 94 490 94 496 106 c 128,-1,17
 502 118 502 118 512 118 c 0,18,19
 532 118 532 118 532 95 c 0,20,21
 532 56 532 56 507 28 c 128,-1,22
 482 0 482 0 446 0 c 2,23,-1
 116 0 l 2,24,25
 88 0 88 0 88 22 c 0,26,27
 88 41 88 41 111 41 c 1,28,29
 147 43 147 43 175 99 c 128,-1,30
 203 155 203 155 203 225 c 0,31,32
 203 253 203 253 199 280 c 1,33,-1
 92 280 l 2,34,35
 64 280 64 280 65 301 c 0,36,37
 65 321 65 321 92 322 c 2,38,-1
 188 322 l 1,39,40
 160 409 160 409 161 445 c 0,41,42
 161 505 161 505 203.5 548.5 c 128,-1,43
 246 592 246 592 305 592 c 0,44,45
 357 592 357 592 397 559 c 128,-1,46
 437 526 437 526 437 507 c 0,47,48
 437 500 437 500 430.5 493.5 c 128,-1,49
 424 487 424 487 417 487 c 128,-1,50
 410 487 410 487 396.5 502.5 c 128,-1,51
 383 518 383 518 360 534 c 128,-1,52
 337 550 337 550 306 550 c 0,53,54
 264 550 264 550 233.5 518.5 c 128,-1,55
 203 487 203 487 203 445 c 0,0,1
EndSplineSet
EndChar

StartChar: currency
Encoding: 164 164 102
Width: 614
GlyphClass: 2
Flags: W
LayerCount: 2
Fore
SplineSet
204 166 m 1,0,-1
 145 109 l 2,1,2
 135 98 135 98 127 97 c 0,3,4
 118 97 118 97 111.5 103.5 c 128,-1,5
 105 110 105 110 105 118 c 0,6,7
 105 127 105 127 117 138 c 2,8,-1
 174 196 l 1,9,10
 138 244 138 244 138 299 c 0,11,12
 138 359 138 359 173 403 c 1,13,-1
 117 461 l 2,14,15
 106 471 106 471 105 480 c 0,16,17
 105 488 105 488 111.5 494.5 c 128,-1,18
 118 501 118 501 126 501 c 128,-1,19
 134 501 134 501 145 489 c 2,20,-1
 203 433 l 1,21,22
 248 469 248 469 307 469 c 0,23,24
 365 469 365 469 412 433 c 1,25,-1
 468 489 l 2,26,27
 479 500 479 500 488 501 c 0,28,29
 496 501 496 501 502.5 494.5 c 128,-1,30
 509 488 509 488 509 479 c 0,31,32
 509 471 509 471 499 461 c 2,33,-1
 442 403 l 1,34,35
 477 355 477 355 477 300 c 0,36,37
 477 241 477 241 441 196 c 1,38,-1
 498 138 l 2,39,40
 508 128 508 128 508 118 c 0,41,42
 508 110 508 110 502 103.5 c 128,-1,43
 496 97 496 97 487 97 c 0,44,45
 478 97 478 97 468 109 c 2,46,-1
 411 166 l 1,47,48
 363 130 363 130 307 130 c 0,49,50
 251 130 251 130 204 166 c 1,0,-1
307 427 m 0,51,52
 255 427 255 427 217.5 389.5 c 128,-1,53
 180 352 180 352 180 300 c 0,54,55
 180 247 180 247 217.5 209.5 c 128,-1,56
 255 172 255 172 307 172 c 0,57,58
 358 172 358 172 396 209.5 c 128,-1,59
 434 247 434 247 434 298 c 0,60,61
 434 352 434 352 397 389.5 c 128,-1,62
 360 427 360 427 307 427 c 0,51,52
EndSplineSet
EndChar

StartChar: yen
Encoding: 165 165 103
Width: 614
GlyphClass: 2
Flags: W
LayerCount: 2
Fore
SplineSet
329 244 m 1,0,-1
 329 182 l 1,1,-1
 463 182 l 2,2,3
 485 182 485 182 484 164 c 0,4,5
 484 145 484 145 463 144 c 2,6,-1
 329 144 l 1,7,-1
 329 42 l 1,8,-1
 417 42 l 2,9,10
 445 42 445 42 444 22 c 0,11,12
 444 0 444 0 417 0 c 2,13,-1
 199 0 l 2,14,15
 171 0 171 0 171 22 c 0,16,17
 171 42 171 42 199 42 c 2,18,-1
 287 42 l 1,19,-1
 287 144 l 1,20,-1
 154 144 l 2,21,22
 131 144 131 144 131 164 c 0,23,24
 131 182 131 182 154 182 c 2,25,-1
 287 182 l 1,26,-1
 287 244 l 1,27,-1
 154 244 l 2,28,29
 131 244 131 244 131 263 c 0,30,31
 131 281 131 281 154 282 c 2,32,-1
 272 282 l 1,33,-1
 104 535 l 1,34,-1
 80 535 l 2,35,36
 52 535 52 535 52 556 c 0,37,38
 52 576 52 576 80 577 c 2,39,-1
 193 577 l 2,40,41
 221 577 221 577 220 556 c 0,42,43
 220 534 220 534 193 535 c 2,44,-1
 153 535 l 1,45,-1
 307 302 l 1,46,-1
 462 535 l 1,47,-1
 422 535 l 2,48,49
 394 535 394 535 394 556 c 0,50,51
 394 576 394 576 422 577 c 2,52,-1
 535 577 l 2,53,54
 563 577 563 577 562 556 c 0,55,56
 562 534 562 534 535 535 c 2,57,-1
 510 535 l 1,58,-1
 342 282 l 1,59,-1
 463 282 l 2,60,61
 485 282 485 282 484 263 c 0,62,63
 484 244 484 244 463 244 c 2,64,-1
 329 244 l 1,0,-1
EndSplineSet
EndChar

StartChar: brokenbar
Encoding: 166 166 104
Width: 614
GlyphClass: 2
Flags: W
LayerCount: 2
Fore
SplineSet
328 591 m 2,0,-1
 328 317 l 2,1,2
 328 289 328 289 307.5 289.5 c 128,-1,3
 287 290 287 290 287 317 c 2,4,-1
 287 591 l 2,5,6
 287 619 287 619 307.5 619 c 128,-1,7
 328 619 328 619 328 591 c 2,0,-1
328 174 m 2,8,-1
 328 -99 l 2,9,10
 328 -127 328 -127 307.5 -127 c 128,-1,11
 287 -127 287 -127 287 -99 c 2,12,-1
 287 174 l 2,13,14
 287 202 287 202 307.5 202 c 128,-1,15
 328 202 328 202 328 174 c 2,8,-1
EndSplineSet
EndChar

StartChar: section
Encoding: 167 167 105
Width: 614
GlyphClass: 2
Flags: W
LayerCount: 2
Fore
SplineSet
547 189 m 0,0,1
 547 115 547 115 442 103 c 1,2,3
 455 80 455 80 456 53 c 0,4,5
 456 3 456 3 417 -30 c 128,-1,6
 378 -63 378 -63 319 -63 c 2,7,-1
 108 -63 l 1,8,-1
 108 50 l 2,9,10
 108 75 108 75 129 75 c 0,11,12
 149 75 149 75 150 50 c 2,13,-1
 150 -23 l 1,14,-1
 318 -23 l 2,15,16
 359 -23 359 -23 386.5 -0.5 c 128,-1,17
 414 22 414 22 414 54 c 0,18,19
 414 81 414 81 383.5 109.5 c 128,-1,20
 353 138 353 138 280 179 c 2,21,-1
 213 216 l 1,22,23
 68 298 68 298 68 367 c 0,24,25
 68 402 68 402 96.5 424.5 c 128,-1,26
 125 447 125 447 173 452 c 1,27,28
 160 475 160 475 160 499 c 0,29,30
 160 547 160 547 199 582 c 128,-1,31
 238 617 238 617 291 617 c 2,32,-1
 508 617 l 1,33,-1
 508 506 l 2,34,35
 508 481 508 481 487 481 c 0,36,37
 465 481 465 481 466 506 c 2,38,-1
 466 577 l 1,39,-1
 294 577 l 2,40,41
 256 577 256 577 228.5 553.5 c 128,-1,42
 201 530 201 530 201 499 c 0,43,44
 201 470 201 470 231.5 443.5 c 128,-1,45
 262 417 262 417 353 367 c 2,46,-1
 411 335 l 2,47,48
 483 296 483 296 515 261.5 c 128,-1,49
 547 227 547 227 547 189 c 0,0,1
410 142 m 1,50,51
 414 144 414 144 440 148 c 128,-1,52
 466 152 466 152 484.5 160.5 c 128,-1,53
 503 169 503 169 503 188 c 0,54,55
 503 211 503 211 473 240.5 c 128,-1,56
 443 270 443 270 393 297 c 1,57,-1
 328 334 l 1,58,59
 242 381 242 381 206 413 c 1,60,61
 200 412 200 412 187 412 c 0,62,63
 154 412 154 412 133 398.5 c 128,-1,64
 112 385 112 385 112 366 c 0,65,66
 112 322 112 322 240 249 c 2,67,-1
 303 213 l 2,68,69
 385 167 385 167 410 142 c 1,50,51
EndSplineSet
EndChar

StartChar: dieresis
Encoding: 168 168 106
Width: 614
GlyphClass: 2
Flags: W
LayerCount: 2
Fore
SplineSet
195 626 m 0,0,1
 217 626 217 626 231.5 610.5 c 128,-1,2
 246 595 246 595 246 573 c 0,3,4
 246 553 246 553 230.5 538 c 128,-1,5
 215 523 215 523 194.5 523 c 128,-1,6
 174 523 174 523 158.5 538.5 c 128,-1,7
 143 554 143 554 143 574.5 c 128,-1,8
 143 595 143 595 159 610.5 c 128,-1,9
 175 626 175 626 195 626 c 0,0,1
421 626 m 0,10,11
 443 626 443 626 457.5 610.5 c 128,-1,12
 472 595 472 595 472 573 c 0,13,14
 472 553 472 553 456.5 538 c 128,-1,15
 441 523 441 523 420.5 523 c 128,-1,16
 400 523 400 523 385 538.5 c 128,-1,17
 370 554 370 554 370 574.5 c 128,-1,18
 370 595 370 595 385.5 610.5 c 128,-1,19
 401 626 401 626 421 626 c 0,10,11
EndSplineSet
EndChar

StartChar: copyright
Encoding: 169 169 107
Width: 614
GlyphClass: 2
Flags: W
LayerCount: 2
Fore
SplineSet
435 189 m 0,0,1
 435 180 435 180 420.5 162.5 c 128,-1,2
 406 145 406 145 375 129.5 c 128,-1,3
 344 114 344 114 309 114 c 0,4,5
 249 114 249 114 203 160 c 128,-1,6
 157 206 157 206 157 266 c 2,7,-1
 157 312 l 2,8,9
 157 373 157 373 199 417 c 128,-1,10
 241 461 241 461 299 461 c 0,11,12
 343 461 343 461 390 431 c 1,13,14
 390 454 390 454 408.5 454 c 128,-1,15
 427 454 427 454 427 433 c 2,16,-1
 427 367 l 2,17,18
 427 347 427 347 409 346 c 0,19,20
 394 346 394 346 390 366 c 1,21,22
 388 390 388 390 361.5 407 c 128,-1,23
 335 424 335 424 300 424 c 0,24,25
 256 424 256 424 225 390.5 c 128,-1,26
 194 357 194 357 194 309 c 2,27,-1
 194 269 l 2,28,29
 194 221 194 221 228 186 c 128,-1,30
 262 151 262 151 309 151 c 0,31,32
 335 151 335 151 354.5 159.5 c 128,-1,33
 374 168 374 168 383 178.5 c 128,-1,34
 392 189 392 189 401.5 198 c 128,-1,35
 411 207 411 207 418 207 c 128,-1,36
 425 207 425 207 430 201.5 c 128,-1,37
 435 196 435 196 435 189 c 0,0,1
307 592 m 0,38,39
 432 592 432 592 521 503 c 128,-1,40
 610 414 610 414 610 289 c 0,41,42
 610 161 610 161 521 73 c 128,-1,43
 432 -15 432 -15 303 -15 c 0,44,45
 180 -15 180 -15 91.5 74.5 c 128,-1,46
 3 164 3 164 3 289 c 128,-1,47
 3 414 3 414 92 503 c 128,-1,48
 181 592 181 592 307 592 c 0,38,39
307 550 m 0,49,50
 198 550 198 550 121.5 473.5 c 128,-1,51
 45 397 45 397 45 289 c 0,52,53
 45 181 45 181 121.5 104 c 128,-1,54
 198 27 198 27 303 27 c 0,55,56
 415 27 415 27 491.5 103 c 128,-1,57
 568 179 568 179 568 289 c 0,58,59
 568 397 568 397 491.5 473.5 c 128,-1,60
 415 550 415 550 307 550 c 0,49,50
EndSplineSet
EndChar

StartChar: ordfeminine
Encoding: 170 170 108
Width: 614
GlyphClass: 2
Flags: W
LayerCount: 2
Fore
SplineSet
194 546 m 0,0,1
 194 564 194 564 237.5 576 c 128,-1,2
 281 588 281 588 305 588 c 0,3,4
 350 588 350 588 379 564 c 128,-1,5
 408 540 408 540 408 502 c 2,6,-1
 408 327 l 1,7,-1
 434 327 l 2,8,9
 458 327 458 327 458 307 c 0,10,11
 458 289 458 289 434 289 c 2,12,-1
 370 289 l 1,13,-1
 370 315 l 1,14,15
 315 285 315 285 260 286 c 0,16,17
 215 286 215 286 187 308.5 c 128,-1,18
 159 331 159 331 159 367 c 0,19,20
 159 411 159 411 197.5 438.5 c 128,-1,21
 236 466 236 466 295 466 c 0,22,23
 324 466 324 466 370 457 c 1,24,-1
 370 502 l 2,25,26
 370 524 370 524 351.5 537 c 128,-1,27
 333 550 333 550 303 550 c 0,28,29
 281 550 281 550 247 538 c 128,-1,30
 213 526 213 526 211 526 c 0,31,32
 204 526 204 526 199 532 c 128,-1,33
 194 538 194 538 194 546 c 0,0,1
370 358 m 1,34,-1
 370 419 l 1,35,36
 340 430 340 430 297 430 c 0,37,38
 253 430 253 430 225 411.5 c 128,-1,39
 197 393 197 393 197 365 c 0,40,41
 197 347 197 347 214 335.5 c 128,-1,42
 231 324 231 324 260 324 c 0,43,44
 317 323 317 323 370 358 c 1,34,-1
EndSplineSet
EndChar

StartChar: guillemotleft
Encoding: 171 171 109
Width: 614
GlyphClass: 2
Flags: W
LayerCount: 2
Fore
SplineSet
65 214 m 1,0,-1
 278 416 l 2,1,2
 289 427 289 427 299 427 c 0,3,4
 307 427 307 427 313 421 c 128,-1,5
 319 415 319 415 319 406.5 c 128,-1,6
 319 398 319 398 308 386 c 2,7,-1
 162 214 l 1,8,-1
 308 41 l 2,9,10
 319 29 319 29 319 20.5 c 128,-1,11
 319 12 319 12 313 6 c 128,-1,12
 307 0 307 0 299 0 c 128,-1,13
 291 0 291 0 278 11 c 2,14,-1
 65 214 l 1,0,-1
299 214 m 1,15,-1
 512 416 l 2,16,17
 523 427 523 427 534 427 c 0,18,19
 542 427 542 427 548 421 c 128,-1,20
 554 415 554 415 554 406.5 c 128,-1,21
 554 398 554 398 543 386 c 2,22,-1
 396 214 l 1,23,-1
 543 41 l 2,24,25
 554 29 554 29 554 20.5 c 128,-1,26
 554 12 554 12 548 6 c 128,-1,27
 542 0 542 0 533.5 0 c 128,-1,28
 525 0 525 0 512 11 c 2,29,-1
 299 214 l 1,15,-1
EndSplineSet
EndChar

StartChar: logicalnot
Encoding: 172 172 110
Width: 614
GlyphClass: 2
Flags: W
LayerCount: 2
Fore
SplineSet
499 407 m 1,0,-1
 101 407 l 2,1,2
 73 407 73 407 74 428 c 0,3,4
 74 448 74 448 101 449 c 2,5,-1
 541 449 l 1,6,-1
 541 200 l 2,7,8
 541 172 541 172 519 172 c 0,9,10
 499 172 499 172 499 200 c 2,11,-1
 499 407 l 1,0,-1
EndSplineSet
EndChar

StartChar: registered
Encoding: 174 174 112
Width: 614
GlyphClass: 2
Flags: W
LayerCount: 2
Fore
SplineSet
239 264 m 1,0,-1
 239 160 l 1,1,-1
 275 160 l 2,2,3
 295 160 295 160 295.5 141.5 c 128,-1,4
 296 123 296 123 275 123 c 2,5,-1
 177 123 l 2,6,7
 155 123 155 123 155.5 141.5 c 128,-1,8
 156 160 156 160 177 160 c 2,9,-1
 202 160 l 1,10,-1
 202 417 l 1,11,-1
 177 417 l 2,12,13
 155 417 155 417 155.5 435.5 c 128,-1,14
 156 454 156 454 177 454 c 2,15,-1
 318 454 l 2,16,17
 365 454 365 454 395.5 427 c 128,-1,18
 426 400 426 400 426 358 c 0,19,20
 426 329 426 329 406.5 307 c 128,-1,21
 387 285 387 285 354 275 c 1,22,23
 380 256 380 256 395 235.5 c 128,-1,24
 410 215 410 215 441 160 c 1,25,-1
 457 160 l 2,26,27
 477 160 477 160 477 141.5 c 128,-1,28
 477 123 477 123 457 123 c 2,29,-1
 417 123 l 1,30,31
 359 245 359 245 303 264 c 1,32,-1
 239 264 l 1,0,-1
239 301 m 1,33,-1
 296 301 l 2,34,35
 339 301 339 301 364 317 c 128,-1,36
 389 333 389 333 389 360 c 0,37,38
 389 385 389 385 369 401 c 128,-1,39
 349 417 349 417 317 417 c 2,40,-1
 239 417 l 1,41,-1
 239 301 l 1,33,-1
307 592 m 0,42,43
 432 592 432 592 521 503 c 128,-1,44
 610 414 610 414 610 289 c 0,45,46
 610 161 610 161 521 73 c 128,-1,47
 432 -15 432 -15 303 -15 c 0,48,49
 180 -15 180 -15 91.5 74.5 c 128,-1,50
 3 164 3 164 3 289 c 128,-1,51
 3 414 3 414 92 503 c 128,-1,52
 181 592 181 592 307 592 c 0,42,43
307 550 m 0,53,54
 198 550 198 550 121.5 473.5 c 128,-1,55
 45 397 45 397 45 289 c 0,56,57
 45 181 45 181 121.5 104 c 128,-1,58
 198 27 198 27 303 27 c 0,59,60
 415 27 415 27 491.5 103 c 128,-1,61
 568 179 568 179 568 289 c 0,62,63
 568 397 568 397 491.5 473.5 c 128,-1,64
 415 550 415 550 307 550 c 0,53,54
EndSplineSet
EndChar

StartChar: macron
Encoding: 175 175 113
Width: 614
GlyphClass: 2
Flags: W
LayerCount: 2
Fore
SplineSet
428 549 m 2,0,-1
 186 549 l 2,1,2
 158 549 158 549 158.5 569.5 c 128,-1,3
 159 590 159 590 186 590 c 2,4,-1
 428 590 l 2,5,6
 456 590 456 590 456 569.5 c 128,-1,7
 456 549 456 549 428 549 c 2,0,-1
EndSplineSet
EndChar

StartChar: degree
Encoding: 176 176 114
Width: 614
GlyphClass: 2
Flags: W
LayerCount: 2
Fore
SplineSet
307 651 m 0,0,1
 368 651 368 651 412 607.5 c 128,-1,2
 456 564 456 564 456 502.5 c 128,-1,3
 456 441 456 441 412.5 397.5 c 128,-1,4
 369 354 369 354 307 354 c 0,5,6
 245 354 245 354 202 397.5 c 128,-1,7
 159 441 159 441 159 505 c 0,8,9
 159 564 159 564 203 607.5 c 128,-1,10
 247 651 247 651 307 651 c 0,0,1
307 609 m 128,-1,12
 263 609 263 609 232 578 c 128,-1,13
 201 547 201 547 201 504 c 0,14,15
 201 459 201 459 232 427.5 c 128,-1,16
 263 396 263 396 307 396 c 128,-1,17
 351 396 351 396 382.5 427.5 c 128,-1,18
 414 459 414 459 414 503 c 128,-1,19
 414 547 414 547 382.5 578 c 128,-1,11
 351 609 351 609 307 609 c 128,-1,12
EndSplineSet
EndChar

StartChar: plusminus
Encoding: 177 177 115
Width: 614
GlyphClass: 2
Flags: W
LayerCount: 2
Fore
SplineSet
328 308 m 1,0,-1
 328 142 l 2,1,2
 328 114 328 114 307 115 c 0,3,4
 285 115 285 115 286 142 c 2,5,-1
 286 308 l 1,6,-1
 101 308 l 2,7,8
 73 308 73 308 73.5 328.5 c 128,-1,9
 74 349 74 349 101 349 c 2,10,-1
 286 349 l 1,11,-1
 286 514 l 2,12,13
 286 542 286 542 307 542 c 0,14,15
 327 542 327 542 328 514 c 2,16,-1
 328 349 l 1,17,-1
 512 349 l 2,18,19
 541 349 541 349 541 328.5 c 128,-1,20
 541 308 541 308 512 308 c 2,21,-1
 328 308 l 1,0,-1
101 41 m 2,22,-1
 513 41 l 2,23,24
 541 41 541 41 541 20.5 c 128,-1,25
 541 0 541 0 513 0 c 2,26,-1
 101 0 l 2,27,28
 73 0 73 0 73 20.5 c 128,-1,29
 73 41 73 41 101 41 c 2,22,-1
EndSplineSet
EndChar

StartChar: twosuperior
Encoding: 178 178 116
Width: 614
GlyphClass: 2
Flags: W
LayerCount: 2
Fore
SplineSet
190 538 m 0,0,1
 190 565 190 565 223 596 c 128,-1,2
 256 627 256 627 302 627 c 0,3,4
 346 627 346 627 379.5 596 c 128,-1,5
 413 565 413 565 413 523 c 0,6,7
 413 490 413 490 382.5 455 c 128,-1,8
 352 420 352 420 224 302 c 1,9,-1
 378 302 l 1,10,-1
 378 305 l 2,11,12
 378 325 378 325 396.5 325.5 c 128,-1,13
 415 326 415 326 415 305 c 2,14,-1
 415 265 l 1,15,-1
 179 265 l 1,16,-1
 179 309 l 1,17,-1
 314 435 l 1,18,19
 353 474 353 474 364.5 490.5 c 128,-1,20
 376 507 376 507 376 523 c 0,21,22
 376 550 376 550 354 570 c 128,-1,23
 332 590 332 590 302 590 c 0,24,25
 275 590 275 590 254 575 c 128,-1,26
 233 560 233 560 226 537 c 0,27,28
 222 521 222 521 208 520 c 0,29,30
 201 520 201 520 195.5 525.5 c 128,-1,31
 190 531 190 531 190 538 c 0,0,1
EndSplineSet
EndChar

StartChar: threesuperior
Encoding: 179 179 117
Width: 614
GlyphClass: 2
Flags: W
LayerCount: 2
Fore
SplineSet
307 590 m 0,0,1
 285 590 285 590 269 584 c 128,-1,2
 253 578 253 578 246.5 571 c 128,-1,3
 240 564 240 564 233 558 c 128,-1,4
 226 552 226 552 220 552 c 0,5,6
 213 552 213 552 207.5 557 c 128,-1,7
 202 562 202 562 202 569 c 0,8,9
 202 588 202 588 237 607.5 c 128,-1,10
 272 627 272 627 307 627 c 0,11,12
 352 627 352 627 383 599.5 c 128,-1,13
 414 572 414 572 414 532 c 0,14,15
 414 488 414 488 367 457 c 1,16,17
 426 420 426 420 426 367 c 0,18,19
 426 322 426 322 389.5 289.5 c 128,-1,20
 353 257 353 257 302 257 c 0,21,22
 264 257 264 257 224.5 275.5 c 128,-1,23
 185 294 185 294 185 311 c 0,24,25
 185 318 185 318 190.5 323.5 c 128,-1,26
 196 329 196 329 203 329 c 0,27,28
 206 329 206 329 235.5 311.5 c 128,-1,29
 265 294 265 294 302 294 c 0,30,31
 337 294 337 294 363 315.5 c 128,-1,32
 389 337 389 337 389 367 c 0,33,34
 389 398 389 398 362.5 419 c 128,-1,35
 336 440 336 440 295 441 c 1,36,37
 273 443 273 443 273 460 c 0,38,39
 273 471 273 471 281.5 474.5 c 128,-1,40
 290 478 290 478 311 478 c 0,41,42
 340 478 340 478 358.5 493.5 c 128,-1,43
 377 509 377 509 377 532 c 0,44,45
 377 557 377 557 357 573.5 c 128,-1,46
 337 590 337 590 307 590 c 0,0,1
EndSplineSet
EndChar

StartChar: acute
Encoding: 180 180 118
Width: 614
GlyphClass: 2
Flags: W
LayerCount: 2
Fore
SplineSet
443 613 m 2,0,-1
 327 511 l 1,1,2
 315 502 315 502 307 502 c 0,3,4
 299 502 299 502 293 508 c 128,-1,5
 287 514 287 514 287 523 c 0,6,7
 287 531 287 531 299 543 c 2,8,-1
 416 645 l 1,9,10
 428 654 428 654 435 654 c 0,11,12
 443 654 443 654 449.5 648 c 128,-1,13
 456 642 456 642 456 633 c 0,14,15
 455 624 455 624 443 613 c 2,0,-1
EndSplineSet
EndChar

StartChar: micro
Encoding: 181 181 119
Width: 614
GlyphClass: 2
Flags: W
LayerCount: 2
Fore
SplineSet
169 16 m 1,0,-1
 169 -177 l 2,1,2
 169 -205 169 -205 147 -205 c 0,3,4
 127 -205 127 -205 127 -177 c 2,5,-1
 127 386 l 1,6,-1
 72 386 l 2,7,8
 44 386 44 386 44 406.5 c 128,-1,9
 44 427 44 427 72 427 c 2,10,-1
 169 427 l 1,11,-1
 169 118 l 2,12,13
 169 76 169 76 195 50.5 c 128,-1,14
 221 25 221 25 262 25 c 0,15,16
 365 25 365 25 450 118 c 1,17,-1
 450 386 l 1,18,-1
 374 386 l 2,19,20
 345 386 345 386 345 406.5 c 128,-1,21
 345 427 345 427 374 427 c 2,22,-1
 492 427 l 1,23,-1
 492 41 l 1,24,-1
 526 41 l 2,25,26
 554 41 554 41 554 20.5 c 128,-1,27
 554 0 554 0 526 0 c 2,28,-1
 450 0 l 1,29,-1
 450 60 l 1,30,31
 368 -17 368 -17 264 -16 c 0,32,33
 206 -17 206 -17 169 16 c 1,0,-1
EndSplineSet
EndChar

StartChar: paragraph
Encoding: 182 182 120
Width: 614
GlyphClass: 2
Flags: W
LayerCount: 2
Fore
SplineSet
291 266 m 1,0,1
 197 272 197 272 139 313 c 128,-1,2
 81 354 81 354 81 416 c 2,3,-1
 81 464 l 2,4,5
 81 533 81 533 143 575.5 c 128,-1,6
 205 618 205 618 305 618 c 2,7,-1
 510 618 l 2,8,9
 536 618 536 618 536 598 c 0,10,11
 536 576 536 576 510 577 c 2,12,-1
 447 577 l 1,13,-1
 447 -22 l 1,14,-1
 511 -22 l 2,15,16
 538 -22 538 -22 538 -42 c 0,17,18
 538 -64 538 -64 511 -63 c 2,19,-1
 411 -63 l 2,20,21
 385 -63 385 -63 385 -42 c 0,22,23
 385 -24 385 -24 407 -22 c 1,24,-1
 407 577 l 1,25,-1
 333 577 l 1,26,-1
 333 -22 l 1,27,28
 355 -24 355 -24 354 -42 c 0,29,30
 354 -64 354 -64 329 -63 c 2,31,-1
 191 -63 l 2,32,33
 164 -63 164 -63 165 -42 c 0,34,35
 165 -22 165 -22 191 -22 c 2,36,-1
 291 -22 l 1,37,-1
 291 266 l 1,0,1
291 314 m 1,38,-1
 291 571 l 1,39,40
 232 565 232 565 192.5 534 c 128,-1,41
 153 503 153 503 153 462 c 2,42,-1
 153 424 l 2,43,44
 153 383 153 383 192.5 351.5 c 128,-1,45
 232 320 232 320 291 314 c 1,38,-1
EndSplineSet
EndChar

StartChar: middot
Encoding: 183 183 121
Width: 614
GlyphClass: 2
Flags: W
LayerCount: 2
Fore
SplineSet
307 287 m 0,0,1
 329 287 329 287 343.5 271.5 c 128,-1,2
 358 256 358 256 358 234 c 0,3,4
 358 214 358 214 343 199 c 128,-1,5
 328 184 328 184 307.5 184 c 128,-1,6
 287 184 287 184 271.5 199.5 c 128,-1,7
 256 215 256 215 256 235.5 c 128,-1,8
 256 256 256 256 271.5 271.5 c 128,-1,9
 287 287 287 287 307 287 c 0,0,1
EndSplineSet
EndChar

StartChar: cedilla
Encoding: 184 184 122
Width: 614
GlyphClass: 2
Flags: W
LayerCount: 2
Fore
SplineSet
236 -117 m 0,0,1
 240 -117 240 -117 262.5 -127.5 c 128,-1,2
 285 -138 285 -138 303 -138 c 0,3,4
 322 -138 322 -138 335 -130 c 128,-1,5
 348 -122 348 -122 348 -109 c 0,6,7
 348 -83 348 -83 301 -83 c 2,8,-1
 281 -83 l 1,9,-1
 281 0 l 1,10,-1
 319 0 l 1,11,-1
 319 -48 l 1,12,13
 386 -50 386 -50 386 -111 c 0,14,15
 386 -141 386 -141 363.5 -159 c 128,-1,16
 341 -177 341 -177 305 -177 c 0,17,18
 278 -177 278 -177 246.5 -165.5 c 128,-1,19
 215 -154 215 -154 215 -136 c 0,20,21
 215 -128 215 -128 221.5 -122.5 c 128,-1,22
 228 -117 228 -117 236 -117 c 0,0,1
EndSplineSet
EndChar

StartChar: onesuperior
Encoding: 185 185 123
Width: 614
GlyphClass: 2
Flags: W
LayerCount: 2
Fore
SplineSet
327 623 m 1,0,-1
 327 298 l 1,1,-1
 399 298 l 2,2,3
 419 298 419 298 419.5 279.5 c 128,-1,4
 420 261 420 261 399 261 c 2,5,-1
 217 261 l 2,6,7
 195 261 195 261 196 280 c 0,8,9
 196 299 196 299 227 299 c 0,10,11
 267 299 267 299 290 298 c 1,12,-1
 290 572 l 1,13,-1
 223 551 l 2,14,15
 215 549 215 549 214 549 c 0,16,17
 208 549 208 549 202.5 554.5 c 128,-1,18
 197 560 197 560 197 567 c 0,19,20
 197 578 197 578 213.5 585.5 c 128,-1,21
 230 593 230 593 327 623 c 1,0,-1
EndSplineSet
EndChar

StartChar: ordmasculine
Encoding: 186 186 124
Width: 614
GlyphClass: 2
Flags: W
LayerCount: 2
Fore
SplineSet
308 591 m 0,0,1
 371 591 371 591 415 547 c 128,-1,2
 459 503 459 503 459 439 c 0,3,4
 459 379 459 379 414.5 335 c 128,-1,5
 370 291 370 291 308 291 c 0,6,7
 246 291 246 291 202 335 c 128,-1,8
 158 379 158 379 158 441 c 0,9,10
 158 502 158 502 202 546.5 c 128,-1,11
 246 591 246 591 308 591 c 0,0,1
308 553 m 128,-1,13
 261 553 261 553 228.5 520 c 128,-1,14
 196 487 196 487 196 441 c 0,15,16
 196 394 196 394 229 361.5 c 128,-1,17
 262 329 262 329 308 329 c 128,-1,18
 354 329 354 329 387.5 361.5 c 128,-1,19
 421 394 421 394 421 439 c 0,20,21
 421 487 421 487 388 520 c 128,-1,12
 355 553 355 553 308 553 c 128,-1,13
EndSplineSet
EndChar

StartChar: guillemotright
Encoding: 187 187 125
Width: 614
GlyphClass: 2
Flags: W
LayerCount: 2
Fore
SplineSet
318 213 m 1,0,-1
 106 11 l 2,1,2
 95 0 95 0 85 0 c 0,3,4
 77 0 77 0 71 6 c 128,-1,5
 65 12 65 12 65 20.5 c 128,-1,6
 65 29 65 29 76 41 c 2,7,-1
 221 213 l 1,8,-1
 76 386 l 2,9,10
 65 398 65 398 65 406.5 c 128,-1,11
 65 415 65 415 71 421 c 128,-1,12
 77 427 77 427 85 427 c 128,-1,13
 93 427 93 427 106 416 c 1,14,-1
 318 213 l 1,0,-1
554 213 m 1,15,-1
 342 11 l 2,16,17
 331 0 331 0 321 0 c 0,18,19
 313 0 313 0 306.5 6 c 128,-1,20
 300 12 300 12 300 20.5 c 128,-1,21
 300 29 300 29 311 41 c 2,22,-1
 457 213 l 1,23,-1
 311 386 l 2,24,25
 300 398 300 398 300 406.5 c 128,-1,26
 300 415 300 415 306 421 c 128,-1,27
 312 427 312 427 320.5 427 c 128,-1,28
 329 427 329 427 342 416 c 1,29,-1
 554 213 l 1,15,-1
EndSplineSet
EndChar

StartChar: onequarter
Encoding: 188 188 126
Width: 614
GlyphClass: 2
Flags: W
LayerCount: 2
Fore
SplineSet
147 627 m 1,0,-1
 147 302 l 1,1,-1
 220 302 l 2,2,3
 242 302 242 302 242 283.5 c 128,-1,4
 242 265 242 265 220 265 c 2,5,-1
 38 265 l 2,6,7
 16 265 16 265 16 284 c 0,8,9
 16 303 16 303 48 303 c 0,10,11
 88 303 88 303 111 302 c 1,12,-1
 111 577 l 1,13,-1
 44 555 l 2,14,15
 36 553 36 553 35 553 c 0,16,17
 29 553 29 553 23 558.5 c 128,-1,18
 17 564 17 564 17 571 c 0,19,20
 17 582 17 582 33.5 589.5 c 128,-1,21
 50 597 50 597 147 627 c 1,0,-1
504 488 m 2,22,-1
 144 65 l 2,23,24
 134 53 134 53 126 52.5 c 128,-1,25
 118 52 118 52 111.5 58.5 c 128,-1,26
 105 65 105 65 105 73 c 0,27,28
 105 80 105 80 115 90 c 2,29,-1
 473 514 l 2,30,31
 484 526 484 526 492 526 c 0,32,33
 500 526 500 526 506 520 c 128,-1,34
 512 514 512 514 512 506 c 0,35,36
 512 498 512 498 504 488 c 2,22,-1
464 18 m 0,37,38
 464 30 464 30 473 33.5 c 128,-1,39
 482 37 482 37 511 37 c 2,40,-1
 522 37 l 1,41,-1
 522 95 l 1,42,-1
 370 95 l 1,43,-1
 370 130 l 1,44,-1
 501 353 l 1,45,-1
 559 353 l 1,46,-1
 559 132 l 1,47,-1
 572 132 l 2,48,49
 594 132 594 132 594 113.5 c 128,-1,50
 594 95 594 95 568 95 c 2,51,-1
 559 95 l 1,52,-1
 559 37 l 1,53,-1
 572 37 l 2,54,55
 594 37 594 37 594 18.5 c 128,-1,56
 594 0 594 0 572 0 c 2,57,-1
 485 0 l 2,58,59
 464 0 464 0 464 18 c 0,37,38
522 132 m 1,60,-1
 522 316 l 1,61,-1
 520 316 l 1,62,-1
 411 132 l 1,63,-1
 522 132 l 1,60,-1
EndSplineSet
EndChar

StartChar: onehalf
Encoding: 189 189 127
Width: 614
GlyphClass: 2
Flags: W
LayerCount: 2
Fore
SplineSet
497 488 m 2,0,-1
 137 65 l 2,1,2
 127 53 127 53 119 52.5 c 128,-1,3
 111 52 111 52 104.5 58.5 c 128,-1,4
 98 65 98 65 98 73 c 0,5,6
 98 80 98 80 108 90 c 2,7,-1
 466 514 l 2,8,9
 477 526 477 526 484 526 c 0,10,11
 492 526 492 526 498.5 520 c 128,-1,12
 505 514 505 514 505 506 c 0,13,14
 505 498 505 498 497 488 c 2,0,-1
155 627 m 1,15,-1
 155 302 l 1,16,-1
 227 302 l 2,17,18
 247 302 247 302 247.5 283.5 c 128,-1,19
 248 265 248 265 227 265 c 2,20,-1
 45 265 l 2,21,22
 23 265 23 265 24 284 c 0,23,24
 24 303 24 303 55 303 c 0,25,26
 95 303 95 303 118 302 c 1,27,-1
 118 577 l 1,28,-1
 51 555 l 2,29,30
 43 553 43 553 42 553 c 0,31,32
 36 553 36 553 30.5 558.5 c 128,-1,33
 25 564 25 564 25 571 c 0,34,35
 25 582 25 582 41.5 589.5 c 128,-1,36
 58 597 58 597 155 627 c 1,15,-1
362 272 m 0,37,38
 362 299 362 299 395 330 c 128,-1,39
 428 361 428 361 474 361 c 0,40,41
 518 361 518 361 551.5 330.5 c 128,-1,42
 585 300 585 300 585 258 c 0,43,44
 585 225 585 225 554.5 190 c 128,-1,45
 524 155 524 155 396 37 c 1,46,-1
 550 37 l 1,47,-1
 550 40 l 2,48,49
 550 60 550 60 568.5 60 c 128,-1,50
 587 60 587 60 587 40 c 2,51,-1
 587 0 l 1,52,-1
 351 0 l 1,53,-1
 351 44 l 1,54,-1
 486 170 l 1,55,56
 525 209 525 209 536.5 225.5 c 128,-1,57
 548 242 548 242 548 258 c 0,58,59
 548 285 548 285 526 305 c 128,-1,60
 504 325 504 325 474 325 c 0,61,62
 447 325 447 325 426.5 310 c 128,-1,63
 406 295 406 295 398 271 c 0,64,65
 394 255 394 255 380 255 c 0,66,67
 373 255 373 255 367.5 260 c 128,-1,68
 362 265 362 265 362 272 c 0,37,38
EndSplineSet
EndChar

StartChar: threequarters
Encoding: 190 190 128
Width: 614
GlyphClass: 2
Flags: W
LayerCount: 2
Fore
SplineSet
128 590 m 0,0,1
 106 590 106 590 90 584 c 128,-1,2
 74 578 74 578 67 571 c 128,-1,3
 60 564 60 564 53.5 558 c 128,-1,4
 47 552 47 552 41 552 c 0,5,6
 34 552 34 552 28.5 557 c 128,-1,7
 23 562 23 562 23 569 c 0,8,9
 23 588 23 588 58 607.5 c 128,-1,10
 93 627 93 627 128 627 c 0,11,12
 173 627 173 627 203.5 599.5 c 128,-1,13
 234 572 234 572 234 532 c 0,14,15
 234 488 234 488 187 457 c 1,16,17
 246 420 246 420 247 367 c 0,18,19
 247 322 247 322 210.5 289.5 c 128,-1,20
 174 257 174 257 123 257 c 0,21,22
 85 257 85 257 45.5 275.5 c 128,-1,23
 6 294 6 294 6 311 c 0,24,25
 6 318 6 318 11 323.5 c 128,-1,26
 16 329 16 329 24 329 c 0,27,28
 27 329 27 329 56.5 311.5 c 128,-1,29
 86 294 86 294 123 294 c 0,30,31
 158 294 158 294 184 315.5 c 128,-1,32
 210 337 210 337 210 367 c 0,33,34
 210 398 210 398 183.5 419 c 128,-1,35
 157 440 157 440 116 441 c 1,36,37
 94 443 94 443 94 460 c 0,38,39
 94 471 94 471 102.5 474.5 c 128,-1,40
 111 478 111 478 132 478 c 0,41,42
 161 478 161 478 179.5 493.5 c 128,-1,43
 198 509 198 509 198 532 c 0,44,45
 198 557 198 557 178 573.5 c 128,-1,46
 158 590 158 590 128 590 c 0,0,1
503 488 m 2,47,-1
 143 65 l 2,48,49
 133 53 133 53 125 52.5 c 128,-1,50
 117 52 117 52 110.5 58.5 c 128,-1,51
 104 65 104 65 104 73 c 0,52,53
 104 80 104 80 114 90 c 2,54,-1
 472 514 l 2,55,56
 483 526 483 526 490 526 c 0,57,58
 498 526 498 526 504.5 520 c 128,-1,59
 511 514 511 514 511 506 c 0,60,61
 511 498 511 498 503 488 c 2,47,-1
464 18 m 0,62,63
 464 30 464 30 473 33.5 c 128,-1,64
 482 37 482 37 511 37 c 2,65,-1
 522 37 l 1,66,-1
 522 95 l 1,67,-1
 370 95 l 1,68,-1
 370 130 l 1,69,-1
 501 353 l 1,70,-1
 559 353 l 1,71,-1
 559 132 l 1,72,-1
 572 132 l 2,73,74
 594 132 594 132 594 113.5 c 128,-1,75
 594 95 594 95 568 95 c 2,76,-1
 559 95 l 1,77,-1
 559 37 l 1,78,-1
 572 37 l 2,79,80
 594 37 594 37 594 18.5 c 128,-1,81
 594 0 594 0 572 0 c 2,82,-1
 485 0 l 2,83,84
 464 0 464 0 464 18 c 0,62,63
522 132 m 1,85,-1
 522 316 l 1,86,-1
 520 316 l 1,87,-1
 411 132 l 1,88,-1
 522 132 l 1,85,-1
EndSplineSet
EndChar

StartChar: questiondown
Encoding: 191 191 129
Width: 614
GlyphClass: 2
Flags: W
LayerCount: 2
Fore
SplineSet
477 -129 m 1,0,1
 376 -179 376 -179 298 -179 c 0,2,3
 216 -179 216 -179 166 -135.5 c 128,-1,4
 116 -92 116 -92 116 -22 c 0,5,6
 116 35 116 35 152 74.5 c 128,-1,7
 188 114 188 114 285 159 c 1,8,-1
 285 201 l 2,9,10
 285 229 285 229 305 228 c 0,11,12
 327 228 327 228 327 201 c 2,13,-1
 327 131 l 1,14,15
 238 94 238 94 198 58.5 c 128,-1,16
 158 23 158 23 158 -22 c 0,17,18
 158 -73 158 -73 199 -105 c 128,-1,19
 240 -137 240 -137 303 -137 c 0,20,21
 364 -137 364 -137 435 -102 c 1,22,-1
 435 -60 l 2,23,24
 435 -32 435 -32 456 -33 c 0,25,26
 478 -33 478 -33 477 -60 c 2,27,-1
 477 -129 l 1,0,1
321 325 m 2,28,-1
 293 325 l 2,29,30
 267 325 267 325 250.5 339 c 128,-1,31
 234 353 234 353 234 375.5 c 128,-1,32
 234 398 234 398 250.5 412.5 c 128,-1,33
 267 427 267 427 293 427 c 2,34,-1
 321 427 l 2,35,36
 348 427 348 427 363.5 412.5 c 128,-1,37
 379 398 379 398 379 375.5 c 128,-1,38
 379 353 379 353 363.5 339 c 128,-1,39
 348 325 348 325 321 325 c 2,28,-1
EndSplineSet
EndChar

StartChar: AE
Encoding: 198 198 136
Width: 614
GlyphClass: 2
Flags: W
LayerCount: 2
Fore
SplineSet
304 194 m 1,0,-1
 160 194 l 1,1,-1
 118 42 l 1,2,-1
 144 42 l 2,3,4
 172 42 172 42 172 22 c 0,5,6
 172 0 172 0 144 0 c 2,7,-1
 38 0 l 2,8,9
 10 0 10 0 10 22 c 0,10,11
 10 42 10 42 38 42 c 2,12,-1
 76 42 l 1,13,-1
 212 535 l 1,14,-1
 147 535 l 2,15,16
 119 535 119 535 120 556 c 0,17,18
 120 576 120 576 147 577 c 2,19,-1
 584 577 l 1,20,-1
 584 421 l 2,21,22
 584 393 584 393 562 393 c 0,23,24
 542 393 542 393 542 421 c 2,25,-1
 542 535 l 1,26,-1
 346 535 l 1,27,-1
 346 322 l 1,28,-1
 426 322 l 1,29,-1
 426 350 l 2,30,31
 426 378 426 378 446.5 378 c 128,-1,32
 467 378 467 378 467 350 c 2,33,-1
 467 252 l 2,34,35
 467 224 467 224 446.5 224 c 128,-1,36
 426 224 426 224 426 252 c 2,37,-1
 426 280 l 1,38,-1
 346 280 l 1,39,-1
 346 42 l 1,40,-1
 562 42 l 1,41,-1
 562 137 l 2,42,43
 562 164 562 164 583 164 c 0,44,45
 605 164 605 164 604 137 c 2,46,-1
 604 0 l 1,47,-1
 251 0 l 2,48,49
 223 0 223 0 223 22 c 0,50,51
 223 42 223 42 251 42 c 2,52,-1
 304 42 l 1,53,-1
 304 194 l 1,0,-1
304 236 m 1,54,-1
 304 535 l 1,55,-1
 253 535 l 1,56,-1
 171 236 l 1,57,-1
 304 236 l 1,54,-1
EndSplineSet
EndChar

StartChar: Ccedilla
Encoding: 199 199 137
Width: 614
GlyphClass: 2
Flags: W
LayerCount: 2
Fore
SplineSet
65 333 m 2,0,1
 65 352 65 352 70.5 380.5 c 128,-1,2
 76 409 76 409 93.5 446.5 c 128,-1,3
 111 484 111 484 136.5 515 c 128,-1,4
 162 546 162 546 208 568 c 128,-1,5
 254 590 254 590 312 590 c 0,6,7
 415 590 415 590 489 519 c 1,8,-1
 489 549 l 2,9,10
 489 577 489 577 511 577 c 0,11,12
 531 577 531 577 531 549 c 2,13,-1
 531 434 l 2,14,15
 531 406 531 406 510 407 c 0,16,17
 492 407 492 407 489 431 c 0,18,19
 486 478 486 478 433.5 513 c 128,-1,20
 381 548 381 548 312 548 c 0,21,22
 227 548 227 548 166.5 483 c 128,-1,23
 106 418 106 418 106 327 c 2,24,-1
 106 254 l 2,25,26
 106 162 106 162 173 94 c 128,-1,27
 240 26 240 26 330 26 c 0,28,29
 383 26 383 26 425 47.5 c 128,-1,30
 467 69 467 69 508 118 c 0,31,32
 517 128 517 128 526 128 c 0,33,34
 546 128 546 128 547 109 c 0,35,36
 547 93 547 93 508 56 c 0,37,38
 472 23 472 23 426 3.5 c 128,-1,39
 380 -16 380 -16 338 -16 c 2,40,-1
 325 -16 l 1,41,-1
 325 -48 l 1,42,43
 392 -50 392 -50 391 -111 c 0,44,45
 391 -141 391 -141 368.5 -159 c 128,-1,46
 346 -177 346 -177 310 -177 c 0,47,48
 283 -177 283 -177 251.5 -165.5 c 128,-1,49
 220 -154 220 -154 220 -136 c 0,50,51
 220 -128 220 -128 226 -122.5 c 128,-1,52
 232 -117 232 -117 241 -117 c 0,53,54
 245 -117 245 -117 267.5 -127.5 c 128,-1,55
 290 -138 290 -138 308 -138 c 0,56,57
 327 -138 327 -138 340 -130 c 128,-1,58
 353 -122 353 -122 353 -109 c 0,59,60
 353 -83 353 -83 306 -83 c 2,61,-1
 286 -83 l 1,62,-1
 286 -12 l 1,63,64
 175 16 175 16 120 92.5 c 128,-1,65
 65 169 65 169 65 248 c 2,66,-1
 65 333 l 2,0,1
EndSplineSet
EndChar

StartChar: Eth
Encoding: 208 208 146
Width: 614
GlyphClass: 2
Flags: W
LayerCount: 2
Fore
SplineSet
106 279 m 1,0,-1
 28 279 l 2,1,2
 0 279 0 279 0 300 c 0,3,4
 0 320 0 320 28 321 c 2,5,-1
 106 321 l 1,6,-1
 106 535 l 1,7,-1
 72 535 l 2,8,9
 44 535 44 535 44 556 c 0,10,11
 44 576 44 576 72 577 c 2,12,-1
 297 577 l 2,13,14
 393 577 393 577 462.5 500.5 c 128,-1,15
 532 424 532 424 532 317 c 2,16,-1
 532 260 l 2,17,18
 532 154 532 154 462.5 77 c 128,-1,19
 393 0 393 0 297 0 c 2,20,-1
 72 0 l 2,21,22
 44 0 44 0 44 22 c 0,23,24
 44 42 44 42 72 42 c 2,25,-1
 106 42 l 1,26,-1
 106 279 l 1,0,-1
490 327 m 2,27,28
 490 342 490 342 485 364.5 c 128,-1,29
 480 387 480 387 466.5 418 c 128,-1,30
 453 449 453 449 432 474 c 128,-1,31
 411 499 411 499 375 517 c 128,-1,32
 339 535 339 535 295 535 c 2,33,-1
 148 535 l 1,34,-1
 148 321 l 1,35,-1
 314 321 l 2,36,37
 342 321 342 321 342 300 c 0,38,39
 342 278 342 278 314 279 c 2,40,-1
 148 279 l 1,41,-1
 148 42 l 1,42,-1
 302 42 l 2,43,44
 375 42 375 42 432.5 106 c 128,-1,45
 490 170 490 170 490 251 c 2,46,-1
 490 327 l 2,27,28
EndSplineSet
EndChar

StartChar: multiply
Encoding: 215 215 153
Width: 614
GlyphClass: 2
Flags: W
LayerCount: 2
Fore
SplineSet
307 318 m 1,0,-1
 453 464 l 2,1,2
 464 475 464 475 472 475 c 128,-1,3
 480 475 480 475 487 469 c 128,-1,4
 494 463 494 463 494 454 c 0,5,6
 494 446 494 446 482 434 c 2,7,-1
 337 289 l 1,8,-1
 482 142 l 2,9,10
 493 132 493 132 494 123 c 0,11,12
 494 115 494 115 487.5 108.5 c 128,-1,13
 481 102 481 102 472 102 c 128,-1,14
 463 102 463 102 453 113 c 2,15,-1
 307 259 l 1,16,-1
 162 113 l 2,17,18
 151 103 151 103 142 102 c 0,19,20
 133 102 133 102 127 108.5 c 128,-1,21
 121 115 121 115 121 123 c 0,22,23
 121 132 121 132 131 142 c 2,24,-1
 278 289 l 1,25,-1
 131 434 l 2,26,27
 121 445 121 445 121 454 c 0,28,29
 121 463 121 463 127 469 c 128,-1,30
 133 475 133 475 142 475 c 0,31,32
 149 475 149 475 161 464 c 2,33,-1
 307 318 l 1,0,-1
EndSplineSet
EndChar

StartChar: Oslash
Encoding: 216 216 154
Width: 614
GlyphClass: 2
Flags: W
LayerCount: 2
Fore
SplineSet
144 52 m 1,0,-1
 78 -32 l 2,1,2
 69 -44 69 -44 59 -44 c 0,3,4
 51 -44 51 -44 46 -38.5 c 128,-1,5
 41 -33 41 -33 41 -26 c 0,6,7
 41 -20 41 -20 49 -9 c 2,8,-1
 120 80 l 1,9,10
 52 170 52 170 52 287 c 0,11,12
 52 414 52 414 126.5 502 c 128,-1,13
 201 590 201 590 307 590 c 0,14,15
 395 590 395 590 469 522 c 1,16,-1
 537 607 l 2,17,18
 546 619 546 619 555 620 c 0,19,20
 563 620 563 620 568 614 c 128,-1,21
 573 608 573 608 573 601 c 0,22,23
 573 596 573 596 565 585 c 2,24,-1
 494 495 l 1,25,26
 563 410 563 410 562 287 c 0,27,28
 562 160 562 160 488 72 c 128,-1,29
 414 -16 414 -16 307 -16 c 0,30,31
 215 -17 215 -17 144 52 c 1,0,-1
147 115 m 1,32,-1
 442 487 l 1,33,34
 382 547 382 547 307 548 c 0,35,36
 219 548 219 548 156.5 471 c 128,-1,37
 94 394 94 394 94 287 c 0,38,39
 94 194 94 194 147 115 c 1,32,-1
467 460 m 1,40,-1
 171 86 l 1,41,42
 231 26 231 26 307 26 c 0,43,44
 395 26 395 26 457.5 102.5 c 128,-1,45
 520 179 520 179 520 287 c 0,46,47
 520 383 520 383 467 460 c 1,40,-1
EndSplineSet
EndChar

StartChar: Thorn
Encoding: 222 222 160
Width: 614
GlyphClass: 2
Flags: W
LayerCount: 2
Fore
SplineSet
169 114 m 1,0,-1
 169 42 l 1,1,-1
 310 42 l 2,2,3
 339 42 339 42 339 22 c 0,4,5
 339 0 339 0 310 0 c 2,6,-1
 72 0 l 2,7,8
 44 0 44 0 44 22 c 0,9,10
 44 42 44 42 72 42 c 2,11,-1
 127 42 l 1,12,-1
 127 535 l 1,13,-1
 72 535 l 2,14,15
 44 535 44 535 44 556 c 0,16,17
 44 576 44 576 72 577 c 2,18,-1
 310 577 l 2,19,20
 339 577 339 577 339 556 c 0,21,22
 339 534 339 534 310 535 c 2,23,-1
 169 535 l 1,24,-1
 169 454 l 1,25,-1
 317 454 l 2,26,27
 399 454 399 454 455 405 c 128,-1,28
 511 356 511 356 511 284.5 c 128,-1,29
 511 213 511 213 450.5 163.5 c 128,-1,30
 390 114 390 114 303 114 c 2,31,-1
 169 114 l 1,0,-1
169 156 m 1,32,-1
 306 156 l 2,33,34
 373 156 373 156 421 193.5 c 128,-1,35
 469 231 469 231 469 285 c 0,36,37
 469 337 469 337 425.5 374.5 c 128,-1,38
 382 412 382 412 322 412 c 2,39,-1
 169 412 l 1,40,-1
 169 156 l 1,32,-1
EndSplineSet
EndChar

StartChar: germandbls
Encoding: 223 223 161
Width: 614
GlyphClass: 2
Flags: W
LayerCount: 2
Fore
SplineSet
469 166 m 0,0,1
 469 215 469 215 447 252 c 128,-1,2
 425 289 425 289 392.5 307.5 c 128,-1,3
 360 326 360 326 332.5 334 c 128,-1,4
 305 342 305 342 286 342 c 2,5,-1
 281 342 l 2,6,7
 253 342 253 342 253 364 c 0,8,9
 253 384 253 384 276 384 c 2,10,-1
 282 384 l 2,11,12
 321 384 321 384 350.5 410 c 128,-1,13
 380 436 380 436 380 470 c 0,14,15
 380 514 380 514 348 545.5 c 128,-1,16
 316 577 316 577 272 577 c 0,17,18
 229 577 229 577 199 551 c 128,-1,19
 169 525 169 525 169 487 c 2,20,-1
 169 42 l 1,21,-1
 184 42 l 2,22,23
 212 42 212 42 212 22 c 0,24,25
 212 0 212 0 184 0 c 2,26,-1
 72 0 l 2,27,28
 44 0 44 0 44 22 c 0,29,30
 44 42 44 42 72 42 c 2,31,-1
 127 42 l 1,32,-1
 127 487 l 2,33,34
 127 541 127 541 169.5 579.5 c 128,-1,35
 212 618 212 618 272 618 c 0,36,37
 334 618 334 618 378 574.5 c 128,-1,38
 422 531 422 531 422 469 c 0,39,40
 422 408 422 408 362 368 c 1,41,42
 510 308 510 308 511 165 c 0,43,44
 511 87 511 87 471.5 35.5 c 128,-1,45
 432 -16 432 -16 374 -16 c 0,46,47
 328 -16 328 -16 296.5 18 c 128,-1,48
 265 52 265 52 265 103 c 0,49,50
 265 127 265 127 286 127 c 0,51,52
 297 127 297 127 303 111 c 128,-1,53
 309 95 309 95 312 76 c 128,-1,54
 315 57 315 57 330.5 41.5 c 128,-1,55
 346 26 346 26 374 26 c 0,56,57
 414 26 414 26 441.5 66.5 c 128,-1,58
 469 107 469 107 469 166 c 0,0,1
EndSplineSet
EndChar

StartChar: ae
Encoding: 230 230 168
Width: 614
GlyphClass: 2
Flags: W
LayerCount: 2
Fore
SplineSet
73 387 m 0,0,1
 73 409 73 409 123 425 c 128,-1,2
 173 441 173 441 204 441 c 0,3,4
 242 441 242 441 273.5 417.5 c 128,-1,5
 305 394 305 394 319 355 c 1,6,7
 337 395 337 395 370 418 c 128,-1,8
 403 441 403 441 440 441 c 0,9,10
 515 441 515 441 552 377 c 128,-1,11
 589 313 589 313 591 204 c 1,12,-1
 327 204 l 1,13,14
 332 126 332 126 369 76 c 128,-1,15
 406 26 406 26 457 26 c 0,16,17
 483 26 483 26 506 41.5 c 128,-1,18
 529 57 529 57 546 73 c 128,-1,19
 563 89 563 89 571.5 89 c 128,-1,20
 580 89 580 89 586 83 c 128,-1,21
 592 77 592 77 592 69 c 0,22,23
 592 52 592 52 544.5 18 c 128,-1,24
 497 -16 497 -16 455 -16 c 0,25,26
 379 -16 379 -16 328 62 c 1,27,-1
 328 28 l 2,28,29
 328 0 328 0 307.5 0 c 128,-1,30
 287 0 287 0 287 28 c 2,31,-1
 287 53 l 1,32,33
 230 -17 230 -17 164 -16.5 c 128,-1,34
 98 -16 98 -16 55 27 c 128,-1,35
 12 70 12 70 12 135 c 0,36,37
 12 190 12 190 67 226.5 c 128,-1,38
 122 263 122 263 200 263 c 0,39,40
 242 263 242 263 287 251 c 1,41,-1
 287 312 l 2,42,43
 287 348 287 348 260.5 373.5 c 128,-1,44
 234 399 234 399 197 399 c 0,45,46
 160 399 160 399 128 383 c 128,-1,47
 96 367 96 367 92 367 c 0,48,49
 85 367 85 367 79 373.5 c 128,-1,50
 73 380 73 380 73 387 c 0,0,1
287 113 m 1,51,-1
 287 208 l 1,52,53
 242 221 242 221 206 221 c 0,54,55
 173 221 173 221 135 209 c 128,-1,56
 97 197 97 197 80 180 c 0,57,58
 58 158 58 158 58 124 c 0,59,60
 58 81 58 81 88.5 53.5 c 128,-1,61
 119 26 119 26 166 26 c 0,62,63
 218 26 218 26 287 113 c 1,51,-1
548 246 m 1,64,65
 544 276 544 276 540 295.5 c 128,-1,66
 536 315 536 315 524.5 342.5 c 128,-1,67
 513 370 513 370 491.5 384.5 c 128,-1,68
 470 399 470 399 439 399 c 0,69,70
 348 399 348 399 328 246 c 1,71,-1
 548 246 l 1,64,65
EndSplineSet
EndChar

StartChar: ccedilla
Encoding: 231 231 169
Width: 614
GlyphClass: 2
Flags: W
LayerCount: 2
Fore
SplineSet
548 90 m 0,0,1
 548 83 548 83 539.5 71.5 c 128,-1,2
 531 60 531 60 512.5 46 c 128,-1,3
 494 32 494 32 468.5 18.5 c 128,-1,4
 443 5 443 5 405 -4.5 c 128,-1,5
 367 -14 367 -14 323 -16 c 1,6,-1
 323 -48 l 1,7,8
 390 -50 390 -50 389 -111 c 0,9,10
 389 -141 389 -141 366.5 -159 c 128,-1,11
 344 -177 344 -177 308 -177 c 0,12,13
 281 -177 281 -177 249.5 -165 c 128,-1,14
 218 -153 218 -153 218 -137 c 0,15,16
 218 -129 218 -129 224 -123 c 128,-1,17
 230 -117 230 -117 239 -117 c 0,18,19
 243 -117 243 -117 265.5 -127.5 c 128,-1,20
 288 -138 288 -138 306 -138 c 0,21,22
 325 -138 325 -138 338 -130 c 128,-1,23
 351 -122 351 -122 351 -109 c 0,24,25
 351 -83 351 -83 305 -83 c 2,26,-1
 284 -83 l 1,27,-1
 284 -14 l 1,28,29
 233 -7 233 -7 194.5 14.5 c 128,-1,30
 156 36 156 36 136 61 c 128,-1,31
 116 86 116 86 104 118 c 128,-1,32
 92 150 92 150 89 170 c 128,-1,33
 86 190 86 190 86 209 c 0,34,35
 86 310 86 310 152.5 375.5 c 128,-1,36
 219 441 219 441 322 441 c 0,37,38
 417 441 417 441 481 385 c 1,39,-1
 481 398 l 2,40,41
 481 427 481 427 503 427 c 0,42,43
 523 427 523 427 523 398 c 2,44,-1
 523 305 l 2,45,46
 523 277 523 277 502.5 277.5 c 128,-1,47
 482 278 482 278 481 302 c 1,48,49
 477 343 477 343 430 371 c 128,-1,50
 383 399 383 399 318 399 c 0,51,52
 233 399 233 399 180.5 346.5 c 128,-1,53
 128 294 128 294 128 210 c 0,54,55
 128 129 128 129 181 77.5 c 128,-1,56
 234 26 234 26 318 26 c 0,57,58
 430 26 430 26 510 99 c 0,59,60
 520 109 520 109 528.5 109.5 c 128,-1,61
 537 110 537 110 542.5 104 c 128,-1,62
 548 98 548 98 548 90 c 0,0,1
EndSplineSet
EndChar

StartChar: eth
Encoding: 240 240 178
Width: 614
GlyphClass: 2
Flags: W
LayerCount: 2
Fore
SplineSet
284 562 m 1,0,1
 258 573 258 573 234.5 581 c 128,-1,2
 211 589 211 589 199 591.5 c 128,-1,3
 187 594 187 594 178 596.5 c 128,-1,4
 169 599 169 599 166 602 c 128,-1,5
 163 605 163 605 163 612 c 0,6,7
 163 622 163 622 169 628.5 c 128,-1,8
 175 635 175 635 184 635 c 0,9,10
 232 635 232 635 336 586 c 1,11,-1
 433 629 l 1,12,-1
 440 630 l 1,13,14
 448 630 448 630 454 623.5 c 128,-1,15
 460 617 460 617 460 608 c 0,16,17
 460 595 460 595 451 591 c 2,18,-1
 374 556 l 1,19,20
 451 490 451 490 496 400.5 c 128,-1,21
 541 311 541 311 541 226 c 0,22,23
 541 115 541 115 473.5 49 c 128,-1,24
 406 -17 406 -17 307 -17 c 0,25,26
 210 -17 210 -17 142 49.5 c 128,-1,27
 74 116 74 116 74 212 c 0,28,29
 74 306 74 306 141.5 373 c 128,-1,30
 209 440 209 440 305 440 c 0,31,32
 347 440 347 440 380 428 c 128,-1,33
 413 416 413 416 455 386 c 1,34,35
 401 487 401 487 331 538 c 1,36,-1
 238 495 l 2,37,38
 236 494 236 494 230 494 c 0,39,40
 222 494 222 494 216 501 c 128,-1,41
 210 508 210 508 210 517 c 0,42,43
 210 530 210 530 219 534 c 2,44,-1
 284 562 l 1,0,1
308 399 m 0,45,46
 228 399 228 399 172.5 345 c 128,-1,47
 117 291 117 291 117 213 c 128,-1,48
 117 135 117 135 172.5 80.5 c 128,-1,49
 228 26 228 26 308 26 c 0,50,51
 387 26 387 26 443.5 80 c 128,-1,52
 500 134 500 134 500 210 c 0,53,54
 500 291 500 291 444.5 345 c 128,-1,55
 389 399 389 399 308 399 c 0,45,46
EndSplineSet
EndChar

StartChar: divide
Encoding: 247 247 185
Width: 614
GlyphClass: 2
Flags: W
LayerCount: 2
Fore
SplineSet
513 268 m 2,0,-1
 101 268 l 2,1,2
 73 268 73 268 73.5 288.5 c 128,-1,3
 74 309 74 309 101 309 c 2,4,-1
 513 309 l 2,5,6
 541 309 541 309 541 288.5 c 128,-1,7
 541 268 541 268 513 268 c 2,0,-1
307 127 m 0,8,9
 329 127 329 127 343.5 112 c 128,-1,10
 358 97 358 97 358 76 c 0,11,12
 358 56 358 56 343 41 c 128,-1,13
 328 26 328 26 307.5 26 c 128,-1,14
 287 26 287 26 272 40.5 c 128,-1,15
 257 55 257 55 257 77 c 0,16,17
 257 97 257 97 272 112 c 128,-1,18
 287 127 287 127 307 127 c 0,8,9
307 553 m 0,19,20
 329 553 329 553 343.5 538 c 128,-1,21
 358 523 358 523 358 502 c 0,22,23
 358 482 358 482 343 467 c 128,-1,24
 328 452 328 452 307.5 452 c 128,-1,25
 287 452 287 452 272 466.5 c 128,-1,26
 257 481 257 481 257 503 c 0,27,28
 257 523 257 523 272 538 c 128,-1,29
 287 553 287 553 307 553 c 0,19,20
EndSplineSet
EndChar

StartChar: oslash
Encoding: 248 248 186
Width: 614
GlyphClass: 2
Flags: W
LayerCount: 2
Fore
SplineSet
158 36 m 1,0,-1
 90 -34 l 2,1,2
 80 -44 80 -44 73 -44 c 128,-1,3
 66 -44 66 -44 60 -38.5 c 128,-1,4
 54 -33 54 -33 54 -25.5 c 128,-1,5
 54 -18 54 -18 65 -8 c 2,6,-1
 132 60 l 1,7,8
 74 128 74 128 74 213 c 0,9,10
 74 308 74 308 142 374.5 c 128,-1,11
 210 441 210 441 307 441 c 0,12,13
 391 441 391 441 455 391 c 1,14,-1
 520 459 l 2,15,16
 531 469 531 469 538.5 469 c 128,-1,17
 546 469 546 469 551 463.5 c 128,-1,18
 556 458 556 458 556 450.5 c 128,-1,19
 556 443 556 443 546 433 c 2,20,-1
 480 367 l 1,21,22
 540 300 540 300 541 212 c 0,23,24
 541 117 541 117 472.5 50.5 c 128,-1,25
 404 -16 404 -16 307 -16 c 0,26,27
 226 -16 226 -16 158 36 c 1,0,-1
452 337 m 1,28,-1
 187 67 l 1,29,30
 239 26 239 26 307 26 c 0,31,32
 387 26 387 26 443 80 c 128,-1,33
 499 134 499 134 499 212 c 0,34,35
 499 282 499 282 452 337 c 1,28,-1
162 91 m 1,36,-1
 425 360 l 1,37,38
 374 399 374 399 307 399 c 0,39,40
 227 399 227 399 171.5 345 c 128,-1,41
 116 291 116 291 116 213 c 0,42,43
 116 143 116 143 162 91 c 1,36,-1
EndSplineSet
EndChar

StartChar: thorn
Encoding: 254 254 192
Width: 614
GlyphClass: 2
Flags: W
LayerCount: 2
Fore
SplineSet
147 604 m 1,0,-1
 147 343 l 1,1,2
 188 396 188 396 230 418.5 c 128,-1,3
 272 441 272 441 331 441 c 0,4,5
 426 441 426 441 490 379 c 128,-1,6
 554 317 554 317 554 226 c 128,-1,7
 554 135 554 135 489.5 72.5 c 128,-1,8
 425 10 425 10 331 10 c 0,9,10
 216 10 216 10 147 109 c 1,11,-1
 147 -148 l 1,12,-1
 248 -148 l 2,13,14
 276 -148 276 -148 275 -169 c 0,15,16
 275 -191 275 -191 248 -190 c 2,17,-1
 50 -190 l 2,18,19
 22 -190 22 -190 23 -169 c 0,20,21
 23 -149 23 -149 50 -148 c 2,22,-1
 105 -148 l 1,23,-1
 105 562 l 1,24,-1
 50 562 l 2,25,26
 22 562 22 562 23 584 c 0,27,28
 23 604 23 604 50 604 c 2,29,-1
 147 604 l 1,0,-1
330 399 m 0,30,31
 254 399 254 399 200.5 348.5 c 128,-1,32
 147 298 147 298 147 226 c 0,33,34
 147 153 147 153 200.5 102.5 c 128,-1,35
 254 52 254 52 330 52 c 128,-1,36
 406 52 406 52 459 102.5 c 128,-1,37
 512 153 512 153 512 224 c 0,38,39
 512 299 512 299 460 349 c 128,-1,40
 408 399 408 399 330 399 c 0,30,31
EndSplineSet
EndChar

StartChar: Aogonek
Encoding: 260 260 198
Width: 614
GlyphClass: 2
Flags: W
LayerCount: 2
Fore
SplineSet
543 -126 m 0,0,1
 566 -126 566 -126 582 -116 c 128,-1,2
 598 -106 598 -106 601 -106 c 0,3,4
 606 -106 606 -106 610.5 -111 c 128,-1,5
 615 -116 615 -116 615 -122 c 0,6,7
 615 -135 615 -135 590 -147 c 128,-1,8
 565 -159 565 -159 537 -159 c 0,9,10
 500 -159 500 -159 479.5 -142.5 c 128,-1,11
 459 -126 459 -126 459 -96 c 0,12,13
 459 -37 459 -37 538 0 c 1,14,-1
 418 0 l 2,15,16
 390 0 390 0 390 22 c 0,17,18
 390 42 390 42 418 42 c 2,19,-1
 496 42 l 1,20,-1
 438 193 l 1,21,-1
 166 193 l 1,22,-1
 111 42 l 1,23,-1
 191 42 l 2,24,25
 219 42 219 42 219 22 c 0,26,27
 219 0 219 0 191 0 c 2,28,-1
 37 0 l 2,29,30
 9 0 9 0 9 22 c 0,31,32
 9 42 9 42 37 42 c 2,33,-1
 69 42 l 1,34,-1
 252 535 l 1,35,-1
 129 535 l 2,36,37
 101 535 101 535 101 556 c 0,38,39
 101 576 101 576 129 577 c 2,40,-1
 338 577 l 1,41,-1
 540 42 l 1,42,-1
 578 42 l 2,43,44
 606 42 606 42 605 22 c 0,45,46
 605 0 605 0 578 0 c 2,47,-1
 586 0 l 1,48,-1
 558 -15 l 2,49,50
 499 -49 499 -49 499 -91 c 0,51,52
 499 -126 499 -126 543 -126 c 0,0,1
423 234 m 1,53,-1
 308 535 l 1,54,-1
 293 535 l 1,55,-1
 182 234 l 1,56,-1
 423 234 l 1,53,-1
EndSplineSet
EndChar

StartChar: aogonek
Encoding: 261 261 199
Width: 614
GlyphClass: 2
Flags: W
LayerCount: 2
Fore
SplineSet
128 387 m 0,0,1
 128 410 128 410 197.5 425.5 c 128,-1,2
 267 441 267 441 306 441 c 0,3,4
 378 441 378 441 424.5 405.5 c 128,-1,5
 471 370 471 370 471 315 c 2,6,-1
 471 42 l 1,7,-1
 526 42 l 2,8,9
 554 42 554 42 554 22 c 0,10,11
 554 13 554 13 538 1.5 c 128,-1,12
 522 -10 522 -10 503 -21 c 128,-1,13
 484 -32 484 -32 468.5 -51 c 128,-1,14
 453 -70 453 -70 453 -91 c 0,15,16
 453 -126 453 -126 497 -126 c 0,17,18
 520 -126 520 -126 536 -116 c 128,-1,19
 552 -106 552 -106 555 -106 c 0,20,21
 560 -106 560 -106 564.5 -111 c 128,-1,22
 569 -116 569 -116 569 -122 c 0,23,24
 569 -135 569 -135 544 -147 c 128,-1,25
 519 -159 519 -159 490 -159 c 0,26,27
 453 -159 453 -159 433 -142.5 c 128,-1,28
 413 -126 413 -126 413 -96 c 0,29,30
 413 -64 413 -64 431 -42 c 128,-1,31
 449 -20 449 -20 492 0 c 1,32,-1
 429 0 l 1,33,-1
 429 69 l 1,34,35
 338 -16 338 -16 233 -16 c 0,36,37
 161 -16 161 -16 117.5 20 c 128,-1,38
 74 56 74 56 74 115 c 0,39,40
 74 182 74 182 134 223 c 128,-1,41
 194 264 194 264 290 264 c 0,42,43
 350 264 350 264 429 243 c 1,44,-1
 429 315 l 2,45,46
 429 353 429 353 394 376 c 128,-1,47
 359 399 359 399 303 399 c 0,48,49
 256 399 256 399 206 383 c 128,-1,50
 156 367 156 367 147.5 367 c 128,-1,51
 139 367 139 367 133.5 373 c 128,-1,52
 128 379 128 379 128 387 c 0,0,1
429 115 m 1,53,-1
 429 207 l 1,54,55
 368 222 368 222 298 222 c 0,56,57
 217 222 217 222 166.5 192 c 128,-1,58
 116 162 116 162 116 114 c 0,59,60
 116 74 116 74 147.5 50 c 128,-1,61
 179 26 179 26 232 26 c 0,62,63
 286 26 286 26 332 46.5 c 128,-1,64
 378 67 378 67 429 115 c 1,53,-1
EndSplineSet
EndChar

StartChar: dcroat
Encoding: 273 273 211
Width: 614
GlyphClass: 2
Flags: W
LayerCount: 2
Fore
SplineSet
514 532 m 1,0,-1
 569 532 l 2,1,2
 597 532 597 532 597 512 c 0,3,4
 597 490 597 490 569 490 c 2,5,-1
 514 490 l 1,6,-1
 514 42 l 1,7,-1
 569 42 l 2,8,9
 597 42 597 42 597 22 c 0,10,11
 597 0 597 0 569 0 c 2,12,-1
 472 0 l 1,13,-1
 472 83 l 1,14,15
 400 -16 400 -16 287 -16 c 0,16,17
 195 -16 195 -16 130 51 c 128,-1,18
 65 118 65 118 65 213 c 0,19,20
 65 307 65 307 130 374 c 128,-1,21
 195 441 195 441 287 441 c 0,22,23
 399 441 399 441 472 343 c 1,24,-1
 472 490 l 1,25,-1
 331 490 l 2,26,27
 303 490 303 490 303 512 c 0,28,29
 303 532 303 532 331 532 c 2,30,-1
 472 532 l 1,31,-1
 472 577 l 1,32,-1
 417 577 l 2,33,34
 389 577 389 577 389 598 c 0,35,36
 389 618 389 618 417 618 c 2,37,-1
 514 618 l 1,38,-1
 514 532 l 1,0,-1
289 399 m 0,39,40
 213 399 213 399 159.5 345 c 128,-1,41
 106 291 106 291 106 213 c 0,42,43
 106 134 106 134 159.5 80 c 128,-1,44
 213 26 213 26 290 26 c 0,45,46
 365 26 365 26 418.5 80 c 128,-1,47
 472 134 472 134 472 210 c 0,48,49
 472 291 472 291 419.5 345 c 128,-1,50
 367 399 367 399 289 399 c 0,39,40
EndSplineSet
EndChar

StartChar: Eogonek
Encoding: 280 280 218
Width: 614
GlyphClass: 2
Flags: W
LayerCount: 2
Fore
SplineSet
488 -126 m 0,0,1
 511 -126 511 -126 527.5 -116 c 128,-1,2
 544 -106 544 -106 547 -106 c 0,3,4
 552 -106 552 -106 556.5 -111 c 128,-1,5
 561 -116 561 -116 561 -122 c 0,6,7
 561 -135 561 -135 536 -147 c 128,-1,8
 511 -159 511 -159 482 -159 c 0,9,10
 445 -159 445 -159 424.5 -142.5 c 128,-1,11
 404 -126 404 -126 404 -96 c 0,12,13
 404 -37 404 -37 483 0 c 1,14,-1
 72 0 l 2,15,16
 44 0 44 0 44 22 c 0,17,18
 44 42 44 42 72 42 c 2,19,-1
 127 42 l 1,20,-1
 127 535 l 1,21,-1
 72 535 l 2,22,23
 44 535 44 535 44 556 c 0,24,25
 44 576 44 576 72 577 c 2,26,-1
 511 577 l 1,27,-1
 511 434 l 2,28,29
 511 406 511 406 489 407 c 0,30,31
 469 407 469 407 469 434 c 2,32,-1
 469 535 l 1,33,-1
 169 535 l 1,34,-1
 169 321 l 1,35,-1
 317 321 l 1,36,-1
 317 367 l 2,37,38
 317 395 317 395 339 394 c 0,39,40
 359 394 359 394 359 367 c 2,41,-1
 359 232 l 2,42,43
 359 204 359 204 339 205 c 0,44,45
 317 205 317 205 317 232 c 2,46,-1
 317 279 l 1,47,-1
 169 279 l 1,48,-1
 169 42 l 1,49,-1
 490 42 l 1,50,-1
 490 164 l 2,51,52
 490 192 490 192 512 191 c 0,53,54
 532 191 532 191 532 164 c 2,55,-1
 532 0 l 1,56,-1
 504 -15 l 2,57,58
 445 -47 445 -47 444 -91 c 0,59,60
 444 -126 444 -126 488 -126 c 0,0,1
EndSplineSet
EndChar

StartChar: eogonek
Encoding: 281 281 219
Width: 614
GlyphClass: 2
Flags: W
LayerCount: 2
Fore
SplineSet
398 -126 m 0,0,1
 421 -126 421 -126 437.5 -116 c 128,-1,2
 454 -106 454 -106 457 -106 c 0,3,4
 462 -106 462 -106 466.5 -111 c 128,-1,5
 471 -116 471 -116 471 -122 c 0,6,7
 471 -135 471 -135 446 -147 c 128,-1,8
 421 -159 421 -159 392 -159 c 0,9,10
 355 -159 355 -159 334.5 -142.5 c 128,-1,11
 314 -126 314 -126 314 -96 c 0,12,13
 314 -45 314 -45 370 -11 c 1,14,15
 339 -16 339 -16 313 -16 c 0,16,17
 209 -16 209 -16 137 53 c 128,-1,18
 65 122 65 122 65 222 c 0,19,20
 65 315 65 315 132.5 378 c 128,-1,21
 200 441 200 441 298 441 c 0,22,23
 401 441 401 441 466.5 376 c 128,-1,24
 532 311 532 311 532 204 c 1,25,-1
 106 204 l 1,26,27
 117 123 117 123 173.5 74.5 c 128,-1,28
 230 26 230 26 313 26 c 0,29,30
 361 26 361 26 411.5 41 c 128,-1,31
 462 56 462 56 493 81 c 0,32,33
 503 88 503 88 509 88 c 0,34,35
 517 88 517 88 522.5 82 c 128,-1,36
 528 76 528 76 528 68 c 0,37,38
 528 56 528 56 501 37 c 128,-1,39
 474 18 474 18 441.5 1 c 128,-1,40
 409 -16 409 -16 381.5 -42 c 128,-1,41
 354 -68 354 -68 354 -91 c 0,42,43
 354 -126 354 -126 398 -126 c 0,0,1
106 246 m 1,44,-1
 489 246 l 1,45,46
 477 316 477 316 425 357.5 c 128,-1,47
 373 399 373 399 298 399 c 128,-1,48
 223 399 223 399 171.5 358 c 128,-1,49
 120 317 120 317 106 246 c 1,44,-1
EndSplineSet
EndChar

StartChar: Hbar
Encoding: 294 294 232
Width: 614
GlyphClass: 2
Flags: W
LayerCount: 2
Fore
SplineSet
489 431 m 1,0,-1
 515 431 l 2,1,2
 543 431 543 431 543 410.5 c 128,-1,3
 543 390 543 390 515 390 c 2,4,-1
 489 390 l 1,5,-1
 489 42 l 1,6,-1
 537 42 l 2,7,8
 565 42 565 42 564 22 c 0,9,10
 564 0 564 0 537 0 c 2,11,-1
 392 0 l 2,12,13
 364 0 364 0 365 22 c 0,14,15
 365 42 365 42 392 42 c 2,16,-1
 447 42 l 1,17,-1
 447 279 l 1,18,-1
 171 279 l 1,19,-1
 171 42 l 1,20,-1
 226 42 l 2,21,22
 254 42 254 42 254 22 c 0,23,24
 254 0 254 0 226 0 c 2,25,-1
 83 0 l 2,26,27
 54 0 54 0 54 22 c 0,28,29
 54 42 54 42 83 42 c 2,30,-1
 129 42 l 1,31,-1
 129 390 l 1,32,-1
 103 390 l 2,33,34
 75 390 75 390 75.5 410.5 c 128,-1,35
 76 431 76 431 103 431 c 2,36,-1
 129 431 l 1,37,-1
 129 535 l 1,38,-1
 103 535 l 2,39,40
 75 535 75 535 76 556 c 0,41,42
 76 576 76 576 103 577 c 2,43,-1
 226 577 l 2,44,45
 254 577 254 577 254 556 c 0,46,47
 254 534 254 534 226 535 c 2,48,-1
 171 535 l 1,49,-1
 171 431 l 1,50,-1
 447 431 l 1,51,-1
 447 535 l 1,52,-1
 392 535 l 2,53,54
 364 535 364 535 365 556 c 0,55,56
 365 576 365 576 392 577 c 2,57,-1
 515 577 l 2,58,59
 543 577 543 577 543 556 c 0,60,61
 543 534 543 534 515 535 c 2,62,-1
 489 535 l 1,63,-1
 489 431 l 1,0,-1
447 390 m 1,64,-1
 171 390 l 1,65,-1
 171 321 l 1,66,-1
 447 321 l 1,67,-1
 447 390 l 1,64,-1
EndSplineSet
EndChar

StartChar: hbar
Encoding: 295 295 233
Width: 614
GlyphClass: 2
Flags: W
LayerCount: 2
Fore
SplineSet
447 295 m 2,0,1
 447 341 447 341 412.5 370 c 128,-1,2
 378 399 378 399 322 399 c 0,3,4
 279 399 279 399 250.5 382.5 c 128,-1,5
 222 366 222 366 180 316 c 2,6,-1
 169 303 l 1,7,-1
 169 42 l 1,8,-1
 215 42 l 2,9,10
 244 42 244 42 244 22 c 0,11,12
 244 0 244 0 215 0 c 2,13,-1
 80 0 l 2,14,15
 52 0 52 0 52 22 c 0,16,17
 52 42 52 42 80 42 c 2,18,-1
 127 42 l 1,19,-1
 127 480 l 1,20,-1
 72 480 l 2,21,22
 44 480 44 480 44 500.5 c 128,-1,23
 44 521 44 521 72 521 c 2,24,-1
 127 521 l 1,25,-1
 127 577 l 1,26,-1
 72 577 l 2,27,28
 44 577 44 577 44 598 c 0,29,30
 44 618 44 618 72 618 c 2,31,-1
 169 618 l 1,32,-1
 169 521 l 1,33,-1
 313 521 l 2,34,35
 341 521 341 521 341 500.5 c 128,-1,36
 341 480 341 480 313 480 c 2,37,-1
 169 480 l 1,38,-1
 169 355 l 1,39,40
 208 402 208 402 244 421.5 c 128,-1,41
 280 441 280 441 327 441 c 0,42,43
 399 441 399 441 444 400.5 c 128,-1,44
 489 360 489 360 489 298 c 2,45,-1
 489 42 l 1,46,-1
 536 42 l 2,47,48
 565 42 565 42 564 22 c 0,49,50
 564 0 564 0 536 0 c 2,51,-1
 401 0 l 2,52,53
 373 0 373 0 374 22 c 0,54,55
 374 42 374 42 401 42 c 2,56,-1
 447 42 l 1,57,-1
 447 295 l 2,0,1
EndSplineSet
EndChar

StartChar: Iogonek
Encoding: 302 302 240
Width: 614
GlyphClass: 2
Flags: W
LayerCount: 2
Fore
SplineSet
439 -126 m 0,0,1
 462 -126 462 -126 478.5 -116 c 128,-1,2
 495 -106 495 -106 498 -106 c 0,3,4
 503 -106 503 -106 507.5 -111 c 128,-1,5
 512 -116 512 -116 512 -122 c 0,6,7
 512 -135 512 -135 487 -147 c 128,-1,8
 462 -159 462 -159 433 -159 c 0,9,10
 396 -159 396 -159 375.5 -142.5 c 128,-1,11
 355 -126 355 -126 355 -96 c 0,12,13
 355 -64 355 -64 373 -42 c 128,-1,14
 391 -20 391 -20 434 0 c 1,15,-1
 143 0 l 2,16,17
 115 0 115 0 116 22 c 0,18,19
 116 42 116 42 143 42 c 2,20,-1
 286 42 l 1,21,-1
 286 535 l 1,22,-1
 143 535 l 2,23,24
 115 535 115 535 116 556 c 0,25,26
 116 576 116 576 143 577 c 2,27,-1
 470 577 l 2,28,29
 499 577 499 577 499 556 c 0,30,31
 499 534 499 534 470 535 c 2,32,-1
 328 535 l 1,33,-1
 328 42 l 1,34,-1
 470 42 l 2,35,36
 499 42 499 42 499 22 c 0,37,38
 499 13 499 13 482.5 1.5 c 128,-1,39
 466 -10 466 -10 447 -20.5 c 128,-1,40
 428 -31 428 -31 411.5 -50 c 128,-1,41
 395 -69 395 -69 395 -91 c 0,42,43
 395 -126 395 -126 439 -126 c 0,0,1
EndSplineSet
EndChar

StartChar: iogonek
Encoding: 303 303 241
Width: 614
GlyphClass: 2
Flags: W
LayerCount: 2
Fore
SplineSet
460 -126 m 0,0,1
 483 -126 483 -126 499 -116 c 128,-1,2
 515 -106 515 -106 518 -106 c 0,3,4
 523 -106 523 -106 527.5 -111 c 128,-1,5
 532 -116 532 -116 532 -122 c 0,6,7
 532 -135 532 -135 507 -147 c 128,-1,8
 482 -159 482 -159 454 -159 c 0,9,10
 417 -159 417 -159 396.5 -142.5 c 128,-1,11
 376 -126 376 -126 376 -96 c 0,12,13
 376 -64 376 -64 394 -42 c 128,-1,14
 412 -20 412 -20 455 0 c 1,15,-1
 122 0 l 2,16,17
 94 0 94 0 94 22 c 0,18,19
 94 42 94 42 122 42 c 2,20,-1
 286 42 l 1,21,-1
 286 385 l 1,22,-1
 165 385 l 2,23,24
 137 385 137 385 137 407 c 0,25,26
 137 427 137 427 165 427 c 2,27,-1
 328 427 l 1,28,-1
 328 42 l 1,29,-1
 492 42 l 2,30,31
 521 42 521 42 520 22 c 0,32,33
 520 12 520 12 503.5 1 c 128,-1,34
 487 -10 487 -10 468 -20.5 c 128,-1,35
 449 -31 449 -31 432.5 -49.5 c 128,-1,36
 416 -68 416 -68 416 -91 c 0,37,38
 416 -126 416 -126 460 -126 c 0,0,1
326 639 m 1,39,-1
 326 532 l 1,40,-1
 265 532 l 1,41,-1
 265 639 l 1,42,-1
 326 639 l 1,39,-1
EndSplineSet
EndChar

StartChar: dotlessi
Encoding: 305 305 243
Width: 614
GlyphClass: 2
Flags: W
AnchorPoint: "Anchor-2" 301 441 basechar 0
LayerCount: 2
Fore
SplineSet
328 427 m 1,0,-1
 328 42 l 1,1,-1
 492 42 l 2,2,3
 521 42 521 42 520 22 c 0,4,5
 520 0 520 0 492 0 c 2,6,-1
 122 0 l 2,7,8
 94 0 94 0 94 22 c 0,9,10
 94 42 94 42 122 42 c 2,11,-1
 286 42 l 1,12,-1
 286 385 l 1,13,-1
 165 385 l 2,14,15
 137 385 137 385 137 407 c 0,16,17
 137 427 137 427 165 427 c 2,18,-1
 328 427 l 1,0,-1
EndSplineSet
EndChar

StartChar: IJ
Encoding: 306 306 244
Width: 614
GlyphClass: 2
Flags: W
LayerCount: 2
Fore
SplineSet
506 535 m 1,0,-1
 506 169 l 2,1,2
 506 87 506 87 470 35.5 c 128,-1,3
 434 -16 434 -16 359 -16 c 0,4,5
 311 -16 311 -16 279.5 5.5 c 128,-1,6
 248 27 248 27 215 76 c 1,7,-1
 215 228 l 2,8,9
 215 256 215 256 237 256 c 0,10,11
 257 256 257 256 257 228 c 2,12,-1
 257 95 l 1,13,14
 282 53 282 53 302.5 39.5 c 128,-1,15
 323 26 323 26 360 26 c 0,16,17
 417 26 417 26 440.5 63.5 c 128,-1,18
 464 101 464 101 464 169 c 2,19,-1
 464 535 l 1,20,-1
 367 535 l 2,21,22
 339 535 339 535 339 556 c 0,23,24
 339 576 339 576 367 577 c 2,25,-1
 557 577 l 2,26,27
 585 577 585 577 585 556 c 0,28,29
 585 534 585 534 557 535 c 2,30,-1
 506 535 l 1,0,-1
144 535 m 1,31,-1
 144 42 l 1,32,-1
 189 42 l 2,33,34
 218 42 218 42 218 22 c 0,35,36
 218 0 218 0 189 0 c 2,37,-1
 57 0 l 2,38,39
 29 0 29 0 30 22 c 0,40,41
 30 42 30 42 57 42 c 2,42,-1
 102 42 l 1,43,-1
 102 535 l 1,44,-1
 57 535 l 2,45,46
 29 535 29 535 30 556 c 0,47,48
 30 576 30 576 57 577 c 2,49,-1
 189 577 l 2,50,51
 218 577 218 577 218 556 c 0,52,53
 218 534 218 534 189 535 c 2,54,-1
 144 535 l 1,31,-1
EndSplineSet
EndChar

StartChar: ij
Encoding: 307 307 245
Width: 614
GlyphClass: 2
Flags: W
LayerCount: 2
Fore
SplineSet
445 385 m 1,0,-1
 362 385 l 2,1,2
 334 385 334 385 335 407 c 0,3,4
 335 427 335 427 362 427 c 2,5,-1
 487 427 l 1,6,-1
 487 -29 l 2,7,8
 487 -101 487 -101 442.5 -145.5 c 128,-1,9
 398 -190 398 -190 329 -190 c 2,10,-1
 197 -190 l 2,11,12
 169 -190 169 -190 169 -169 c 0,13,14
 169 -149 169 -149 197 -148 c 2,15,-1
 328 -148 l 2,16,17
 379 -148 379 -148 412 -114.5 c 128,-1,18
 445 -81 445 -81 445 -29 c 2,19,-1
 445 385 l 1,0,-1
495 639 m 1,20,-1
 495 532 l 1,21,-1
 434 532 l 1,22,-1
 434 639 l 1,23,-1
 495 639 l 1,20,-1
264 427 m 1,24,-1
 264 42 l 1,25,-1
 330 42 l 2,26,27
 359 42 359 42 358 22 c 0,28,29
 358 0 358 0 330 0 c 2,30,-1
 155 0 l 2,31,32
 127 0 127 0 127 22 c 0,33,34
 127 42 127 42 155 42 c 2,35,-1
 222 42 l 1,36,-1
 222 385 l 1,37,-1
 165 385 l 2,38,39
 137 385 137 385 137 407 c 0,40,41
 137 427 137 427 165 427 c 2,42,-1
 264 427 l 1,24,-1
275 639 m 1,43,-1
 275 532 l 1,44,-1
 215 532 l 1,45,-1
 215 639 l 1,46,-1
 275 639 l 1,43,-1
EndSplineSet
EndChar

StartChar: Lslash
Encoding: 321 321 259
Width: 614
GlyphClass: 2
Flags: W
LayerCount: 2
Fore
SplineSet
231 535 m 1,0,-1
 231 317 l 1,1,-1
 369 399 l 1,2,3
 381 404 381 404 386 404 c 0,4,5
 394 404 394 404 400.5 398 c 128,-1,6
 407 392 407 392 407 384 c 0,7,8
 407 373 407 373 389 364 c 2,9,-1
 231 269 l 1,10,-1
 231 42 l 1,11,-1
 512 42 l 1,12,-1
 512 207 l 2,13,14
 512 235 512 235 534 234 c 0,15,16
 554 234 554 234 554 207 c 2,17,-1
 554 0 l 1,18,-1
 91 0 l 2,19,20
 63 0 63 0 63 22 c 0,21,22
 63 42 63 42 91 42 c 2,23,-1
 189 42 l 1,24,-1
 189 252 l 1,25,-1
 81 188 l 2,26,27
 72 182 72 182 63 182 c 0,28,29
 56 182 56 182 50 189 c 128,-1,30
 44 196 44 196 44 204 c 0,31,32
 44 215 44 215 60 224 c 2,33,-1
 189 300 l 1,34,-1
 189 535 l 1,35,-1
 91 535 l 2,36,37
 63 535 63 535 63 556 c 0,38,39
 63 576 63 576 91 577 c 2,40,-1
 330 577 l 2,41,42
 358 577 358 577 357 556 c 0,43,44
 357 534 357 534 330 535 c 2,45,-1
 231 535 l 1,0,-1
EndSplineSet
EndChar

StartChar: lslash
Encoding: 322 322 260
Width: 614
GlyphClass: 2
Flags: W
LayerCount: 2
Fore
SplineSet
327 618 m 1,0,-1
 327 351 l 1,1,-1
 417 403 l 2,2,3
 428 409 428 409 434 410 c 0,4,5
 442 410 442 410 448 403.5 c 128,-1,6
 454 397 454 397 454 389 c 0,7,8
 454 377 454 377 437 368 c 2,9,-1
 327 304 l 1,10,-1
 327 42 l 1,11,-1
 493 42 l 2,12,13
 521 42 521 42 520 22 c 0,14,15
 520 0 520 0 493 0 c 2,16,-1
 122 0 l 2,17,18
 94 0 94 0 94 22 c 0,19,20
 94 42 94 42 122 42 c 2,21,-1
 285 42 l 1,22,-1
 285 287 l 1,23,-1
 196 236 l 2,24,25
 185 230 185 230 178 229 c 0,26,27
 171 229 171 229 165 236 c 128,-1,28
 159 243 159 243 159 251 c 0,29,30
 159 263 159 263 175 272 c 2,31,-1
 285 335 l 1,32,-1
 285 577 l 1,33,-1
 165 577 l 2,34,35
 137 577 137 577 137 598 c 0,36,37
 137 618 137 618 165 618 c 2,38,-1
 327 618 l 1,0,-1
EndSplineSet
EndChar

StartChar: Eng
Encoding: 330 330 268
Width: 614
GlyphClass: 2
Flags: W
LayerCount: 2
Fore
SplineSet
292 -148 m 0,0,1
 295 -148 295 -148 318.5 -155 c 128,-1,2
 342 -162 342 -162 364 -162 c 0,3,4
 411 -162 411 -162 441 -128.5 c 128,-1,5
 471 -95 471 -95 471 -43 c 2,6,-1
 471 0 l 1,7,-1
 460 0 l 1,8,-1
 147 516 l 1,9,-1
 147 42 l 1,10,-1
 224 42 l 2,11,12
 252 42 252 42 252 22 c 0,13,14
 252 0 252 0 224 0 c 2,15,-1
 71 0 l 2,16,17
 43 0 43 0 43 22 c 0,18,19
 43 42 43 42 71 42 c 2,20,-1
 105 42 l 1,21,-1
 105 535 l 1,22,-1
 50 535 l 2,23,24
 22 535 22 535 23 556 c 0,25,26
 23 576 23 576 50 577 c 2,27,-1
 159 577 l 1,28,-1
 471 60 l 1,29,-1
 471 535 l 1,30,-1
 395 535 l 2,31,32
 366 535 366 535 367 556 c 0,33,34
 367 576 367 576 395 577 c 2,35,-1
 548 577 l 2,36,37
 576 577 576 577 575 556 c 0,38,39
 575 534 575 534 548 535 c 2,40,-1
 513 535 l 1,41,-1
 513 -49 l 2,42,43
 513 -114 513 -114 469 -159 c 128,-1,44
 425 -204 425 -204 362 -204 c 0,45,46
 336 -204 336 -204 304.5 -195.5 c 128,-1,47
 273 -187 273 -187 273 -169 c 0,48,49
 273 -161 273 -161 279 -154.5 c 128,-1,50
 285 -148 285 -148 292 -148 c 0,0,1
EndSplineSet
EndChar

StartChar: eng
Encoding: 331 331 269
Width: 614
GlyphClass: 2
Flags: W
LayerCount: 2
Fore
SplineSet
270 -148 m 0,0,1
 274 -148 274 -148 296.5 -155 c 128,-1,2
 319 -162 319 -162 342 -162 c 0,3,4
 389 -162 389 -162 419.5 -128.5 c 128,-1,5
 450 -95 450 -95 450 -43 c 2,6,-1
 450 295 l 2,7,8
 450 339 450 339 416.5 369 c 128,-1,9
 383 399 383 399 327 399 c 0,10,11
 309 399 309 399 291.5 395.5 c 128,-1,12
 274 392 274 392 259.5 384.5 c 128,-1,13
 245 377 245 377 234.5 370.5 c 128,-1,14
 224 364 224 364 212.5 351.5 c 128,-1,15
 201 339 201 339 196 333.5 c 128,-1,16
 191 328 191 328 181.5 315 c 128,-1,17
 172 302 172 302 171 301 c 1,18,-1
 171 42 l 1,19,-1
 217 42 l 2,20,21
 245 42 245 42 245 22 c 0,22,23
 245 0 245 0 217 0 c 2,24,-1
 83 0 l 2,25,26
 54 0 54 0 54 22 c 0,27,28
 54 42 54 42 83 42 c 2,29,-1
 129 42 l 1,30,-1
 129 385 l 1,31,-1
 94 385 l 2,32,33
 66 385 66 385 67 407 c 0,34,35
 67 427 67 427 94 427 c 2,36,-1
 171 427 l 1,37,-1
 171 356 l 1,38,39
 215 405 215 405 249 423 c 128,-1,40
 283 441 283 441 331 441 c 0,41,42
 400 441 400 441 446 401 c 128,-1,43
 492 361 492 361 492 302 c 2,44,-1
 492 -49 l 2,45,46
 492 -114 492 -114 447.5 -159 c 128,-1,47
 403 -204 403 -204 341 -204 c 0,48,49
 315 -204 315 -204 283.5 -195.5 c 128,-1,50
 252 -187 252 -187 252 -169 c 0,51,52
 252 -161 252 -161 257.5 -154.5 c 128,-1,53
 263 -148 263 -148 270 -148 c 0,0,1
EndSplineSet
EndChar

StartChar: OE
Encoding: 338 338 276
Width: 614
GlyphClass: 2
Flags: W
LayerCount: 2
Fore
SplineSet
346 279 m 1,0,-1
 346 42 l 1,1,-1
 562 42 l 1,2,-1
 562 136 l 2,3,4
 562 164 562 164 583 164 c 0,5,6
 605 164 605 164 604 136 c 2,7,-1
 604 0 l 1,8,-1
 269 0 l 2,9,10
 152 0 152 0 81 79.5 c 128,-1,11
 10 159 10 159 10 289 c 0,12,13
 10 417 10 417 80 497 c 128,-1,14
 150 577 150 577 261 577 c 2,15,-1
 584 577 l 1,16,-1
 584 419 l 2,17,18
 584 391 584 391 563 391 c 0,19,20
 541 391 541 391 542 419 c 2,21,-1
 542 535 l 1,22,-1
 346 535 l 1,23,-1
 346 321 l 1,24,-1
 426 321 l 1,25,-1
 426 348 l 2,26,27
 426 376 426 376 447 376 c 0,28,29
 467 376 467 376 468 348 c 2,30,-1
 468 250 l 2,31,32
 468 222 468 222 447 222 c 0,33,34
 425 222 425 222 426 250 c 2,35,-1
 426 279 l 1,36,-1
 346 279 l 1,0,-1
52 288 m 0,37,38
 52 246 52 246 62.5 206 c 128,-1,39
 73 166 73 166 96 127.5 c 128,-1,40
 119 89 119 89 164 65.5 c 128,-1,41
 209 42 209 42 271 42 c 2,42,-1
 304 42 l 1,43,-1
 304 535 l 1,44,-1
 271 535 l 2,45,46
 209 535 209 535 164 511 c 128,-1,47
 119 487 119 487 96 449 c 128,-1,48
 73 411 73 411 62.5 371 c 128,-1,49
 52 331 52 331 52 288 c 0,37,38
EndSplineSet
EndChar

StartChar: oe
Encoding: 339 339 277
Width: 614
GlyphClass: 2
Flags: W
LayerCount: 2
Fore
SplineSet
306 325 m 1,0,1
 352 442 352 442 441 441 c 0,2,3
 466 441 466 441 490 430.5 c 128,-1,4
 514 420 514 420 538 395 c 128,-1,5
 562 370 562 370 576.5 320.5 c 128,-1,6
 591 271 591 271 591 204 c 1,7,-1
 327 204 l 1,8,9
 333 128 333 128 370.5 77 c 128,-1,10
 408 26 408 26 457 26 c 0,11,12
 483 26 483 26 506 41.5 c 128,-1,13
 529 57 529 57 546 73 c 128,-1,14
 563 89 563 89 571.5 89 c 128,-1,15
 580 89 580 89 586 82.5 c 128,-1,16
 592 76 592 76 592 69 c 0,17,18
 592 52 592 52 544.5 18 c 128,-1,19
 497 -16 497 -16 455 -16 c 0,20,21
 409 -16 409 -16 369.5 16.5 c 128,-1,22
 330 49 330 49 306 105 c 1,23,24
 283 47 283 47 248 15.5 c 128,-1,25
 213 -16 213 -16 170 -16 c 0,26,27
 107 -16 107 -16 59.5 53.5 c 128,-1,28
 12 123 12 123 12 217 c 0,29,30
 12 308 12 308 58.5 374.5 c 128,-1,31
 105 441 105 441 169 441 c 0,32,33
 211 441 211 441 247.5 409.5 c 128,-1,34
 284 378 284 378 306 325 c 1,0,1
549 246 m 1,35,36
 545 276 545 276 540.5 295 c 128,-1,37
 536 314 536 314 525 342 c 128,-1,38
 514 370 514 370 492 384.5 c 128,-1,39
 470 399 470 399 439 399 c 0,40,41
 348 399 348 399 328 246 c 1,42,-1
 549 246 l 1,35,36
170 399 m 0,43,44
 124 399 124 399 89 343.5 c 128,-1,45
 54 288 54 288 54 213 c 128,-1,46
 54 138 54 138 89 82 c 128,-1,47
 124 26 124 26 171 26 c 0,48,49
 216 26 216 26 251.5 82 c 128,-1,50
 287 138 287 138 287 211 c 0,51,52
 287 287 287 287 252 343 c 128,-1,53
 217 399 217 399 170 399 c 0,43,44
EndSplineSet
EndChar

StartChar: Scedilla
Encoding: 350 350 288
Width: 614
GlyphClass: 2
Flags: W
LayerCount: 2
Fore
SplineSet
163 430 m 0,0,1
 163 390 163 390 189.5 365.5 c 128,-1,2
 216 341 216 341 255.5 332.5 c 128,-1,3
 295 324 295 324 341.5 312 c 128,-1,4
 388 300 388 300 427.5 287.5 c 128,-1,5
 467 275 467 275 493.5 241 c 128,-1,6
 520 207 520 207 520 155 c 0,7,8
 520 83 520 83 465 36 c 128,-1,9
 410 -11 410 -11 319 -16 c 1,10,-1
 319 -48 l 1,11,12
 386 -50 386 -50 386 -111 c 0,13,14
 386 -141 386 -141 363.5 -159 c 128,-1,15
 341 -177 341 -177 305 -177 c 0,16,17
 278 -177 278 -177 246.5 -165.5 c 128,-1,18
 215 -154 215 -154 215 -136 c 0,19,20
 215 -128 215 -128 221 -122.5 c 128,-1,21
 227 -117 227 -117 236 -117 c 0,22,23
 240 -117 240 -117 263 -127.5 c 128,-1,24
 286 -138 286 -138 304 -138 c 0,25,26
 323 -138 323 -138 336 -130 c 128,-1,27
 349 -122 349 -122 349 -109 c 0,28,29
 349 -83 349 -83 301 -83 c 2,30,-1
 281 -83 l 1,31,-1
 281 -15 l 1,32,33
 187 -4 187 -4 136 57 c 1,34,-1
 136 28 l 2,35,36
 136 0 136 0 115 0 c 0,37,38
 95 0 95 0 94 28 c 2,39,-1
 94 142 l 2,40,41
 94 170 94 170 116 170 c 0,42,43
 135 170 135 170 136 145 c 0,44,45
 138 95 138 95 188.5 60.5 c 128,-1,46
 239 26 239 26 308 26 c 0,47,48
 381 26 381 26 428 63 c 128,-1,49
 475 100 475 100 475 157 c 0,50,51
 475 200 475 200 448.5 226.5 c 128,-1,52
 422 253 422 253 382.5 261.5 c 128,-1,53
 343 270 343 270 296.5 281 c 128,-1,54
 250 292 250 292 210.5 303.5 c 128,-1,55
 171 315 171 315 144.5 347.5 c 128,-1,56
 118 380 118 380 118 431 c 0,57,58
 118 499 118 499 171.5 544.5 c 128,-1,59
 225 590 225 590 306 590 c 0,60,61
 394 590 394 590 456 529 c 1,62,-1
 456 549 l 2,63,64
 456 577 456 577 477 577 c 0,65,66
 497 577 497 577 498 549 c 2,67,-1
 498 443 l 2,68,69
 498 415 498 415 477 416 c 256,70,71
 457 416 457 416 456 440 c 0,72,73
 453 486 453 486 411 517 c 128,-1,74
 369 548 369 548 309 548 c 0,75,76
 246 548 246 548 204.5 514 c 128,-1,77
 163 480 163 480 163 430 c 0,0,1
EndSplineSet
EndChar

StartChar: scedilla
Encoding: 351 351 289
Width: 614
GlyphClass: 2
Flags: W
LayerCount: 2
Fore
SplineSet
463 120 m 0,0,1
 463 158 463 158 428 178.5 c 128,-1,2
 393 199 393 199 344 206 c 128,-1,3
 295 213 295 213 246 221 c 128,-1,4
 197 229 197 229 162 255 c 128,-1,5
 127 281 127 281 127 326 c 0,6,7
 127 376 127 376 176.5 408.5 c 128,-1,8
 226 441 226 441 301 441 c 0,9,10
 389 441 389 441 442 394 c 1,11,-1
 442 398 l 2,12,13
 442 427 442 427 464 427 c 0,14,15
 484 427 484 427 484 398 c 2,16,-1
 484 328 l 2,17,18
 484 300 484 300 464 300 c 0,19,20
 446 300 446 300 442 324 c 0,21,22
 439 358 439 358 401.5 378.5 c 128,-1,23
 364 399 364 399 306.5 399 c 128,-1,24
 249 399 249 399 211 377 c 128,-1,25
 173 355 173 355 173 323 c 0,26,27
 173 292 173 292 205 276.5 c 128,-1,28
 237 261 237 261 278 257.5 c 128,-1,29
 319 254 319 254 372.5 242.5 c 128,-1,30
 426 231 426 231 458 211 c 0,31,32
 509 176 509 176 509 118.5 c 128,-1,33
 509 61 509 61 456.5 24.5 c 128,-1,34
 404 -12 404 -12 319 -16 c 1,35,-1
 319 -48 l 1,36,37
 386 -50 386 -50 386 -111 c 0,38,39
 386 -141 386 -141 363.5 -159 c 128,-1,40
 341 -177 341 -177 305 -177 c 0,41,42
 278 -177 278 -177 246.5 -165.5 c 128,-1,43
 215 -154 215 -154 215 -136 c 0,44,45
 215 -128 215 -128 220.5 -122.5 c 128,-1,46
 226 -117 226 -117 234 -117 c 0,47,48
 239 -117 239 -117 262 -127.5 c 128,-1,49
 285 -138 285 -138 303 -138 c 0,50,51
 322 -138 322 -138 335 -130 c 128,-1,52
 348 -122 348 -122 348 -109 c 0,53,54
 348 -83 348 -83 301 -83 c 2,55,-1
 281 -83 l 1,56,-1
 281 -15 l 1,57,58
 195 -6 195 -6 147 39 c 1,59,-1
 147 28 l 2,60,61
 147 0 147 0 127 0 c 0,62,63
 105 0 105 0 105 28 c 2,64,-1
 105 113 l 2,65,66
 105 141 105 141 127 140 c 0,67,68
 147 140 147 140 147 118 c 2,69,-1
 147 111 l 2,70,71
 147 76 147 76 193.5 51 c 128,-1,72
 240 26 240 26 305 26 c 0,73,74
 373 26 373 26 418 52.5 c 128,-1,75
 463 79 463 79 463 120 c 0,0,1
EndSplineSet
EndChar

StartChar: uni0162
Encoding: 354 354 292
Width: 614
GlyphClass: 2
Flags: W
LayerCount: 2
Fore
SplineSet
242 -117 m 0,0,1
 246 -117 246 -117 268.5 -127.5 c 128,-1,2
 291 -138 291 -138 309 -138 c 0,3,4
 328 -138 328 -138 341 -130 c 128,-1,5
 354 -122 354 -122 354 -109 c 0,6,7
 354 -83 354 -83 307 -83 c 2,8,-1
 287 -83 l 1,9,-1
 287 0 l 1,10,-1
 179 0 l 2,11,12
 151 0 151 0 152 22 c 0,13,14
 152 42 152 42 179 42 c 2,15,-1
 287 42 l 1,16,-1
 287 535 l 1,17,-1
 116 535 l 1,18,-1
 116 460 l 2,19,20
 116 432 116 432 94 432 c 0,21,22
 74 432 74 432 74 460 c 2,23,-1
 74 577 l 1,24,-1
 541 577 l 1,25,-1
 541 460 l 2,26,27
 541 432 541 432 520 432 c 0,28,29
 511 432 511 432 505 439.5 c 128,-1,30
 499 447 499 447 499 460 c 2,31,-1
 499 535 l 1,32,-1
 329 535 l 1,33,-1
 329 42 l 1,34,-1
 436 42 l 2,35,36
 464 42 464 42 464 22 c 0,37,38
 464 0 464 0 436 0 c 2,39,-1
 326 0 l 1,40,-1
 326 -48 l 1,41,42
 393 -50 393 -50 392 -111 c 0,43,44
 392 -141 392 -141 369.5 -159 c 128,-1,45
 347 -177 347 -177 311 -177 c 0,46,47
 284 -177 284 -177 252.5 -165.5 c 128,-1,48
 221 -154 221 -154 221 -136 c 0,49,50
 221 -128 221 -128 227.5 -122.5 c 128,-1,51
 234 -117 234 -117 242 -117 c 0,0,1
EndSplineSet
EndChar

StartChar: Tbar
Encoding: 358 358 296
Width: 614
GlyphClass: 2
Flags: W
LayerCount: 2
Fore
SplineSet
329 345 m 1,0,-1
 430 345 l 2,1,2
 458 345 458 345 458 324.5 c 128,-1,3
 458 304 458 304 430 304 c 2,4,-1
 329 304 l 1,5,-1
 329 42 l 1,6,-1
 436 42 l 2,7,8
 464 42 464 42 464 22 c 0,9,10
 464 0 464 0 436 0 c 2,11,-1
 179 0 l 2,12,13
 151 0 151 0 152 22 c 0,14,15
 152 42 152 42 179 42 c 2,16,-1
 287 42 l 1,17,-1
 287 304 l 1,18,-1
 188 304 l 2,19,20
 160 304 160 304 160.5 324.5 c 128,-1,21
 161 345 161 345 188 345 c 2,22,-1
 287 345 l 1,23,-1
 287 535 l 1,24,-1
 116 535 l 1,25,-1
 116 460 l 2,26,27
 116 432 116 432 94 432 c 0,28,29
 74 432 74 432 74 460 c 2,30,-1
 74 577 l 1,31,-1
 541 577 l 1,32,-1
 541 460 l 2,33,34
 541 432 541 432 520 432 c 0,35,36
 511 432 511 432 505 439.5 c 128,-1,37
 499 447 499 447 499 460 c 2,38,-1
 499 535 l 1,39,-1
 329 535 l 1,40,-1
 329 345 l 1,0,-1
EndSplineSet
EndChar

StartChar: tbar
Encoding: 359 359 297
Width: 614
GlyphClass: 2
Flags: W
LayerCount: 2
Fore
SplineSet
148 282 m 1,0,-1
 148 385 l 1,1,-1
 73 385 l 2,2,3
 44 385 44 385 44 407 c 0,4,5
 44 427 44 427 73 427 c 2,6,-1
 148 427 l 1,7,-1
 148 549 l 2,8,9
 148 577 148 577 170 577 c 0,10,11
 190 577 190 577 190 549 c 2,12,-1
 190 427 l 1,13,-1
 416 427 l 2,14,15
 444 427 444 427 443 407 c 0,16,17
 443 385 443 385 416 385 c 2,18,-1
 190 385 l 1,19,-1
 190 282 l 1,20,-1
 416 282 l 2,21,22
 444 282 444 282 443.5 261.5 c 128,-1,23
 443 241 443 241 416 241 c 2,24,-1
 190 241 l 1,25,-1
 190 112 l 2,26,27
 190 73 190 73 221 49.5 c 128,-1,28
 252 26 252 26 305 26 c 0,29,30
 348 26 348 26 396.5 37.5 c 128,-1,31
 445 49 445 49 475 67 c 0,32,33
 485 73 485 73 492 73 c 0,34,35
 499 73 499 73 505 66.5 c 128,-1,36
 511 60 511 60 511 52 c 0,37,38
 511 29 511 29 442 6.5 c 128,-1,39
 373 -16 373 -16 307 -16 c 0,40,41
 234 -16 234 -16 191 18 c 128,-1,42
 148 52 148 52 148 110 c 2,43,-1
 148 241 l 1,44,-1
 72 241 l 2,45,46
 44 241 44 241 44 261.5 c 128,-1,47
 44 282 44 282 72 282 c 2,48,-1
 148 282 l 1,0,-1
EndSplineSet
EndChar

StartChar: Uogonek
Encoding: 370 370 308
Width: 614
GlyphClass: 2
Flags: W
LayerCount: 2
Fore
SplineSet
392 -126 m 0,0,1
 414 -126 414 -126 430 -116 c 128,-1,2
 446 -106 446 -106 450 -106 c 0,3,4
 455 -106 455 -106 459.5 -111 c 128,-1,5
 464 -116 464 -116 464 -122 c 0,6,7
 464 -135 464 -135 439 -147 c 128,-1,8
 414 -159 414 -159 385 -159 c 0,9,10
 349 -159 349 -159 328 -142 c 128,-1,11
 307 -125 307 -125 307 -96 c 0,12,13
 307 -45 307 -45 369 -8 c 1,14,15
 329 -16 329 -16 306 -16 c 0,16,17
 220 -16 220 -16 161.5 43 c 128,-1,18
 103 102 103 102 103 189 c 2,19,-1
 103 535 l 1,20,-1
 69 535 l 2,21,22
 41 535 41 535 41 556 c 0,23,24
 41 576 41 576 69 577 c 2,25,-1
 221 577 l 2,26,27
 249 577 249 577 249 556 c 0,28,29
 249 534 249 534 221 535 c 2,30,-1
 145 535 l 1,31,-1
 145 189 l 2,32,33
 145 119 145 119 192 72.5 c 128,-1,34
 239 26 239 26 307 26 c 0,35,36
 375 26 375 26 422 73.5 c 128,-1,37
 469 121 469 121 469 189 c 2,38,-1
 469 535 l 1,39,-1
 393 535 l 2,40,41
 365 535 365 535 366 556 c 0,42,43
 366 576 366 576 393 577 c 2,44,-1
 546 577 l 2,45,46
 574 577 574 577 573 556 c 0,47,48
 573 534 573 534 546 535 c 2,49,-1
 511 535 l 1,50,-1
 511 189 l 2,51,52
 511 143 511 143 494 105.5 c 128,-1,53
 477 68 477 68 453 43.5 c 128,-1,54
 429 19 429 19 405 -1.5 c 128,-1,55
 381 -22 381 -22 364 -44.5 c 128,-1,56
 347 -67 347 -67 347 -91 c 0,57,58
 347 -126 347 -126 392 -126 c 0,0,1
EndSplineSet
EndChar

StartChar: uogonek
Encoding: 371 371 309
Width: 614
GlyphClass: 2
Flags: W
LayerCount: 2
Fore
SplineSet
497 -126 m 0,0,1
 520 -126 520 -126 536 -116 c 128,-1,2
 552 -106 552 -106 555 -106 c 0,3,4
 560 -106 560 -106 564.5 -111 c 128,-1,5
 569 -116 569 -116 569 -122 c 0,6,7
 569 -135 569 -135 544 -147 c 128,-1,8
 519 -159 519 -159 490 -159 c 0,9,10
 453 -159 453 -159 433 -142.5 c 128,-1,11
 413 -126 413 -126 413 -96 c 0,12,13
 413 -64 413 -64 431 -42 c 128,-1,14
 449 -20 449 -20 492 0 c 1,15,-1
 450 0 l 1,16,-1
 450 68 l 1,17,18
 364 -16 364 -16 263 -16 c 0,19,20
 202 -16 202 -16 164.5 20.5 c 128,-1,21
 127 57 127 57 127 118 c 2,22,-1
 127 385 l 1,23,-1
 72 385 l 2,24,25
 44 385 44 385 44 407 c 0,26,27
 44 427 44 427 72 427 c 2,28,-1
 169 427 l 1,29,-1
 169 118 l 2,30,31
 169 79 169 79 196 52.5 c 128,-1,32
 223 26 223 26 262 26 c 0,33,34
 364 26 364 26 450 118 c 1,35,-1
 450 385 l 1,36,-1
 374 385 l 2,37,38
 345 385 345 385 345 407 c 0,39,40
 345 427 345 427 374 427 c 2,41,-1
 492 427 l 1,42,-1
 492 42 l 1,43,-1
 526 42 l 2,44,45
 554 42 554 42 554 22 c 0,46,47
 554 13 554 13 538 1.5 c 128,-1,48
 522 -10 522 -10 503 -21 c 128,-1,49
 484 -32 484 -32 468.5 -51 c 128,-1,50
 453 -70 453 -70 453 -91 c 0,51,52
 453 -126 453 -126 497 -126 c 0,0,1
EndSplineSet
EndChar

StartChar: longs
Encoding: 383 383 321
Width: 614
GlyphClass: 2
Flags: W
LayerCount: 2
Fore
SplineSet
532 564 m 0,0,1
 530 564 530 564 506.5 567 c 128,-1,2
 483 570 483 570 450 573.5 c 128,-1,3
 417 577 417 577 391 577 c 0,4,5
 341 577 341 577 309.5 552.5 c 128,-1,6
 278 528 278 528 278 489 c 2,7,-1
 278 42 l 1,8,-1
 460 42 l 2,9,10
 488 42 488 42 487 22 c 0,11,12
 487 0 487 0 460 0 c 2,13,-1
 135 0 l 2,14,15
 107 0 107 0 108 22 c 0,16,17
 108 42 108 42 135 42 c 2,18,-1
 236 42 l 1,19,-1
 236 385 l 1,20,-1
 145 385 l 2,21,22
 117 385 117 385 118 407 c 0,23,24
 118 427 118 427 145 427 c 2,25,-1
 236 427 l 1,26,-1
 236 489 l 2,27,28
 236 545 236 545 280.5 581.5 c 128,-1,29
 325 618 325 618 393 618 c 0,30,31
 465 618 465 618 536 605 c 1,32,33
 554 600 554 600 554 585 c 0,34,35
 554 564 554 564 532 564 c 0,0,1
EndSplineSet
EndChar

StartChar: uni0180
Encoding: 384 384 322
Width: 614
GlyphClass: 2
Flags: W
LayerCount: 2
Fore
SplineSet
330 399 m 0,0,1
 254 399 254 399 200.5 345 c 128,-1,2
 147 291 147 291 147 213 c 128,-1,3
 147 135 147 135 200.5 80.5 c 128,-1,4
 254 26 254 26 330 26 c 0,5,6
 405 26 405 26 458.5 80 c 128,-1,7
 512 134 512 134 512 210 c 0,8,9
 512 290 512 290 459.5 344.5 c 128,-1,10
 407 399 407 399 330 399 c 0,0,1
105 532 m 1,11,-1
 105 577 l 1,12,-1
 50 577 l 2,13,14
 22 577 22 577 23 598 c 0,15,16
 23 618 23 618 50 618 c 2,17,-1
 147 618 l 1,18,-1
 147 532 l 1,19,-1
 289 532 l 2,20,21
 317 532 317 532 316 512 c 0,22,23
 316 490 316 490 289 490 c 2,24,-1
 147 490 l 1,25,-1
 147 336 l 1,26,27
 222 441 222 441 332 441 c 0,28,29
 425 441 425 441 489.5 375.5 c 128,-1,30
 554 310 554 310 554 215 c 0,31,32
 554 119 554 119 489 51.5 c 128,-1,33
 424 -16 424 -16 332 -16 c 0,34,35
 219 -16 219 -16 147 90 c 1,36,-1
 147 0 l 1,37,-1
 50 0 l 2,38,39
 22 0 22 0 23 22 c 0,40,41
 23 42 23 42 50 42 c 2,42,-1
 105 42 l 1,43,-1
 105 490 l 1,44,-1
 50 490 l 2,45,46
 22 490 22 490 23 512 c 0,47,48
 23 532 23 532 50 532 c 2,49,-1
 105 532 l 1,11,-1
EndSplineSet
EndChar

StartChar: uni0181
Encoding: 385 385 323
Width: 614
GlyphClass: 2
Flags: W
LayerCount: 2
Fore
SplineSet
169 321 m 1,0,-1
 319 321 l 2,1,2
 385 321 385 321 427 351.5 c 128,-1,3
 469 382 469 382 469 429 c 0,4,5
 469 474 469 474 431 504.5 c 128,-1,6
 393 535 393 535 337 535 c 2,7,-1
 169 535 l 1,8,-1
 169 321 l 1,0,-1
512 157 m 0,9,10
 512 179 512 179 503.5 198 c 128,-1,11
 495 217 495 217 475.5 236 c 128,-1,12
 456 255 456 255 416.5 267 c 128,-1,13
 377 279 377 279 322 279 c 2,14,-1
 169 279 l 1,15,-1
 169 42 l 1,16,-1
 382 42 l 2,17,18
 436 42 436 42 474 75.5 c 128,-1,19
 512 109 512 109 512 157 c 0,9,10
72 577 m 2,20,-1
 336 577 l 2,21,22
 411 577 411 577 461 534.5 c 128,-1,23
 511 492 511 492 511 428 c 0,24,25
 511 352 511 352 424 305 c 1,26,27
 554 259 554 259 554 157 c 0,28,29
 554 92 554 92 504.5 46 c 128,-1,30
 455 0 455 0 385 0 c 2,31,-1
 72 0 l 2,32,33
 44 0 44 0 44 22 c 0,34,35
 44 42 44 42 72 42 c 2,36,-1
 127 42 l 1,37,-1
 127 535 l 1,38,-1
 72 535 l 2,39,40
 54 535 54 535 34.5 518 c 128,-1,41
 15 501 15 501 15 481 c 2,42,-1
 15 479 l 2,43,44
 15 456 15 456 32 440.5 c 128,-1,45
 49 425 49 425 70 425 c 0,46,47
 79 425 79 425 85 419 c 128,-1,48
 91 413 91 413 91 403 c 0,49,50
 91 395 91 395 85 389 c 128,-1,51
 79 383 79 383 70 383 c 0,52,53
 32 383 32 383 2.5 411 c 128,-1,54
 -27 439 -27 439 -27 481 c 128,-1,55
 -27 523 -27 523 4 550 c 128,-1,56
 35 577 35 577 72 577 c 2,20,-1
EndSplineSet
EndChar

StartChar: uni0183
Encoding: 387 387 325
Width: 614
GlyphClass: 2
Flags: W
LayerCount: 2
Fore
SplineSet
330 399 m 0,0,1
 254 399 254 399 200.5 345 c 128,-1,2
 147 291 147 291 147 213 c 128,-1,3
 147 135 147 135 200.5 80.5 c 128,-1,4
 254 26 254 26 330 26 c 0,5,6
 405 26 405 26 458.5 80 c 128,-1,7
 512 134 512 134 512 210 c 0,8,9
 512 290 512 290 459.5 344.5 c 128,-1,10
 407 399 407 399 330 399 c 0,0,1
147 577 m 1,11,-1
 147 336 l 1,12,13
 222 441 222 441 332 441 c 0,14,15
 425 441 425 441 489.5 375.5 c 128,-1,16
 554 310 554 310 554 215 c 0,17,18
 554 119 554 119 489 51.5 c 128,-1,19
 424 -16 424 -16 332 -16 c 0,20,21
 219 -16 219 -16 147 90 c 1,22,-1
 147 0 l 1,23,-1
 50 0 l 2,24,25
 22 0 22 0 23 22 c 0,26,27
 23 42 23 42 50 42 c 2,28,-1
 105 42 l 1,29,-1
 105 577 l 1,30,-1
 50 577 l 2,31,32
 22 577 22 577 23 598 c 0,33,34
 23 618 23 618 50 618 c 2,35,-1
 484 618 l 2,36,37
 512 618 512 618 512 598 c 0,38,39
 512 576 512 576 484 577 c 2,40,-1
 147 577 l 1,11,-1
EndSplineSet
EndChar

StartChar: uni0184
Encoding: 388 388 326
Width: 614
GlyphClass: 2
Flags: W
LayerCount: 2
Fore
SplineSet
520 157 m 0,0,1
 520 179 520 179 511.5 198 c 128,-1,2
 503 217 503 217 483.5 236 c 128,-1,3
 464 255 464 255 424.5 267 c 128,-1,4
 385 279 385 279 330 279 c 2,5,-1
 177 279 l 1,6,-1
 177 42 l 1,7,-1
 390 42 l 2,8,9
 444 42 444 42 482 75.5 c 128,-1,10
 520 109 520 109 520 157 c 0,0,1
177 487 m 1,11,-1
 177 321 l 1,12,-1
 328 321 l 2,13,14
 395 321 395 321 443.5 305.5 c 128,-1,15
 492 290 492 290 516.5 264.5 c 128,-1,16
 541 239 541 239 551.5 212 c 128,-1,17
 562 185 562 185 562 157 c 0,18,19
 562 92 562 92 512.5 46 c 128,-1,20
 463 0 463 0 393 0 c 2,21,-1
 80 0 l 2,22,23
 52 0 52 0 52 22 c 0,24,25
 52 42 52 42 80 42 c 2,26,-1
 135 42 l 1,27,-1
 135 459 l 1,28,-1
 84 423 l 1,29,30
 73 417 73 417 67 417 c 0,31,32
 60 417 60 417 53.5 423.5 c 128,-1,33
 47 430 47 430 47 438 c 0,34,35
 47 450 47 450 63 460 c 1,36,-1
 135 509 l 1,37,-1
 135 577 l 2,38,39
 135 605 135 605 156 604 c 0,40,41
 178 604 178 604 177 577 c 2,42,-1
 177 539 l 1,43,-1
 253 591 l 1,44,45
 265 597 265 597 270 597 c 0,46,47
 278 597 278 597 284 591 c 128,-1,48
 290 585 290 585 290 577 c 0,49,50
 290 565 290 565 273 555 c 1,51,-1
 177 487 l 1,11,-1
EndSplineSet
EndChar

StartChar: uni0185
Encoding: 389 389 327
Width: 614
GlyphClass: 2
Flags: W
LayerCount: 2
Fore
SplineSet
147 213 m 128,-1,1
 147 135 147 135 200.5 80.5 c 128,-1,2
 254 26 254 26 330 26 c 0,3,4
 405 26 405 26 458.5 80 c 128,-1,5
 512 134 512 134 512 210 c 0,6,7
 512 290 512 290 459.5 344.5 c 128,-1,8
 407 399 407 399 330 399 c 0,9,10
 254 399 254 399 200.5 345 c 128,-1,0
 147 291 147 291 147 213 c 128,-1,1
147 486 m 1,11,-1
 147 336 l 1,12,13
 222 441 222 441 332 441 c 0,14,15
 425 441 425 441 489.5 375.5 c 128,-1,16
 554 310 554 310 554 215 c 0,17,18
 554 119 554 119 489 51.5 c 128,-1,19
 424 -16 424 -16 332 -16 c 0,20,21
 219 -16 219 -16 147 90 c 1,22,-1
 147 0 l 1,23,-1
 50 0 l 2,24,25
 22 0 22 0 23 22 c 0,26,27
 23 42 23 42 50 42 c 2,28,-1
 105 42 l 1,29,-1
 105 457 l 1,30,-1
 59 425 l 1,31,32
 48 419 48 419 42 419 c 0,33,34
 35 419 35 419 29 425.5 c 128,-1,35
 23 432 23 432 23 440 c 0,36,37
 23 452 23 452 39 462 c 1,38,-1
 105 508 l 1,39,-1
 105 577 l 2,40,41
 105 605 105 605 126 604 c 0,42,43
 148 604 148 604 147 577 c 2,44,-1
 147 537 l 1,45,-1
 228 593 l 1,46,47
 240 599 240 599 246 599 c 0,48,49
 254 599 254 599 259.5 593 c 128,-1,50
 265 587 265 587 265 579 c 0,51,52
 265 567 265 567 249 557 c 1,53,-1
 147 486 l 1,11,-1
EndSplineSet
EndChar

StartChar: uni0186
Encoding: 390 390 328
Width: 614
GlyphClass: 2
Flags: W
LayerCount: 2
Fore
SplineSet
85 128 m 0,0,1
 94 128 94 128 109.5 112 c 128,-1,2
 125 96 125 96 143 76.5 c 128,-1,3
 161 57 161 57 197.5 41.5 c 128,-1,4
 234 26 234 26 282 26 c 0,5,6
 372 26 372 26 438.5 94 c 128,-1,7
 505 162 505 162 505 254 c 2,8,-1
 505 327 l 2,9,10
 505 418 505 418 444.5 483 c 128,-1,11
 384 548 384 548 299 548 c 0,12,13
 230 548 230 548 177.5 513 c 128,-1,14
 125 478 125 478 122 431 c 0,15,16
 121 406 121 406 101 407 c 0,17,18
 79 407 79 407 80 434 c 2,19,-1
 80 549 l 2,20,21
 80 577 80 577 100 577 c 0,22,23
 122 577 122 577 122 549 c 2,24,-1
 122 519 l 1,25,26
 196 590 196 590 299 590 c 0,27,28
 355 590 355 590 400.5 569 c 128,-1,29
 446 548 446 548 472.5 517 c 128,-1,30
 499 486 499 486 517 449 c 128,-1,31
 535 412 535 412 541 383 c 128,-1,32
 547 354 547 354 547 333 c 2,33,-1
 547 248 l 2,34,35
 547 145 547 145 466.5 64.5 c 128,-1,36
 386 -16 386 -16 282 -16 c 0,37,38
 238 -16 238 -16 195.5 -0.5 c 128,-1,39
 153 15 153 15 125.5 36.5 c 128,-1,40
 98 58 98 58 81.5 78 c 128,-1,41
 65 98 65 98 65 109 c 0,42,43
 65 128 65 128 85 128 c 0,0,1
EndSplineSet
EndChar

StartChar: uni0187
Encoding: 391 391 329
Width: 614
GlyphClass: 2
Flags: W
LayerCount: 2
Fore
SplineSet
65 333 m 2,0,1
 65 352 65 352 70.5 380.5 c 128,-1,2
 76 409 76 409 93.5 446.5 c 128,-1,3
 111 484 111 484 136.5 515 c 128,-1,4
 162 546 162 546 208 568 c 128,-1,5
 254 590 254 590 312 590 c 0,6,7
 415 590 415 590 489 519 c 1,8,-1
 489 549 l 2,9,10
 489 587 489 587 516 617 c 128,-1,11
 543 647 543 647 585 647 c 128,-1,12
 627 647 627 647 655 618.5 c 128,-1,13
 683 590 683 590 683 551 c 0,14,15
 683 543 683 543 677 536.5 c 128,-1,16
 671 530 671 530 663 530 c 0,17,18
 654 530 654 530 647.5 536.5 c 128,-1,19
 641 543 641 543 641 551 c 0,20,21
 641 573 641 573 624.5 589.5 c 128,-1,22
 608 606 608 606 584 606 c 1,23,24
 565 605 565 605 548 586.5 c 128,-1,25
 531 568 531 568 531 549 c 2,26,-1
 531 434 l 2,27,28
 531 406 531 406 510 407 c 0,29,30
 492 407 492 407 489 431 c 0,31,32
 486 478 486 478 433.5 513 c 128,-1,33
 381 548 381 548 312 548 c 0,34,35
 227 548 227 548 166.5 483 c 128,-1,36
 106 418 106 418 106 327 c 2,37,-1
 106 254 l 2,38,39
 106 162 106 162 173 94 c 128,-1,40
 240 26 240 26 330 26 c 0,41,42
 383 26 383 26 425 47.5 c 128,-1,43
 467 69 467 69 508 118 c 0,44,45
 517 128 517 128 526 128 c 0,46,47
 546 128 546 128 547 109 c 0,48,49
 547 100 547 100 530.5 80 c 128,-1,50
 514 60 514 60 487.5 38 c 128,-1,51
 461 16 461 16 418 0 c 128,-1,52
 375 -16 375 -16 330 -16 c 0,53,54
 226 -16 226 -16 145.5 64 c 128,-1,55
 65 144 65 144 65 248 c 2,56,-1
 65 333 l 2,0,1
EndSplineSet
EndChar

StartChar: uni0188
Encoding: 392 392 330
Width: 614
GlyphClass: 2
Flags: W
LayerCount: 2
Fore
SplineSet
548 90 m 0,0,1
 548 81 548 81 530.5 64 c 128,-1,2
 513 47 513 47 485 28.5 c 128,-1,3
 457 10 457 10 411 -3 c 128,-1,4
 365 -16 365 -16 316 -16 c 0,5,6
 216 -16 216 -16 151 47.5 c 128,-1,7
 86 111 86 111 86 209 c 0,8,9
 86 310 86 310 152.5 375.5 c 128,-1,10
 219 441 219 441 322 441 c 0,11,12
 417 441 417 441 481 385 c 1,13,-1
 481 398 l 2,14,15
 481 436 481 436 508 466.5 c 128,-1,16
 535 497 535 497 576.5 497 c 128,-1,17
 618 497 618 497 646.5 468 c 128,-1,18
 675 439 675 439 675 400 c 0,19,20
 675 392 675 392 669 386 c 128,-1,21
 663 380 663 380 654 380 c 0,22,23
 645 380 645 380 639 386 c 128,-1,24
 633 392 633 392 633 400 c 0,25,26
 633 422 633 422 616.5 439 c 128,-1,27
 600 456 600 456 575 456 c 1,28,29
 556 455 556 455 539.5 436.5 c 128,-1,30
 523 418 523 418 523 398 c 2,31,-1
 523 305 l 2,32,33
 523 277 523 277 503 278 c 0,34,35
 485 278 485 278 481 302 c 1,36,37
 478 343 478 343 430.5 371 c 128,-1,38
 383 399 383 399 318 399 c 0,39,40
 233 399 233 399 180.5 346.5 c 128,-1,41
 128 294 128 294 128 210 c 0,42,43
 128 129 128 129 181 77.5 c 128,-1,44
 234 26 234 26 318 26 c 0,45,46
 430 26 430 26 510 99 c 0,47,48
 520 109 520 109 528.5 109.5 c 128,-1,49
 537 110 537 110 542.5 104 c 128,-1,50
 548 98 548 98 548 90 c 0,0,1
EndSplineSet
EndChar

StartChar: uni018A
Encoding: 394 394 332
Width: 614
GlyphClass: 2
Flags: W
LayerCount: 2
Fore
SplineSet
490 326 m 2,0,1
 490 346 490 346 481 377 c 128,-1,2
 472 408 472 408 452 445 c 128,-1,3
 432 482 432 482 390.5 508.5 c 128,-1,4
 349 535 349 535 295 535 c 2,5,-1
 148 535 l 1,6,-1
 148 42 l 1,7,-1
 302 42 l 2,8,9
 376 42 376 42 433 105.5 c 128,-1,10
 490 169 490 169 490 251 c 2,11,-1
 490 326 l 2,0,1
35 577 m 2,12,-1
 297 577 l 2,13,14
 396 577 396 577 464 501.5 c 128,-1,15
 532 426 532 426 532 317 c 2,16,-1
 532 260 l 2,17,18
 532 150 532 150 464 75 c 128,-1,19
 396 0 396 0 297 0 c 2,20,-1
 72 0 l 2,21,22
 44 0 44 0 44 22 c 0,23,24
 44 42 44 42 72 42 c 2,25,-1
 106 42 l 1,26,-1
 106 535 l 1,27,-1
 35 535 l 2,28,29
 16 535 16 535 -3 518.5 c 128,-1,30
 -22 502 -22 502 -23 482 c 1,31,32
 -23 457 -23 457 -6 441 c 128,-1,33
 11 425 11 425 33 425 c 0,34,35
 41 425 41 425 47 419 c 128,-1,36
 53 413 53 413 53 403 c 0,37,38
 53 395 53 395 47 389 c 128,-1,39
 41 383 41 383 33 383 c 0,40,41
 -6 383 -6 383 -34.5 411 c 128,-1,42
 -63 439 -63 439 -63 481 c 128,-1,43
 -63 523 -63 523 -32.5 550 c 128,-1,44
 -2 577 -2 577 35 577 c 2,12,-1
EndSplineSet
EndChar

StartChar: uni018B
Encoding: 395 395 333
Width: 614
GlyphClass: 2
Flags: W
LayerCount: 2
Fore
SplineSet
294 331 m 2,0,-1
 444 331 l 1,1,-1
 444 535 l 1,2,-1
 133 535 l 1,3,-1
 133 434 l 2,4,5
 133 406 133 406 113 407 c 0,6,7
 91 407 91 407 91 434 c 2,8,-1
 91 577 l 1,9,-1
 542 577 l 2,10,11
 570 577 570 577 569 556 c 0,12,13
 569 534 569 534 542 535 c 2,14,-1
 486 535 l 1,15,-1
 486 42 l 1,16,-1
 542 42 l 2,17,18
 570 42 570 42 569 22 c 0,19,20
 569 0 569 0 542 0 c 2,21,-1
 228 0 l 2,22,23
 158 0 158 0 108.5 48 c 128,-1,24
 59 96 59 96 59 162 c 0,25,26
 59 191 59 191 70 218 c 128,-1,27
 81 245 81 245 105.5 271.5 c 128,-1,28
 130 298 130 298 178.5 314.5 c 128,-1,29
 227 331 227 331 294 331 c 2,0,-1
101 162 m 0,30,31
 101 114 101 114 139 78 c 128,-1,32
 177 42 177 42 231 42 c 2,33,-1
 444 42 l 1,34,-1
 444 289 l 1,35,-1
 292 289 l 2,36,37
 184 289 184 289 142.5 250 c 128,-1,38
 101 211 101 211 101 162 c 0,30,31
EndSplineSet
EndChar

